SplineFontDB: 3.0
FontName: FifthLeg-Bold
FullName: FifthLeg Bold
FamilyName: FifthLeg
Weight: Bold
Copyright: Designed by Jakub Steiner <jimmac@gmail.com> with FontForge 2.0\n\nhttp://jimmac.musichall.cz\n
UComments: "2008-8-26: Created." 
FontLog: "v0.4 +IBQA Moved oldstyle numerals to U+---F730 ... Kerning by class. Basic latin ligatures. Improved 'g'+AAoA-v0.3 +IBQA Improved metrics, but still nowhere near being good enough.+AAoA-v0.2 +IBQA Better coverage, normal weight.+AAoA-v0.1 +IBQA Initial version, result of the openSUSE hackweek.+AAoA" 
Version: 0.4
ItalicAngle: 0
UnderlinePosition: 122
UnderlineWidth: 49
Ascent: 800
Descent: 200
LayerCount: 3
Layer: 0 0 "Back"  1
Layer: 1 0 "Fore"  0
Layer: 2 0 "Alt"  0
XUID: [1021 332 1867756345 992183]
FSType: 0
OS2Version: 2
OS2_WeightWidthSlopeOnly: 0
OS2_UseTypoMetrics: 1
CreationTime: 1219682457
ModificationTime: 1242940352
PfmFamily: 33
TTFWeight: 700
TTFWidth: 5
LineGap: 0
VLineGap: 0
Panose: 0 0 4 0 0 0 0 0 0 0
OS2TypoAscent: 200
OS2TypoAOffset: 1
OS2TypoDescent: -200
OS2TypoDOffset: 1
OS2TypoLinegap: 0
OS2WinAscent: 0
OS2WinAOffset: 1
OS2WinDescent: 0
OS2WinDOffset: 1
HheadAscent: 0
HheadAOffset: 1
HheadDescent: 0
HheadDOffset: 1
OS2SubXSize: 0
OS2SubYSize: 4096
OS2SubXOff: -25240
OS2SubYOff: 24640
OS2SupXSize: 4096
OS2SupYSize: -20884
OS2SupXOff: -25257
OS2SupYOff: -28684
OS2StrikeYSize: 12426
OS2StrikeYPos: 15392
OS2FamilyClass: 2048
OS2Vendor: 'SUSE'
OS2CodePages: 00000001.00000000
Lookup: 3 0 0 "'onum' Old Style Numerals"  {} ['onum' ('DFLT' <'dflt' > 'latn' <'dflt' > ) ]
Lookup: 4 0 1 "'liga' Standard Latin Ligatures"  {"ligatures-1"  } ['liga' ('DFLT' <'dflt' > 'latn' <'dflt' > ) ]
Lookup: 258 0 0 "'kern' Kerning"  {"class-kerning"  } ['kern' ('DFLT' <'dflt' > 'latn' <'dflt' > ) ]
DEI: 91125
KernClass2: 4 4 "class-kerning" 
 43 A Agrave Aacute Acircumflex Adieresis Aring
 8 T Tcaron
 15 V W Wcircumflex
 15 V W Wcircumflex

StartChar: b
Encoding: 98 98 0
Width: 558
VWidth: 14
Flags: W
HStem: -3.66797 119.456<264.693 400.94> 370.378 118.643<274.854 400.94>
VStem: 60.6338 115.87<0.916016 38.0303 134.824 370.353 440.905 700> 402.131 115.869<114.984 135.415 135.415 370.369>
LayerCount: 3
Back
SplineSet
137.517 707.636 m 1
 137.517 424.01 l 1
 309.466 476.532 l 2
 319.017 478.441 328.566 479.397 338.115 479.397 c 0
 404.964 479.397 465.127 422.1 465.127 374.351 c 2
 465.127 101.227 l 2
 465.127 53.4785 404.964 -3.82031 338.115 -3.82031 c 0
 328.566 -3.82031 319.017 -1.91016 309.466 0 c 2
 137.517 43.9287 l 1
 137.517 0.954102 l 1
 48.7031 0.954102 l 1
 48.7031 584.444 l 2
 48.7031 657.978 89.7686 698.086 137.517 707.636 c 1
340.98 385.811 m 2
 173.806 385.811 l 2
 154.706 385.812 137.517 370.53 137.517 349.521 c 2
 137.517 125.102 l 2
 138.471 104.093 158.525 89.7686 172.85 89.7686 c 0
 173.806 89.7686 l 2
 340.98 89.7686 l 2
 358.17 89.7686 376.314 106.002 376.314 126.058 c 2
 376.314 349.521 l 2
 376.314 367.665 361.035 385.811 340.98 385.811 c 2
EndSplineSet
Fore
SplineSet
380.158 370.378 m 2
 199.507 370.378 l 2
 187.435 370.378 176.504 361.84 176.504 349.94 c 2
 176.496 134.824 l 2
 177.112 122.768 189.411 117.194 193.926 115.788 c 1
 193.665 115.87 194.906 115.502 195.354 115.396 c 0
 195.962 115.253 195.428 115.22 198.475 114.978 c 0
 198.681 114.962 199.303 114.978 199.507 114.978 c 2
 380.158 114.978 l 2
 388.946 114.978 402.131 123.152 402.131 135.415 c 2
 402.131 349.94 l 2
 402.131 358.115 393.341 370.378 380.158 370.378 c 2
176.504 700 m 1
 176.504 440.905 l 1
 342.146 485.817 l 2
 353.484 487.83 365.661 489.021 377.062 489.021 c 0
 450.787 489.021 518 430.355 518 373.776 c 2
 518 111.577 l 2
 518 54.998 450.787 -3.66797 377.062 -3.66797 c 0
 364.57 -3.66797 352.826 -1.46875 342.507 0.363281 c 2
 176.504 38.0303 l 1
 176.504 0.916016 l 1
 60.6338 0.916016 l 1
 60.6338 700 l 25
 176.504 700 l 1
193.949 115.781 m 1
 193.945 115.781 193.941 115.785 193.937 115.785 c 1
 193.941 115.785 193.946 115.781 193.949 115.781 c 1
193.949 115.781 m 1
 193.958 115.781 193.967 115.772 193.976 115.772 c 1
 193.967 115.772 193.957 115.781 193.949 115.781 c 1
193.926 115.788 m 1
 193.93 115.788 193.934 115.785 193.937 115.785 c 1
 193.933 115.785 193.929 115.788 193.926 115.788 c 1
EndSplineSet
Layer: 2
SplineSet
380.158 370.378 m 6
 199.507 370.378 l 6
 187.435 370.378 176.504 361.84 176.504 349.94 c 6
 176.496 134.824 l 6
 177.112 122.768 189.411 117.194 193.926 115.788 c 5
 193.665 115.87 194.906 115.502 195.354 115.396 c 4
 195.962 115.253 195.428 115.22 198.475 114.978 c 4
 198.681 114.962 199.303 114.978 199.507 114.978 c 6
 380.158 114.978 l 6
 388.946 114.978 402.131 123.152 402.131 135.415 c 6
 402.131 349.94 l 6
 402.131 358.115 393.341 370.378 380.158 370.378 c 6
176.504 440.905 m 5
 342.146 485.817 l 6
 353.484 487.83 365.661 489.021 377.062 489.021 c 4
 450.787 489.021 518 430.355 518 373.776 c 6
 518 111.577 l 6
 518 54.998 450.787 -3.66797 377.062 -3.66797 c 4
 364.57 -3.66797 352.826 -1.46875 342.507 0.363281 c 6
 176.504 38.0303 l 5
 176.504 0.916016 l 5
 60.6338 0.916016 l 5
 60.6338 575.467 l 6
 60.6338 653.136 105.442 697.443 157.471 707.851 c 6
 176.504 711.296 l 5
 176.504 440.905 l 5
193.949 115.781 m 5
 193.945 115.781 193.941 115.785 193.937 115.785 c 5
 193.941 115.785 193.946 115.781 193.949 115.781 c 5
193.949 115.781 m 5
 193.958 115.781 193.967 115.772 193.976 115.772 c 5
 193.967 115.772 193.957 115.781 193.949 115.781 c 5
193.926 115.788 m 5
 193.93 115.788 193.934 115.785 193.937 115.785 c 5
 193.933 115.785 193.929 115.788 193.926 115.788 c 5
EndSplineSet
EndChar

StartChar: h
Encoding: 104 104 1
Width: 581
VWidth: -4
Flags: W
HStem: 0.916016 21G<60.2686 176.175 397.093 513> 370.378 118.643<275.095 394.011>
VStem: 60.2686 115.906<0.916016 370.347 438.57 655.914> 397.093 115.907<0.916016 370.319>
LayerCount: 3
Back
SplineSet
137.517 707.636 m 1
 137.517 421.144 l 5
 306.547 476.532 l 2
 314.188 478.441 322.781 479.397 332.331 479.397 c 0
 390.586 479.397 460.299 430.692 460.299 374.351 c 2
 460.299 0.954102 l 1
 371.485 0.954102 l 1
 371.485 349.521 l 2
 371.485 370.53 353.341 385.811 335.196 385.811 c 2
 173.806 385.811 l 2
 152.796 385.811 137.517 367.665 137.517 349.521 c 2
 137.517 0.954102 l 1
 48.7031 0.954102 l 1
 48.7031 584.444 l 2
 48.7031 657.978 89.7686 698.086 137.517 707.636 c 1
EndSplineSet
Fore
SplineSet
176.175 438.57 m 1
 338.506 485.698 l 2
 348.327 487.873 359.506 489.021 370.932 489.021 c 0
 441.444 489.021 513 434.565 513 373.776 c 2
 513 0.916016 l 1
 397.093 0.916016 l 1
 397.093 349.94 l 2
 397.093 361.363 384.891 370.378 374.034 370.378 c 2
 199.233 370.378 l 2
 186.346 370.378 176.175 359.562 176.175 349.94 c 2
 176.175 0.916016 l 1
 60.2686 0.916016 l 1
 60.2686 575.467 l 2
 60.2686 653.136 105.077 697.444 157.105 707.851 c 2
 176.175 711.296 l 1
 176.175 438.57 l 1
EndSplineSet
EndChar

StartChar: m
Encoding: 109 109 2
Width: 820
VWidth: -4
Flags: W
HStem: 0.916016 21G<60.1074 176.364 360.828 478.354 653.754 770> 370.378 118.643<243.27 358.206 542.44 651.522>
VStem: 60.1074 116.257<0.916016 370.369 449.971 485.354> 360.828 117.526<0.916016 370.299> 653.754 116.246<0.916016 370.319>
LayerCount: 3
Back
SplineSet
304.638 479.397 m 0
 359.07 479.397 381.035 435.468 396.314 431.648 c 2
 406.818 430.692 l 5
 555.796 476.532 l 1
 568.21 478.441 578.715 479.397 590.174 479.397 c 0
 654.158 479.397 699.042 430.692 699.042 374.351 c 2
 699.042 0.954102 l 1
 610.229 0.954102 l 1
 610.229 349.521 l 2
 610.229 370.53 592.084 385.811 573.94 385.811 c 2
 448.838 385.811 l 2
 428.784 385.811 412.55 367.665 412.55 349.521 c 2
 412.55 0.954102 l 1
 324.691 0.954102 l 1
 324.691 349.521 l 2
 324.691 370.53 306.547 385.811 288.402 385.811 c 2
 163.301 385.811 l 2
 143.246 385.811 127.968 367.665 127.968 349.521 c 2
 127.968 0.954102 l 1
 39.1533 0.954102 l 1
 39.1533 475.577 l 1
 127.968 475.577 l 1
 127.968 433.559 l 5
 271.214 476.532 l 1
 282.672 478.441 294.132 479.397 304.638 479.397 c 0
EndSplineSet
Fore
SplineSet
449.331 442.955 m 5
 454.743 442.463 l 5
 606.435 485.943 l 5
 607.634 486.104 l 6
 623.674 488.245 636.01 489.021 648.165 489.021 c 4
 720.137 489.021 770 435.617 770 373.776 c 6
 770 0.916016 l 5
 653.754 0.916016 l 5
 653.754 349.94 l 6
 653.754 361.363 641.298 370.378 630.216 370.378 c 6
 501.891 370.378 l 6
 487.769 370.378 478.354 358.115 478.354 349.94 c 6
 478.354 0.916016 l 5
 360.828 0.916016 l 5
 360.828 349.94 l 6
 360.828 361.363 348.363 370.378 337.273 370.378 c 6
 198.861 370.378 l 6
 185.363 370.378 176.364 358.115 176.364 349.94 c 6
 176.364 0.916016 l 5
 60.1074 0.916016 l 5
 60.1074 485.354 l 5
 176.364 485.354 l 5
 176.364 449.971 l 5
 314.493 485.925 l 5
 315.529 486.075 l 6
 329.091 488.035 342.616 489.418 355.236 489.021 c 4
 419.317 486.806 437.47 448.688 449.331 442.955 c 5
EndSplineSet
EndChar

StartChar: a
Encoding: 97 97 3
Width: 538
VWidth: 14
Flags: W
HStem: -5.5 117.727<156.161 272.449> 201.69 72.93<319.064 371.27> 201.69 102.142<156.168 316.233> 370.378 114.976<155.639 367.656>
VStem: 40.4326 115.728<115.087 201.665> 371.27 115.73<0.916016 37.1738 112.227 201.69 274.62 366.842>
LayerCount: 3
Back
SplineSet
148.976 210.094 m 6xbc
 128.922 210.094 112.687 194.815 112.687 172.85 c 6
 112.687 123.192 l 6
 112.687 94.542 142.291 86.9023 148.976 86.9023 c 6
 371.485 86.9023 l 5
 371.485 210.094 l 5xdc
 148.976 210.094 l 6xbc
173.806 475.577 m 6
 285.537 475.577 l 6
 392.494 475.577 460.299 414.46 460.299 299.862 c 6
 460.299 0.954102 l 5
 371.485 0.954102 l 5
 371.485 42.0195 l 5
 161.392 0 l 6
 144.201 -3.82031 128.922 -5.72949 116.507 -5.72949 c 4
 42.0195 -5.72949 23.874 57.2979 23.874 113.643 c 6
 23.874 202.455 l 6
 23.874 253.068 46.7939 286.492 113.643 286.492 c 4xbc
 128.922 286.492 144.201 282.672 162.346 280.764 c 6
 371.485 254.022 l 5
 371.485 349.521 l 6
 371.485 363.845 357.16 385.811 335.196 385.811 c 6
 112.687 385.811 l 5
 115.552 421.144 129.877 475.577 173.806 475.577 c 6
EndSplineSet
Fore
SplineSet
178.969 201.69 m 6xbc
 165.284 201.69 156.161 193.148 156.161 180.336 c 6
 156.161 132.665 l 6
 156.161 116.162 177.475 112.227 178.969 112.227 c 6
 371.27 112.227 l 5
 371.27 201.69 l 5xdc
 178.969 201.69 l 6xbc
295.265 485.354 m 6
 417.3 485.354 487 418.509 487 302.268 c 6
 487 0.916016 l 5
 371.27 0.916016 l 5
 371.27 37.1738 l 5
 195.589 0.311523 l 6
 176.339 -3.72754 159.117 -5.5 144.185 -5.5 c 4
 61.3311 -5.5 40.4326 64.1133 40.4326 123.497 c 6
 40.4326 208.757 l 6
 40.4326 258.151 61.9492 303.832 141.116 303.832 c 4xbc
 160.233 303.832 171.786 301.368 195.151 298.235 c 6
 371.27 274.62 l 5
 371.27 349.94 l 6
 371.27 356.137 362.581 370.378 348.463 370.378 c 6
 124.479 370.378 l 5
 125.74 385.942 l 6
 130.241 441.451 156.673 485.354 205.568 485.354 c 6
 295.265 485.354 l 6
EndSplineSet
EndChar

StartChar: u
Encoding: 117 117 4
Width: 548
VWidth: -4
Flags: W
HStem: -7.63574 122.614<154.945 309.472>
VStem: 40 114.945<115.083 485.354> 381.505 116.777<0.916016 26.291 115.012 134.497 134.497 485.354 485.354 485.354>
LayerCount: 3
Back
SplineSet
58.1992 475.577 m 1
 146.058 475.577 l 1
 146.058 126.058 l 2
 146.058 105.047 164.201 89.7686 183.301 89.7686 c 2
 349.521 89.7686 l 2
 371.485 89.7686 385.811 108.867 385.811 125.102 c 2
 385.811 475.577 l 1
 475.577 475.577 l 1
 475.577 0.954102 l 1
 385.811 0.954102 l 1
 385.811 30.5596 l 1
 215.771 -2.27051 l 2
 191.896 -6.08984 171.842 -7.9541 153.696 -7.9541 c 4
 87.8027 -7.9541 58.1992 20.6494 58.1992 93.2266 c 2
 58.1992 475.577 l 1
EndSplineSet
Fore
SplineSet
40 485.354 m 1
 154.945 485.354 l 1
 154.945 135.415 l 2
 154.945 124.052 166.7 114.978 178.971 114.978 c 2
 358.509 114.978 l 2
 372.743 114.978 381.505 126.69 381.505 134.497 c 2
 381.505 485.354 l 1
 498.282 485.354 l 1
 498.282 0.916016 l 1
 381.505 0.916016 l 1
 381.505 26.291 l 1
 216.858 -1.95801 l 2
 190.492 -5.70703 167.711 -7.63574 146.994 -7.63574 c 0
 61.2148 -7.63574 40 41.6182 40 103.897 c 2
 40 485.354 l 1
EndSplineSet
EndChar

StartChar: r
Encoding: 114 114 6
Width: 444
VWidth: -4
Flags: W
HStem: 0.916016 21G<60.3076 177.824> 370.378 116.81<230.541 423.879>
VStem: 60.3076 117.516<0.916016 370.103 457.176 485.354>
LayerCount: 3
Back
SplineSet
358 385.811 m 1
 164.256 385.811 l 2
 143.246 385.811 127.968 367.665 127.968 349.521 c 2
 127.968 0.954102 l 1
 39.1533 0.954102 l 1
 39.1533 475.577 l 1
 127.968 475.577 l 1
 127.968 443.108 l 1
 278.854 471.758 l 2
 291.268 473.667 303.682 477.487 316.096 477.487 c 0
 333.259 477.487 346.925 474.202 358 468.419 c 1
 358 385.811 l 1
EndSplineSet
Fore
SplineSet
203.164 370.378 m 2
 189.001 370.378 177.824 359.564 177.824 349.94 c 2
 177.824 0.916016 l 1
 60.3076 0.916016 l 1
 60.3076 485.354 l 1
 177.824 485.354 l 1
 177.824 457.176 l 1
 331.183 481.478 l 2
 345.444 483.671 354.499 487.188 369.372 487.188 c 0
 387.655 487.188 403.28 483.627 416.267 476.848 c 2
 424 472.809 l 1
 424 370.378 l 1
 203.164 370.378 l 2
EndSplineSet
EndChar

StartChar: g
Encoding: 103 103 7
Width: 673
VWidth: 0
Flags: WO
HStem: -200 119.173<83.3518 416.722> -31.2344 109.613<191.085 419.897> 122.639 113.534<200.938 354.552> 371.766 103.812<187.421 355.942>
VStem: 63.4238 118.813<236.751 370.083> 89.4932 97.8877<50.8632 123.417> 358.131 131.376<238.975 369.639>
LayerCount: 3
Back
SplineSet
398.077 -33.0723 m 6xf1
 155.899 -33.0723 l 6
 144.139 -33.0723 135.676 -41.4023 135.676 -52.3906 c 6
 135.676 -113.269 l 6
 135.676 -123.194 144.638 -132.586 155.899 -132.586 c 6
 398.077 -132.586 l 6
 411.088 -132.586 419.208 -124.184 419.208 -113.269 c 6
 419.208 -52.3906 l 6
 419.208 -36.9365 404.597 -33.0723 398.077 -33.0723 c 6xf1
345.485 357.428 m 6
 198.86 357.428 l 6
 185.406 357.428 175.727 349.097 175.727 338.109 c 6
 175.727 247.932 l 6
 175.727 238.006 185.979 228.614 198.86 228.614 c 6
 345.485 228.614 l 6
 360.369 228.614 369.656 237.017 369.656 247.932 c 6
 369.656 338.109 l 6xf2
 369.656 353.564 352.943 357.428 345.485 357.428 c 6
469.49 524.297 m 6
 545.662 594.884 616.374 465.239 521.134 437.444 c 6
 451.745 417.193 l 5
 472.346 391.911 484.581 359.312 484.581 323.594 c 6
 484.581 262.447 l 6xf6
 484.581 180.32 419.122 115.742 331.994 115.742 c 6
 183.391 115.742 l 5
 156 100 172.078 67.7979 195 67.7979 c 5
 386.283 67.7979 l 6
 502.922 67.7979 532.081 -12.5518 532.081 -86.9062 c 6
 532.081 -96.7529 l 6
 532.081 -178.88 466.622 -233.458 386.283 -233.458 c 6
 169.923 -233.458 l 6
 77.9971 -233.458 22.8027 -198.265 22.8027 -96.7529 c 6
 22.8027 -86.9062 l 6xf9
 22.8027 -34.9619 48.9971 18.1035 88.6406 44.082 c 5
 87.5391 49.3906 86.998 54.6436 86.998 59.7783 c 5
 78.6553 83.0459 89.2175 134.819 113.142 148.628 c 5
 65.5635 186.605 60.8027 240.501 60.8027 262.447 c 6
 60.8027 323.594 l 6xf4
 60.8027 405.723 126.262 470.298 213.391 470.298 c 6
 331.994 470.298 l 6
 356.108 470.298 379.047 465.948 397.988 458.038 c 5
 469.49 524.297 l 6
EndSplineSet
Fore
SplineSet
527.983 443.004 m 2xfa
 454.942 422.837 l 1
 476.627 397.66 489.507 365.196 489.507 329.627 c 2
 489.507 268.733 l 2
 489.507 186.948 420.603 122.639 317.589 122.639 c 2
 224.684 122.639 l 2
 216.532 122.639 208.482 122.986 200.567 123.664 c 1
 191.513 119.748 187.381 111.935 187.381 102.702 c 0
 187.381 91.5889 195.165 78.3789 218.094 78.3789 c 2
 383.059 78.3789 l 2
 487.952 78.3789 539.507 17.6748 539.507 -47.8486 c 2
 539.507 -58.2139 l 2
 539.507 -144.104 476.818 -199.491 383.091 -199.64 c 2
 156.013 -200 l 2
 82.8379 -200.116 28 -137.331 28 -95.8271 c 2
 28 -80.8271 l 1
 398.449 -80.8271 l 2
 405.312 -80.8271 420.691 -76.7617 420.692 -60.4932 c 2
 420.692 -50.5693 l 2
 420.691 -39.3242 410.757 -31.2344 398.449 -31.2344 c 2
 218.272 -31.2344 l 2
 130.277 -31.2344 89.4932 22.6064 89.4932 78.1592 c 0xf6
 89.4932 106.923 100.2 134.741 120.248 154.612 c 1
 68.5508 192.414 63.4238 246.956 63.4238 269.014 c 2
 63.4238 329.781 l 2
 63.4238 411.401 132.328 475.577 246.896 475.577 c 2
 306.035 475.577 l 2
 339.392 475.577 371.119 470.998 398.356 462.672 c 1
 473.477 532.287 l 2
 506.005 564.39 546.932 547.678 561 518.5 c 4
 574.5 490.5 561.226 452.182 527.983 443.004 c 2xfa
358.131 341.431 m 2
 358.131 363 345 371.766 324.695 371.766 c 2
 216.588 371.766 l 2
 193 371.766 182.237 359.5 182.237 341.431 c 2
 182.237 264.507 l 2xfa
 182.237 247 189 236.173 208.176 236.173 c 2
 329.844 236.173 l 2
 352.5 236.173 358.131 248 358.131 267.507 c 2
 358.131 341.431 l 2
EndSplineSet
Layer: 2
SplineSet
347.854 -121.876 m 2
 362.001 -120.528 368.9 -109.096 368.9 -100.553 c 2
 368.9 16.0049 l 1
 178.448 -9.44434 l 2
 160.912 -11.29 144.276 -14.3262 127.968 -14.3262 c 0
 43.3887 -14.3262 22.2441 35.8457 22.2441 84.7119 c 2
 22.2441 358.79 l 2
 22.2441 420.09 44.6152 495.071 129.877 495.071 c 0
 146.13 495.071 165.537 489.779 176.897 487.106 c 2
 368.9 451.332 l 1
 368.9 495.071 l 1
 488.667 495.071 l 1
 488.667 -101.508 l 2
 488.667 -187.621 434.633 -239.7 353.341 -239.7 c 2
 187.175 -239.7 l 2
 140.983 -239.7 116.387 -195.782 110.188 -138.454 c 2
 108.393 -121.842 l 1
 347.854 -121.876 l 2
141.058 353.061 m 2
 141.058 130.551 l 2
 141.058 118.126 151.159 109.263 162.346 109.263 c 2
 368.9 109.263 l 1
 368.9 373.395 l 1
 162.346 373.395 l 2
 158.888 373.395 146.262 372.988 141.574 355.433 c 2
 141.574 355.433 141.263 355.078 141.288 354.247 c 2
 141.288 354.247 141.209 354.725 141.058 353.061 c 2
EndSplineSet
EndChar

StartChar: o
Encoding: 111 111 8
Width: 527
VWidth: -4
Flags: W
HStem: -7.33398 114.06<157.884 379.077> 371.295 114.059<157.885 379.349>
VStem: 39.96 115.872<107.088 370.934> 381.127 115.873<107.087 370.893>
LayerCount: 3
Back
SplineSet
195.896 475.577 m 6
 335.035 475.577 l 6
 412.389 475.577 473.507 414.46 473.507 336.151 c 6
 473.507 131.786 l 6
 473.507 53.4785 411.434 -7.63965 335.035 -7.63965 c 6
 195.896 -7.63965 l 6
 119.497 -7.63965 57.4238 53.4785 57.4238 131.786 c 6
 57.4238 336.151 l 6
 57.4238 414.46 119.497 475.577 195.896 475.577 c 6
347.449 386.766 m 6
 182.525 386.766 l 6
 162.471 386.766 146.237 371.485 146.237 351.431 c 6
 146.237 116.507 l 6
 146.237 97.4072 162.471 81.1729 182.525 81.1729 c 6
 347.449 81.1729 l 6
 368.46 81.1729 384.692 96.4512 384.692 116.507 c 6
 384.692 351.431 l 6
 384.692 371.485 368.46 386.766 347.449 386.766 c 6
EndSplineSet
Fore
SplineSet
343.67 485.354 m 2
 431.727 485.354 497 419.969 497 337.105 c 2
 497 140.915 l 2
 497 57.9229 430.852 -7.33398 343.67 -7.33398 c 2
 193.292 -7.33398 l 2
 106.107 -7.33398 39.96 57.9248 39.96 140.915 c 2
 39.96 337.105 l 2
 39.96 420.099 106.108 485.354 193.292 485.354 c 2
 343.67 485.354 l 2
357.087 371.295 m 2
 178.841 371.295 l 2
 165.461 371.295 155.832 362.876 155.832 351.773 c 2
 155.832 126.246 l 2
 155.832 116.216 166.028 106.726 178.841 106.726 c 2
 357.087 106.726 l 2
 371.89 106.726 381.127 115.217 381.127 126.246 c 2
 381.127 351.773 l 2
 381.127 367.392 364.504 371.295 357.087 371.295 c 2
EndSplineSet
EndChar

StartChar: s
Encoding: 115 115 10
Width: 501
VWidth: -4
Flags: W
HStem: 0 109.977<73.8379 333.446> 195.303 102.412<157.962 333.64> 374.665 111.976<157.022 401.723>
VStem: 39.5977 115.343<298.641 374.622> 336.858 113.142<111.626 193.012>
LayerCount: 3
Back
SplineSet
160.436 392.359 m 18
 135 392.359 124.146 373 124.147 355.115 c 10
 124.147 315.367 l 2
 124.146 307.728 131.786 279.078 160.436 279.078 c 2
 313.936 279.078 l 2
 376.01 279.078 425.667 233.969 425.667 175.716 c 2
 425.667 112.687 l 2
 425.667 36.2891 383.648 0 300.566 0 c 2
 106.957 0 l 2
 74.4883 0 49.6592 19.0986 45.8389 78.3086 c 1
 300.566 78.3086 l 2
 309.16 78.3086 337.812 85.9482 337.811 114.597 c 2
 337.811 165.85 l 6
 337.811 185.905 319.665 199.273 300.566 199.273 c 6
 148.021 199.273 l 6
 84.0381 199.273 36.2891 252.113 36.2891 310.367 c 2
 36.2891 382.811 l 2
 37.2441 428.648 72.5781 470.667 148.021 470.667 c 2
 335.539 470.667 l 2
 377.559 469.712 402.299 446.793 408.982 392.359 c 1
 160.436 392.359 l 18
EndSplineSet
Fore
SplineSet
154.94 350.311 m 2
 154.94 318.151 l 6
 154.94 317.191 158.08 297.715 178.497 297.715 c 6
 327.352 297.715 l 6
 394.824 297.715 450 254.589 450 190 c 6
 450 122.579 l 2
 450 42.9688 405.447 0 312.559 0 c 2
 121.839 0 l 2
 83.7217 0 53.0264 29.0713 48.7959 94.6494 c 2
 47.8066 109.977 l 1
 312.559 109.977 l 2
 316.711 109.977 336.858 112 336.858 136.413 c 2
 336.858 170.615 l 6
 336.857 180.219 326.531 195.303 312.559 195.303 c 6
 164.76 195.303 l 6
 91.5762 195.303 39.5957 252.629 39.5977 316.353 c 6
 39.5996 391.048 l 2
 39.6006 442.84 80.8955 486.642 164.76 486.641 c 2
 349.241 486.639 l 2
 377.72 485.991 424.375 468.203 433.875 390.819 c 2
 435.859 374.665 l 1
 178.497 374.665 l 2
 160.376 374.665 154.939 359.85 154.94 350.311 c 2
EndSplineSet
EndChar

StartChar: e
Encoding: 101 101 11
Width: 505
VWidth: -4
Flags: W
HStem: 0 113.145<158.386 363.43> 192.683 98.251<152.272 363.09> 372.442 111.726<157.946 356.693>
VStem: 35.3633 116.909<116.07 192.683 290.934 366.642> 363.09 116.91<290.934 368.389>
LayerCount: 3
Back
SplineSet
177.985 87.8584 m 2
 408 87.8584 l 5
 408 46 316.488 0 242 0 c 2
 177.985 0 l 2
 93.9482 0 40.4697 72.5781 40.4697 148.976 c 2
 40.4697 331.791 l 2
 40.4697 409.144 102.542 471.217 179.896 471.217 c 2
 303.25 471.217 l 2
 381.559 471.217 443.633 409.144 443.633 331.791 c 2
 443.633 193.419 l 1
 130.237 193.419 l 1
 130.237 138.471 l 2
 130.237 110.532 151.629 87.8584 177.985 87.8584 c 2
130.237 341.341 m 1
 130.237 265.764 l 1
 353.864 265.764 l 1
 353.864 341.341 l 2
 353.864 368.225 332.473 390.044 306.115 390.044 c 2
 177.985 390.044 l 2
 151.629 390.044 130.237 368.225 130.237 341.341 c 1
EndSplineSet
Fore
SplineSet
187.927 113.145 m 2
 445.792 113.145 l 1
 445.792 98.7441 l 2
 445.792 47.707 345.771 0 257.626 0 c 2
 187.927 0 l 2
 93.9287 0 35.3633 74.8633 35.3633 157.417 c 2
 35.3633 332.919 l 2
 35.3633 415.056 101.477 484.168 190.009 484.168 c 2
 324.312 484.168 l 2
 413.793 484.168 480 413.071 480 330.919 c 2
 480 192.683 l 1
 152.272 192.683 l 1
 152.272 147.332 l 2
 152.271 127.838 168.972 113.145 187.927 113.145 c 2
152.272 337.087 m 2
 152.272 290.934 l 1
 363.09 290.934 l 1
 363.09 337.087 l 2
 363.09 355.161 346.864 372.442 327.433 372.442 c 2
 187.927 372.442 l 2
 168.489 372.442 152.272 355.158 152.272 337.087 c 2
EndSplineSet
EndChar

StartChar: f
Encoding: 102 102 12
Width: 326
VWidth: -4
Flags: W
HStem: 0.916016 21G<60 178.134> 384.614 100.74<178.134 285.24> 598.438 100.525<182.465 352.655>
VStem: 60 118.134<0.916016 384.614 485.354 594.743>
LayerCount: 3
Back
SplineSet
180.49 698.086 m 2
 348.566 698.086 l 1
 348.566 678.032 l 2
 348.566 640.788 334.241 623.373 291.268 623.373 c 6
 180.49 623.373 l 6
 153.751 623.373 137.517 606.185 137.517 579.444 c 6
 137.517 475.577 l 1
 254.022 475.577 l 2
 272.168 475.577 286.492 455.299 286.492 438.108 c 0
 286.492 419.964 272.168 400.64 254.022 400.64 c 2
 137.517 400.64 l 1
 137.517 0.954102 l 1
 48.7031 0.954102 l 1
 48.7031 586.354 l 2
 48.7031 587.31 l 0
 48.7031 654.158 100.272 698.086 180.49 698.086 c 2
EndSplineSet
Fore
SplineSet
212.585 698.963 m 2
 365.469 698.963 l 1
 365.469 665.311 l 2
 365.469 611.812 334.362 598.438 296.062 598.438 c 2
 212.585 598.438 l 2
 191.873 598.438 178.134 590.281 178.134 570.667 c 2
 178.134 485.354 l 1
 260.306 485.354 l 2
 262.988 485.056 273.733 485.657 285.805 476.012 c 0
 305.161 460.548 306.13 439.052 305.877 434.984 c 0
 304.812 417.896 298.712 403.76 285.648 393.615 c 0
 278.821 388.312 270.04 384.614 260.306 384.614 c 2
 178.134 384.614 l 1
 178.134 0.916016 l 1
 60 0.916016 l 1
 60 577.3 l 2
 60 577.483 60 578.034 60 578.217 c 0
 60 650.664 116.366 698.963 212.585 698.963 c 2
EndSplineSet
EndChar

StartChar: t
Encoding: 116 116 13
Width: 394
VWidth: -4
Flags: HMW
HStem: -0.213867 104.186<242.288 369.446> 371.811 103.766<9.84938 121.786 240.599 355.927>
VStem: 121.786 118.813<107.282 371.811 475.577 685.755>
LayerCount: 3
Back
SplineSet
166.67 698.086 m 4
 190.545 698.086 210.599 678.032 210.599 654.158 c 6
 210.599 475.577 l 5
 314.691 475.577 l 6
 339.521 475.577 360.53 454.567 360.53 429.738 c 6
 360.53 385.811 l 5
 210.599 385.811 l 5
 210.599 0.954102 l 5
 121.786 0.954102 l 5
 121.786 385.811 l 5
 54.9375 385.811 l 6
 29.1533 385.811 10.0537 405.864 10.0537 429.738 c 4
 10.0537 454.567 29.1533 475.577 54.9375 475.577 c 6
 121.786 475.577 l 5
 121.786 654.158 l 6
 121.786 678.032 141.842 698.086 166.67 698.086 c 4
EndSplineSet
Fore
SplineSet
182.67 698.086 m 0
 218 698.169 240.599 674 240.599 644.158 c 2
 240.599 475.577 l 1
 314.691 475.577 l 2
 339.521 475.577 360.53 460.567 360.53 435.738 c 2
 360.53 371.811 l 1
 240.599 371.811 l 1
 240.599 138 l 1
 240.599 114 251 103.972 273 103.972 c 1
 272 104 331.314 103.879 332.046 103.599 c 1
 358 103.599 372.046 91 372.046 65 c 1
 372.046 -0.213867 l 1
 372.022 -0.105469 239 0 239 0.448242 c 1
 165 0 121.786 40 121.786 118 c 1
 121.786 371.811 l 1
 54.9375 371.811 l 2
 29.1533 371.811 0 390 0.0537109 422.738 c 0
 0.111328 458 29.1533 475.577 54.9375 475.577 c 2
 121.786 475.577 l 1
 121.786 644.158 l 2
 121.786 674 146 698 182.67 698.086 c 0
EndSplineSet
Layer: 2
SplineSet
243.927 632.392 m 2
 243.927 471.354 l 1
 355.093 471.354 l 2
 380.742 471.354 402 446.422 402 419.949 c 2
 402 370.378 l 1
 243.927 370.378 l 1
 243.927 0.916016 l 1
 112.518 0.916016 l 1
 112.518 370.378 l 1
 52.7432 370.378 l 2
 25.7041 370.378 5.25488 394.729 5.25488 419.949 c 0
 5.25488 445.951 25.54 471.354 52.7432 471.354 c 2
 112.518 471.354 l 1
 112.518 632.392 l 2
 112.518 654.05 126 698.963 182.806 698.963 c 4
 236.009 698.963 243.927 655.596 243.927 632.392 c 2
EndSplineSet
EndChar

StartChar: i
Encoding: 105 105 14
Width: 245
VWidth: -4
Flags: W
HStem: 0.916016 21G<65.0234 179.083> 573.902 114.977<77.8139 166.469>
VStem: 65.0234 114.977<0.916016 471.661 586.326 675.724>
LayerCount: 3
Back
SplineSet
94.542 475.577 m 4
 119.372 475.577 138.471 454.567 138.471 429.738 c 6
 138.471 0.954102 l 5
 49.6592 0.954102 l 5
 49.6592 429.738 l 6
 49.6592 454.567 70.668 475.577 94.542 475.577 c 4
139.426 641.743 m 0
 139.426 615.959 119.372 597.814 93.5869 597.814 c 0
 66.8477 597.814 49.6592 619.778 49.6592 641.743 c 0
 49.6592 668.482 70.668 687.582 93.5869 687.582 c 0
 118.417 687.582 139.426 667.527 139.426 641.743 c 0
EndSplineSet
Fore
SplineSet
179.083 426.949 m 2
 179.083 0.916016 l 1
 65.0234 0.916016 l 1
 65.0234 426.949 l 2
 65.0234 458.942 91.0781 485.354 122.512 485.354 c 0
 154.889 485.354 179.083 458.103 179.083 426.949 c 2
121.595 573.902 m 0
 87.3691 573.902 65.0234 602.188 65.0234 630.474 c 0
 65.0234 663.992 91.583 688.879 121.595 688.879 c 0
 153.25 688.879 180 663.295 180 630.474 c 0
 180 597.699 154.54 573.902 121.595 573.902 c 0
EndSplineSet
EndChar

StartChar: v
Encoding: 118 118 15
Width: 453
VWidth: -4
Flags: W
HStem: 0.916016 21G<173.972 275.013>
LayerCount: 3
Back
SplineSet
458.389 419.685 m 6
 268.348 0.954102 l 5
 210.094 0.954102 l 5
 21.0088 419.685 l 6
 -4.88867 477.034 78.0635 508.488 101.227 456.928 c 6
 218 197 l 6
 224.729 182.023 235.374 127 235.374 113.301 c 5
 243.068 113.301 l 5
 244.022 125.716 256.066 180.16 263 196 c 6
 377.215 456.928 l 6
 401 512 482.703 473.259 458.389 419.685 c 6
EndSplineSet
Fore
SplineSet
442.422 411.347 m 2
 266.438 0.916016 l 1
 182.499 0.916016 l 1
 7.5 411.371 l 2
 3.47754 420.296 1.46973 429.226 1.46973 437.756 c 0
 1.46973 471.708 31.3496 492.489 59.6787 492.489 c 0
 90.333 492.489 105.768 470.801 110.768 458.952 c 2
 217.325 206.422 l 2
 219.776 200.627 222.56 173.388 225.749 161.524 c 1
 229.16 172.865 231.006 202.657 233.337 208.334 c 2
 338.177 458.793 l 2
 343.109 470.577 358.161 493.126 388.159 493.126 c 0
 417.79 493.126 448 470.288 448 436.072 c 0
 448 427.998 446.164 419.592 442.422 411.347 c 2
EndSplineSet
EndChar

StartChar: q
Encoding: 113 113 17
Width: 537
VWidth: -9
Flags: HMW
HStem: -6.67578 120.564<168.603 344.456> 367.455 116.809<165.897 318.083>
VStem: 49.6328 115.868<114.488 134.325 134.325 364.918> 391 118<-175.252 -149.652 462.72 483.833>
LayerCount: 3
Back
SplineSet
386.763 13 m 2
 386.763 -187.888 l 2
 386.763 -195.888 392.5 -200.329 399 -200.329 c 2
 475.577 -200.329 l 1
 475.577 467 l 2
 475.577 471.062 472.918 474 469.73 474 c 2
 386.73 474 l 9
 386.73 436 l 22
 386.73 432.25 384.464 428.234 379.23 429.569 c 6
 220.73 470 l 2
 204.497 473.82 177.2 474.441 164.786 474.441 c 0
 90.2959 474.441 39.1533 409.505 39.1533 353.16 c 2
 39.1533 118 l 2
 39.1533 52 92.0723 -6.9541 158.919 -6.9541 c 0
 172 -6.9541 199.918 -5.93555 210.73 -4 c 2xb8
 372.73 25.002 l 2
 380.978 26.4785 386.763 21.5 386.763 13 c 2
165.209 88.6328 m 2
 144.2 88.6328 127.964 103.912 127.964 124.922 c 2
 127.964 347.431 l 2
 127.964 376.08 156.615 382.766 163.299 382.766 c 2
 386.763 382.766 l 1
 386.763 88.6328 l 1
 165.209 88.6328 l 2
EndSplineSet
Fore
SplineSet
189.538 113.888 m 2
 175.115 113.888 165.501 122.062 165.501 134.325 c 2
 165.501 347.934 l 2
 165.501 364.435 185.423 367.455 187.476 367.455 c 2
 391.128 367.455 l 1
 391.128 113.888 l 1
 189.538 113.888 l 2
488.986 483.84 m 6
 391.094 483.84 l 1
 391.094 443.587 l 1
 253.662 479.52 l 2
 247.515 480.806 227.58 484.264 189.081 484.264 c 0
 103.636 484.264 49.6328 414.203 49.6328 353.434 c 2
 49.6328 127.68 l 2
 49.6328 56.7852 106.015 -6.67578 182.742 -6.67578 c 0
 200.427 -6.67578 230.256 -5.41406 241.778 -3.58105 c 2
 391.128 23.5449 l 1
 391.128 -149.652 l 2
 391.128 -162.844 402.901 -175.996 419.086 -175.996 c 2
 509 -175.996 l 5
 509 462.72 l 5
 509 474.378 500.034 483.84 488.986 483.84 c 6
EndSplineSet
EndChar

StartChar: p
Encoding: 112 112 18
Width: 554
VWidth: -9
Flags: W
HStem: -6.67578 120.564<217.176 393.03> 23.5449 90.3431<170.504 209.045> 367.455 116.809<170.504 170.539 243.55 395.735>
VStem: 52.6328 117.871<-228.372 23.5449 113.888 367.455 443.587 483.834> 396.131 115.869<114.488 364.918>
LayerCount: 3
Back
SplineSet
132.968 13 m 2
 132.968 -217.888 l 2
 132.968 -225.888 127.23 -230.329 120.73 -230.329 c 2
 44.1533 -230.329 l 1
 44.1533 467 l 2
 44.1533 471.062 46.8125 474 50 474 c 2
 133 474 l 9
 133 436 l 22
 133 430.375 136.699 428.459 140.5 429.569 c 6
 279 470 l 2
 295.233 473.82 322.53 474.441 334.944 474.441 c 0
 409.434 474.441 460.577 409.505 460.577 353.16 c 2
 460.577 118 l 2
 460.577 52 407.658 -6.9541 340.811 -6.9541 c 0
 327.73 -6.9541 299.812 -5.93555 289 -4 c 2xb8
 147 25.002 l 2
 139.482 26.5374 132.968 21.75 132.968 13 c 2
334.521 88.6328 m 2
 355.53 88.6328 371.766 103.912 371.766 124.922 c 2
 371.766 347.431 l 2
 371.766 376.08 343.115 382.766 336.431 382.766 c 2
 132.968 382.766 l 1
 132.968 88.6328 l 1
 334.521 88.6328 l 2
EndSplineSet
Fore
SplineSet
372.095 113.888 m 2x38
 386.517 113.888 396.131 122.062 396.131 134.325 c 2
 396.131 347.934 l 2
 396.131 364.435 376.209 367.455 374.157 367.455 c 2
 170.504 367.455 l 1
 170.504 113.888 l 1
 372.095 113.888 l 2x38
72.6455 483.84 m 2
 170.539 483.84 l 1
 170.539 443.587 l 1
 307.971 479.52 l 2
 314.118 480.806 334.052 484.264 372.551 484.264 c 0
 457.997 484.264 512 414.203 512 353.434 c 2
 512 127.68 l 2
 512 56.7852 455.617 -6.67578 378.891 -6.67578 c 0xb8
 361.205 -6.67578 331.376 -5.41406 319.854 -3.58105 c 2
 170.504 23.5449 l 1x78
 170.504 -202.772 l 2
 170.504 -215.964 158.73 -229.116 142.547 -229.116 c 2
 52.6328 -229.116 l 1
 52.6328 462.72 l 2
 52.6328 476 61.5 483.84 72.6455 483.84 c 2
EndSplineSet
EndChar

StartChar: l
Encoding: 108 108 19
Width: 267
VWidth: -20
Flags: W
HStem: 0.954102 21G<153.5 226.716>
VStem: 70.6592 118.812<102.888 684.438>
LayerCount: 3
Back
SplineSet
94.542 698.086 m 0xa0
 119.372 698.086 138.471 678.032 138.471 654.158 c 2
 138.471 77.6943 l 1
 152.346 77.6943 l 2
 165.5 77.6943 175.716 69 175.716 54.3252 c 6
 175.716 0.954102 l 1
 49.6592 0.954102 l 1xc0
 49.6592 654.158 l 2
 49.6592 678.032 68.7578 698.086 94.542 698.086 c 0xa0
EndSplineSet
Fore
SplineSet
70.6592 88.3896 m 2
 70.6592 88.3896 70.6592 455.568 70.6592 639.158 c 0
 70.6592 671.173 96.7109 698.086 130.542 698.086 c 0
 163.738 698.086 189.471 671.109 189.471 639.158 c 2
 189.471 102.888 l 1
 210.06 102.377 226.716 87.8516 226.716 66.2559 c 2
 226.716 0.954102 l 1
 153.5 0.954102 l 2
 105 0 70.6592 41.3711 70.6592 88.3896 c 2
EndSplineSet
EndChar

StartChar: k
Encoding: 107 107 20
Width: 559
VWidth: -4
Flags: W
HStem: 0.916016 21G<60 175.639>
VStem: 60 115.639<0.916016 235.304 365.756 655.914>
LayerCount: 3
Back
SplineSet
137.517 707.636 m 1
 137.517 339.971 l 1
 414.46 500.407 l 2
 419.234 502.316 427.829 506.137 435.468 506.137 c 0
 450.748 506.137 466.028 497.542 473.667 483.217 c 0
 477.487 477.487 479.397 469.848 479.397 460.299 c 0
 479.397 445.018 472.712 430.692 458.389 422.1 c 2
 273.123 316.096 l 1
 509.957 32.4697 l 1
 475.577 4.77539 l 2
 466.982 -1.91016 457.434 -5.72949 447.884 -5.72949 c 0
 434.514 -5.72949 421.144 0 412.55 10.5049 c 2
 196.725 273.123 l 1
 137.517 238.744 l 1
 137.517 0.954102 l 1
 48.7031 0.954102 l 1
 48.7031 584.444 l 2
 48.7031 657.978 89.7686 698.086 137.517 707.636 c 1
EndSplineSet
Fore
SplineSet
175.639 365.756 m 1
 447.656 507.774 l 1
 448.731 508.161 l 2
 453.829 510.101 464.288 514.691 474.493 514.691 c 0
 494.498 514.691 512.871 504.042 523.509 485.67 c 0
 529.39 475.512 531.066 465.22 531.066 456.287 c 0
 531.066 426.876 512.097 412.184 503.777 407.191 c 2
 328.598 313.889 l 1
 566.45 43.5508 l 1
 521.936 7.69434 l 2
 511.754 -0.225586 499.481 -5.5 486.413 -5.5 c 0
 469.528 -5.5 452.653 1.5459 440.273 15.3545 c 2
 219.008 257.999 l 1
 175.639 235.304 l 1
 175.639 0.916016 l 1
 60 0.916016 l 1
 60 575.467 l 2
 60 653.136 104.809 697.444 156.837 707.851 c 2
 175.639 711.296 l 1
 175.639 365.756 l 1
EndSplineSet
EndChar

StartChar: j
Encoding: 106 106 21
Width: 230
VWidth: -4
Flags: W
HStem: 573.902 114.977<88.1614 177.302>
VStem: 75.1064 115.894<-101.461 471.46 586.788 675.191>
LayerCount: 3
Back
SplineSet
163.301 641.743 m 0
 163.301 615.959 142.291 597.814 116.507 597.814 c 0
 90.7227 597.814 72.5781 619.778 72.5781 641.743 c 0
 72.5781 668.482 94.542 687.582 116.507 687.582 c 0
 142.291 687.582 163.301 667.527 163.301 641.743 c 0
116.507 475.577 m 0
 142.291 475.577 162.346 454.567 162.346 429.738 c 2
 162.346 -59.208 l 2
 162.346 -91.6777 148.976 -106.002 142.291 -113.643 c 2
 24.8281 -220.599 l 1
 23.874 -221.555 l 2
 10.5049 -237.789 -0.954102 -238.744 -7.63965 -238.744 c 0
 -9.5498 -238.744 -13.3701 -238.744 -13.3701 -238.744 c 2
 -21.0088 -236.834 -30.5596 -231.104 -30.5596 -221.555 c 0
 -30.5596 -219.645 -30.5596 -215.823 -27.6943 -211.049 c 1
 49.6592 -129.877 l 1
 51.5693 -127.968 l 2
 65.8936 -106.957 72.5781 -95.4971 72.5781 -65.8936 c 0
 72.5781 -63.0273 72.5781 -61.1182 72.5781 -59.208 c 2
 72.5781 -49.6592 l 1
 72.5781 429.738 l 2
 72.5781 454.567 93.5869 475.577 116.507 475.577 c 0
EndSplineSet
Fore
SplineSet
131.678 573.902 m 0
 98.2373 573.902 75.1064 601.754 75.1064 630.474 c 0
 75.1064 664.376 102.43 688.879 131.678 688.879 c 0
 163.97 688.879 191 663.346 191 630.474 c 0
 191 596.53 163.028 573.902 131.678 573.902 c 0
190.083 426.949 m 2
 190.083 -42.4395 l 2
 190.083 -67.1357 183.463 -85.668 167.268 -104.179 c 2
 166.729 -104.795 l 1
 53.6104 -207.785 l 1
 53.4043 -207.956 l 1
 38.2275 -226.385 24.958 -229.194 12.4971 -229.194 c 2
 5.22266 -229.194 l 1
 3.50293 -228.764 l 2
 -6.5918 -225.351 -13.9004 -221.897 -19.415 -213.38 c 0
 -21.8789 -209.574 -23.9062 -204.327 -23.9062 -198.293 c 0
 -23.9062 -189.543 -20.9004 -183.793 -19.1025 -180.797 c 2
 -18.2812 -179.428 l 1
 57.2021 -100.223 l 1
 58.2031 -99.2188 l 1
 68.6982 -83.8418 75.1064 -74.5186 75.1064 -48.8574 c 2
 75.1064 426.949 l 2
 75.1064 457.48 100.846 485.354 131.678 485.354 c 0
 164.512 485.354 190.083 458.604 190.083 426.949 c 2
EndSplineSet
EndChar

StartChar: comma
Encoding: 44 44 22
Width: 314
VWidth: 14
Flags: W
HStem: -143.449 271.746<85.3154 126.568>
VStem: 62.6611 126.896<16.6702 111.579> 113.333 76.224<-51.3056 -4.20605 -4.20605 2.09277>
LayerCount: 3
Fore
SplineSet
62.5303 -132.744 m 2xa0
 57.4639 -125.537 l 1
 61.5742 -117.745 l 2
 76.2422 -89.9375 90.918 -62.1953 105.554 -34.3701 c 0
 108.151 -29.4326 113.333 -17.998 113.333 -7.0498 c 0xa0
 113.333 -5.47559 113.349 -5.63867 113.182 -4.20605 c 2
 112.441 2.09277 l 1
 106.559 3.93262 l 2
 81.6797 12.2227 62.6611 35.8105 62.6611 64.3906 c 0xc0
 62.6611 100.101 92 128.297 126.568 128.297 c 0
 162.077 128.297 189.557 99.3545 189.557 64.3906 c 2
 189.557 13.9678 l 2
 189.557 2.8877 186.858 -23.3906 175.188 -41.7314 c 2
 112.649 -130.038 l 2
 106.467 -138.767 96.25 -143.447 85.3154 -143.449 c 0
 73.3506 -143.451 66.1934 -137.957 62.5303 -132.744 c 2xa0
EndSplineSet
EndChar

StartChar: y
Encoding: 121 121 23
Width: 545
VWidth: -4
Flags: W
LayerCount: 3
Back
SplineSet
103.137 -233.015 m 6
 62.0732 -211.049 l 1
 201.5 78.3086 l 1
 186.5 86 172.552 97.5025 167.121 108.867 c 2
 22.9189 410.64 l 2
 -3.13934 465.172 79.0674 499.317 103.137 448.838 c 2
 240.654 160.436 l 1
 380.08 448.838 l 2
 406.029 502.514 483.828 461.893 459.343 410.64 c 2
 162.346 -211.049 l 6
 151.848 -233.024 125.674 -242.565 103.137 -233.015 c 6
EndSplineSet
Fore
SplineSet
112.806 -222.272 m 2
 60.625 -194.393 l 1
 201.936 83.9111 l 1
 184.684 94.2207 175.067 105.504 171.188 112.703 c 2
 29.0098 402.406 l 2
 24.4873 411.87 22.7598 420.645 22.7598 428.481 c 0
 22.7598 462.421 53.2354 483.364 81.999 483.364 c 0
 94.5156 483.364 119.019 478.726 132.01 451.482 c 2
 265.491 201.688 l 1
 400.712 451.553 l 2
 413.925 478.881 437.454 484.014 449.801 484.014 c 0
 479.344 484.014 508.685 460.961 508.685 427.519 c 0
 508.685 419.976 507.11 411.507 502.763 402.407 c 2
 195.31 -194.414 l 2
 184.11 -215.214 160.602 -227.241 136.409 -227.241 c 0
 128.707 -227.241 120.277 -225.438 112.806 -222.272 c 2
EndSplineSet
EndChar

StartChar: c
Encoding: 99 99 24
Width: 505
VWidth: -4
Flags: W
HStem: 0.918945 112.226<157.808 397.983> 368.111 114.061<157.904 450.557>
VStem: 40.7012 116.069<113.578 147.332 147.332 365.064>
LayerCount: 3
Back
SplineSet
177.625 472.263 m 2
 358.115 472.263 l 2
 414.46 472.263 433.559 417.829 440.243 383.449 c 1
 160.436 383.449 l 2
 139.426 383.449 123.192 368.17 123.192 348.115 c 2
 123.192 124.147 l 2
 123.192 104.093 139.426 87.8584 160.436 87.8584 c 2
 440.243 87.8584 l 1
 440.243 56 349.987 -1.2334 228 0 c 6
 177.625 0.954102 l 2
 84.0518 2.72656 34.3789 58.2529 34.3789 138.471 c 2
 34.3789 333.791 l 2
 34.3789 414.01 84.0381 472.263 177.625 472.263 c 2
EndSplineSet
Fore
SplineSet
394.688 482.172 m 2
 469.07 482.172 484.689 400.574 487.667 385.259 c 2
 491 368.111 l 1
 181.099 368.111 l 2
 173.592 368.111 156.77 364.207 156.77 348.591 c 2
 156.77 133.582 l 2
 156.77 122.34 166.751 113.145 181.099 113.145 c 2
 487.931 113.145 l 1
 487.931 98.7441 l 2
 487.391 90.8613 486.474 87.3242 483.105 80.9834 c 0
 461.602 40.4893 372.171 -0.0185547 259.244 -0.0185547 c 0
 257.834 -0.0185547 256.181 -0.0117188 254.763 0.00195312 c 2
 199.59 0.918945 l 2
 92.9062 2.80176 40.7012 63.9512 40.7012 147.332 c 2
 40.7012 334.84 l 2
 40.7012 418.059 92.5781 482.172 199.901 482.172 c 2
 394.688 482.172 l 2
EndSplineSet
EndChar

StartChar: w
Encoding: 119 119 25
Width: 718
VWidth: -4
Flags: W
HStem: 0.916016 21G<190.054 287.447 428.952 526.303>
LayerCount: 3
Back
SplineSet
391.812 338.062 m 2
 409.003 338.062 417.528 329.391 420.461 320.871 c 2
 457.424 213.5 l 2
 464.109 195.354 480.355 115.201 480.355 115.201 c 17
 487.05 115.201 l 9
 487.05 115.201 501.771 192.297 510.924 215 c 2
 608.196 456.928 l 2
 614.421 472.407 631.115 481.758 647.351 482.712 c 2
 654.036 482.712 660.721 481.758 666.45 477.938 c 0
 682.685 470.299 692.234 454.062 692.234 437.829 c 0
 692.234 431.144 691.278 425.414 688.415 419.685 c 2
 509.329 0.954102 l 1
 451.075 0.954102 l 1
 355.189 255.933 l 1
 258.348 0.954102 l 1
 200.094 0.954102 l 1
 21.0088 419.685 l 2
 18.1455 425.414 17.1895 431.144 17.1895 437.829 c 0
 17.1895 454.062 26.7393 470.299 42.9736 477.938 c 0
 48.7031 481.758 55.3877 482.712 62.0732 482.712 c 2
 78.3086 481.758 95.0029 472.407 101.227 456.928 c 2
 198.5 215 l 2
 207.653 192.297 222.374 115.201 222.374 115.201 c 17
 229.068 115.201 l 9
 229.068 115.201 245.314 195.354 252 213.5 c 2
 288.963 320.871 l 2
 291.896 329.391 300.421 338.062 317.611 338.062 c 2
 391.812 338.062 l 2
EndSplineSet
Fore
SplineSet
439.863 327.124 m 2
 467.581 224.192 l 2
 471.026 215.409 475.575 177.792 479.893 159.417 c 1
 484.56 178.642 490.243 216.314 493.597 226.179 c 2
 582.562 458.424 l 2
 590.866 480.101 612.822 491.479 633.09 492.191 c 0
 638.94 492.396 642.474 491.979 648.083 490.469 c 0
 651.656 489.508 655.188 487.705 658.896 485.808 c 0
 678.99 475.53 691 455.58 691 434.716 c 0
 691 427.539 690.224 419.712 685.993 411.247 c 2
 526.303 0.916016 l 1
 436.043 0.916016 l 1
 358.595 219.363 l 1
 280.276 0.916016 l 1
 190.054 0.916016 l 1
 30.3633 411.247 l 2
 26.1318 419.712 25.3564 427.539 25.3564 434.716 c 0
 25.3564 455.885 36.7178 475.776 57.4502 485.727 c 0
 64.4082 489.064 63.3613 489.147 68.2734 490.469 c 0
 73.4775 491.869 78.8281 492.405 83.2666 492.191 c 0
 103.48 491.217 126.328 480.381 133.794 458.423 c 2
 212.76 226.179 l 2
 216.358 215.595 221.81 179.181 226.462 159.561 c 1
 230.863 177.926 235.554 215.978 238.776 224.192 c 2
 276.494 327.124 l 2
 280.247 337.365 287.882 349.04 310.227 352.579 c 0
 314.184 353.205 317.753 353.34 320.264 353.34 c 2
 396.093 353.34 l 1
 396.093 353.34 403.835 352.942 406.13 352.579 c 0
 413.578 351.399 434.461 347.184 439.863 327.124 c 2
EndSplineSet
EndChar

StartChar: z
Encoding: 122 122 26
Width: 495
VWidth: -4
Flags: W
HStem: -0.583008 105.06<187.502 441.469> 374.378 101.976<62.5375 277.961>
LayerCount: 3
Back
SplineSet
398.892 448.838 m 2
 398.892 407.811 l 2
 398.892 393 381.89 366.553 364.514 345.701 c 2
 151.842 84.0381 l 1
 418.892 84.0381 l 1
 416.982 42.9736 404.567 -4.77539 343.449 -4.77539 c 2
 59.209 -4.77539 l 2
 55.6475 -4.70864 33.4238 4.26074 33.4238 20.0537 c 2
 33.4238 64.0381 l 2
 33.4238 74.6699 48.4697 101.836 66.8477 124.147 c 2
 282.387 385.811 l 1
 33.4785 385.811 l 1
 38.2529 444.063 64.0381 475.577 133.751 475.577 c 2
 374.063 475.577 l 2
 387.712 475.577 398.8 463.513 398.892 448.838 c 2
EndSplineSet
Fore
SplineSet
435.114 404.898 m 2
 435.114 381.352 403.095 351.748 393.83 341.122 c 2
 187.502 104.477 l 1
 465 104.477 l 1
 464.3 89.4072 l 2
 460.348 4.45215 412.214 -0.583984 377.49 -0.583984 c 2
 83.6846 -0.583008 l 1
 79.9697 0.236328 79.5557 -0.454102 74.2939 1.60352 c 1
 75.3926 1.1748 72.6611 2.25684 71.4229 2.82324 c 0
 68.459 4.17969 65.1943 5.95703 61.8701 8.29785 c 0
 46.6777 18.9932 44.665 31.7812 44.665 37.6514 c 2
 44.665 79.877 l 2
 45.5068 88.6445 44.9258 84.3984 45.6035 87.2949 c 0
 49.5518 104.153 59.3662 131.353 72.0371 146.736 c 2
 277.961 374.378 l 1
 35.4902 374.378 l 1
 36.7656 389.955 l 2
 42.5713 460.793 80.4131 476.354 147.38 476.354 c 2
 396.879 476.354 l 2
 418.905 476.354 435.114 457.518 435.114 436.329 c 2
 435.114 404.898 l 2
EndSplineSet
EndChar

StartChar: x
Encoding: 120 120 27
Width: 529
VWidth: -4
Flags: W
LayerCount: 3
Back
SplineSet
444.118 407.594 m 2
 295.143 235.698 l 1
 470.857 32.2891 l 1
 438.389 1.72949 l 2
 431.063 -5.16545 421.538 -8.52201 411.606 -8.52201 c 0
 399.335 -8.52201 386.444 -3.39877 376.314 6.50488 c 2
 235.933 168.85 l 1
 95.5518 6.50488 l 2
 85.6179 -4.98331 73.921 -9.74655 62.6164 -9.74655 c 0
 38.7014 -9.74655 16.5418 11.5706 16.5418 35.6321 c 0
 16.5418 44.9708 19.8799 54.723 27.749 63.8027 c 2
 176.725 235.698 l 1
 27.749 407.594 l 2
 19.8825 416.671 16.5386 426.574 16.5386 436.12 c 0
 16.5386 460.488 38.3311 482.524 62.3084 482.524 c 0
 73.5863 482.524 85.3476 477.649 95.5518 465.848 c 2
 235.933 303.502 l 1
 376.314 465.848 l 2
 386.509 477.638 398.704 482.557 410.471 482.557 c 0
 434.375 482.557 456.51 462.26 456.51 438.038 c 0
 456.51 428.172 452.838 417.655 444.118 407.594 c 2
EndSplineSet
Fore
SplineSet
343.181 240.654 m 1
 519.263 44.3691 l 1
 478.046 5.57422 l 2
 468.125 -3.76172 455.207 -8.18164 442.465 -8.18164 c 0
 426.681 -8.18164 410.424 -1.25684 397.389 10.7871 c 2
 258.192 154.48 l 1
 121.145 11.2256 l 2
 109.236 -2.5459 93.5625 -9.35645 78.6338 -9.35645 c 0
 47.2725 -9.35645 20.0029 18.082 20.0029 48.6064 c 0
 20.0029 61.0273 24.707 74.0361 34.2803 85.082 c 2
 173.193 240.67 l 1
 34.2803 396.26 l 2
 24.6514 407.37 20 420.541 20 433.075 c 0
 20 464.966 47.9873 492.023 78.3389 492.023 c 0
 93.3828 492.023 109.066 485.002 121.145 471.033 c 2
 258.192 327.777 l 1
 396.928 471.033 l 2
 409.91 485.164 426.047 492.055 441.374 492.055 c 0
 470.836 492.055 499.972 467.163 499.972 434.917 c 0
 499.972 421.829 494.857 408.144 484.558 396.259 c 2
 343.181 240.654 l 1
EndSplineSet
EndChar

StartChar: exclam
Encoding: 33 33 28
Width: 348
VWidth: 14
Flags: W
HStem: -3.91797 115.895<78.5888 169.143>
VStem: 65.4648 116.809<9.20891 98.6731 187.127 668.532>
LayerCount: 3
Fore
SplineSet
122.953 -3.91797 m 0
 91.1924 -3.91797 65.4648 21.8184 65.4648 53.5703 c 0
 65.4648 85.9609 91.1475 111.977 122.953 111.977 c 0
 154.165 111.977 182.274 88.6143 182.274 53.5703 c 0
 182.274 21.6963 155.977 -3.91797 122.953 -3.91797 c 0
181.357 625.077 m 2
 181.357 187.127 l 1
 66.3818 187.127 l 1
 66.3818 625.077 l 2
 66.3818 656.782 91.8164 682.566 122.953 682.566 c 0
 154.555 682.566 181.357 657.277 181.357 625.077 c 2
EndSplineSet
EndChar

StartChar: question
Encoding: 63 63 29
Width: 504
VWidth: 0
Flags: W
HStem: 0 122.655<146.083 239.087> 278.46 118.235<253.045 327.814> 530.4 134.81<198.753 327.814>
VStem: 131.495 122.655<14.2156 107.592 187.85 278.46> 330.395 120.445<399.104 529.989>
LayerCount: 3
Fore
SplineSet
254.15 60.7754 m 0
 254.15 25.415 226.525 0 192.27 0 c 0
 158.015 0 131.495 25.415 131.495 60.7754 c 0
 131.495 95.0303 158.015 122.655 192.27 122.655 c 0
 226.525 122.655 254.15 95.0303 254.15 60.7754 c 0
301.665 665.21 m 0
 398.905 665.21 450.84 588.965 450.84 507.195 c 2
 450.84 421.005 l 2
 450.84 341.445 398.905 278.46 301.665 278.46 c 2
 301.665 278.46 254.15 278.46 253.045 278.46 c 1
 253.045 187.85 l 1
 131.495 187.85 l 1
 131.495 278.46 l 2
 131.495 351.39 198.9 396.695 254.15 396.695 c 2
 317.135 396.695 l 2
 325.975 396.695 330.395 403.325 330.395 407.745 c 2
 330.395 520.455 l 2
 330.395 527.085 323.765 530.4 319.345 530.4 c 2
 45.3047 530.4 l 1
 45.3047 584.545 l 0
 44.752 585.65 44.4766 586.755 44.4766 587.826 c 0
 44.4766 591.037 46.9619 593.938 51.9346 595.595 c 2
 51.9346 595.595 235.365 665.21 301.665 665.21 c 0
EndSplineSet
EndChar

StartChar: period
Encoding: 46 46 30
Width: 300
VWidth: 14
Flags: W
HStem: 1.79883 114.978<72.6148 162.402>
VStem: 59.8242 115.895<14.7993 102.871>
LayerCount: 3
Fore
SplineSet
116.396 1.79883 m 0
 82.1699 1.79883 59.8242 30.085 59.8242 58.3711 c 0
 59.8242 91.8887 86.3838 116.777 116.396 116.777 c 0
 147.898 116.777 175.719 91.626 175.719 58.3711 c 0
 175.719 24.7676 147.008 1.79883 116.396 1.79883 c 0
EndSplineSet
EndChar

StartChar: quotesingle
Encoding: 39 39 33
Width: 221
VWidth: 14
Flags: W
HStem: 397.288 298.546<68.6571 122.76 122.76 136.91>
VStem: 42.4883 117.836<565.787 682.439> 62.8789 74.0311<403.937 456.117>
LayerCount: 3
Fore
SplineSet
42.6973 636.963 m 2xa0
 42.6016 637.956 42.4883 640.325 42.4883 641.309 c 0xc0
 42.4883 669.065 69.001 695.834 101.953 695.834 c 0
 132.685 695.834 160.324 672.139 160.324 637.646 c 2
 136.91 397.288 l 1
 122.76 398.468 l 1
 101.355 400.276 l 2
 81.0654 400.276 64.3193 415.051 62.8789 435.21 c 2
 60.1436 456.117 l 1
 42.6973 636.963 l 2xa0
EndSplineSet
EndChar

StartChar: M
Encoding: 77 77 35
Width: 711
VWidth: -4
Flags: W
HStem: 0.916016 21G<63.2725 178.429 554.355 669.512>
VStem: 63.2725 115.157<0.916016 473.376> 554.355 115.157<0.916016 473.016>
LayerCount: 3
Back
SplineSet
94.542 698.086 m 0
 119.372 698.086 127.131 684.295 144.201 658.933 c 2
 336.387 373.395 l 1
 526.615 658.933 l 2
 547.624 682.808 551.444 698.086 577.229 698.086 c 0
 602.059 698.086 621.158 678.032 621.158 654.158 c 2
 621.158 0.954102 l 1
 532.346 0.954102 l 1
 532.346 524.281 l 1
 337.341 253.068 l 2
 336.553 251.972 337.341 252.113 336.387 252.113 c 0
 336.387 252.113 335.431 252.113 335.431 253.068 c 2
 138.471 524.281 l 1
 138.471 0.954102 l 5
 49.6592 0.954102 l 5
 49.6592 654.158 l 2
 49.6592 678.032 68.7578 698.086 94.542 698.086 c 0
EndSplineSet
Fore
SplineSet
181.707 655.017 m 2
 367.337 398.739 l 1
 551.611 655.764 l 1
 552.298 656.488 l 2
 570.571 675.843 579.913 698.963 612.939 698.963 c 0
 644.808 698.963 669.512 673.065 669.512 642.392 c 2
 669.512 0.916016 l 1
 554.355 0.916016 l 1
 554.355 473.016 l 1
 380.971 248.939 l 2
 379.369 246.868 370.443 242.023 367.812 242.023 c 0
 367.729 242.023 367.445 242.028 367.364 242.028 c 1
 367.364 242.028 350.918 256.429 350.918 257.346 c 1
 353.876 248.884 l 1
 178.429 473.376 l 1
 178.429 0.916016 l 1
 63.2725 0.916016 l 1
 63.2725 642.392 l 2
 63.2725 673.126 88.2822 698.963 120.761 698.963 c 0
 151.935 698.963 161.871 682.513 181.707 655.017 c 2
EndSplineSet
EndChar

StartChar: N
Encoding: 78 78 36
Width: 732
VWidth: -4
Flags: W
HStem: 0.916016 21G<74.2725 189.494 586.588 617.734>
VStem: 74.2725 115.222<0.916016 475.697> 543.796 116.14<223.423 693.651>
LayerCount: 3
Back
SplineSet
94.542 698.086 m 0
 119.372 698.086 125.102 682.808 144.201 658.933 c 2
 509.957 172.85 l 1
 509.957 667.527 l 2
 510.911 683.762 516.19 698.086 542.931 698.086 c 6
 599.725 698.086 l 1
 599.725 45.8389 l 2
 599.725 20.0537 578.715 0.954102 554.84 0.954102 c 0
 530.012 0.954102 524.281 17.1895 505.182 40.1094 c 2
 138.471 525.236 l 1
 138.471 0.954102 l 1
 49.6592 0.954102 l 1
 49.6592 654.158 l 2
 49.6592 678.032 68.7578 698.086 94.542 698.086 c 0
EndSplineSet
Fore
SplineSet
192.172 655.802 m 2
 543.796 223.423 l 1
 543.81 655.648 l 1
 543.81 655.648 544.214 660.604 544.457 662.275 c 0
 546.571 676.667 554.453 694.727 581.248 698.337 c 0
 582.573 698.519 585.88 698.963 591.014 698.963 c 2
 659.936 698.963 l 1
 659.936 58.4053 l 2
 659.936 25.4648 633.021 0.916016 602.446 0.916016 c 0
 570.729 0.916016 560.04 24.1045 542.22 43.9541 c 2
 189.494 475.697 l 1
 189.494 0.916016 l 1
 74.2725 0.916016 l 1
 74.2725 642.392 l 2
 74.2725 673.126 99.2822 698.963 131.761 698.963 c 0
 164.012 698.963 174.827 675.863 192.172 655.802 c 2
EndSplineSet
EndChar

StartChar: H
Encoding: 72 72 37
Width: 638
VWidth: -4
Flags: W
HStem: 0.916016 21G<68.6328 184.126 470.449 585.944> 285.117 114.061<184.126 470.449>
VStem: 68.6328 115.493<0.916016 285.117 399.178 685.861> 470.449 115.495<0.916016 285.117 399.178 685.861>
LayerCount: 3
Back
SplineSet
110.542 698.086 m 0
 135.372 698.086 154.471 678.032 154.471 654.158 c 2
 154.471 385.811 l 1
 455.712 385.811 l 5
 455.712 654.158 l 6
 455.712 678.032 474.812 698.086 499.641 698.086 c 6
 544.525 698.086 l 5
 544.525 0.954102 l 5
 455.712 0.954102 l 5
 455.712 296.997 l 5
 154.471 296.997 l 1
 154.471 0.954102 l 1
 65.6592 0.954102 l 1
 65.6592 654.158 l 2
 65.6592 678.032 84.7578 698.086 110.542 698.086 c 0
EndSplineSet
Fore
SplineSet
184.126 642.392 m 2
 184.126 399.178 l 1
 470.449 399.178 l 1
 470.449 642.392 l 2
 470.449 673.067 496.602 698.963 528.455 698.963 c 2
 585.944 698.963 l 1
 585.944 0.916016 l 1
 470.449 0.916016 l 1
 470.449 285.117 l 1
 184.126 285.117 l 1
 184.126 0.916016 l 1
 68.6328 0.916016 l 1
 68.6328 642.392 l 2
 68.6328 673.126 93.6426 698.963 126.12 698.963 c 0
 157.988 698.963 184.126 673.065 184.126 642.392 c 2
EndSplineSet
EndChar

StartChar: O
Encoding: 79 79 38
Width: 665
VWidth: -4
Flags: W
HStem: 0.916016 114.062<186.399 477.195> 584.903 114.06<186.394 477.2>
VStem: 68.7715 116.374<114.993 584.275> 479.388 116.373<118.53 584.32>
LayerCount: 3
Back
SplineSet
183.355 698.086 m 6
 392.494 698.086 l 6
 469.848 698.086 532.876 636.013 532.876 558.66 c 6
 532.876 139.426 l 6
 532.876 63.0273 469.848 0.954102 392.494 0.954102 c 6
 183.355 0.954102 l 6
 106.002 0.954102 43.9287 63.0273 43.9287 139.426 c 6
 43.9287 558.66 l 6
 43.9287 636.013 106.002 698.086 183.355 698.086 c 6
406.818 609.274 m 6
 169.985 609.274 l 6
 148.976 609.274 133.696 593.039 133.696 572.985 c 6
 133.696 126.058 l 6
 133.696 106.002 148.976 89.7686 169.985 89.7686 c 6
 406.818 89.7686 l 6
 427.829 89.7686 443.108 106.002 443.108 126.058 c 6
 443.108 572.985 l 6
 443.108 593.039 427.829 609.274 406.818 609.274 c 6
EndSplineSet
Fore
SplineSet
441.884 698.963 m 2
 528.682 698.963 595.761 632.993 595.761 550.714 c 2
 595.761 148.249 l 2
 595.761 66.7891 528.664 0.916016 441.884 0.916016 c 2
 221.644 0.916016 l 2
 134.902 0.916016 68.7715 66.9355 68.7715 148.249 c 2
 68.7715 550.714 l 2
 68.7715 632.85 134.886 698.963 221.644 698.963 c 2
 441.884 698.963 l 2
456.968 584.903 m 2
 207.563 584.903 l 2
 189.629 584.903 185.145 570.598 185.145 564.466 c 2
 185.145 135.415 l 2
 185.145 123.592 193.983 114.978 207.563 114.978 c 2
 456.968 114.978 l 2
 474.903 114.978 479.388 129.284 479.388 135.415 c 2
 479.388 564.466 l 2
 479.388 576.288 470.55 584.903 456.968 584.903 c 2
EndSplineSet
EndChar

StartChar: P
Encoding: 80 80 39
Width: 559
VWidth: -4
Flags: W
HStem: 0.916016 21G<74.2725 190.178> 284.2 114.978<190.178 409.224> 583.069 115.894<190.178 410.743>
VStem: 74.2725 115.905<0.916016 284.2 399.178 583.069> 411.097 114.99<400.189 418.698 418.698 580.175>
LayerCount: 3
Back
SplineSet
138.471 0.954102 m 1
 49.6592 0.954102 l 1
 49.6592 698.086 l 1
 336.151 698.086 l 2
 409.685 698.086 460.299 647.474 460.299 578.715 c 2
 460.299 409.685 l 2
 460.299 335.196 393.449 296.042 342.837 296.042 c 2
 138.471 296.042 l 1
 138.471 0.954102 l 1
335.196 385.811 m 2
 355.25 385.811 372.44 401.089 372.44 421.144 c 2
 372.44 572.03 l 2
 372.44 600.68 343.791 607.364 336.151 607.364 c 2
 138.471 607.364 l 1
 138.471 385.811 l 1
 335.196 385.811 l 2
EndSplineSet
Fore
SplineSet
190.178 0.916016 m 1
 74.2725 0.916016 l 1
 74.2725 698.963 l 1
 388.038 698.963 l 2
 471.559 698.963 526.087 643.435 526.087 569.966 c 2
 526.087 407.697 l 2
 526.087 326.391 453.892 284.2 395.279 284.2 c 2
 190.178 284.2 l 1
 190.178 0.916016 l 1
387.004 399.178 m 2
 400.608 399.178 411.097 408.156 411.097 418.698 c 2
 411.097 563.549 l 2
 411.097 578.638 392.606 583.069 388.038 583.069 c 2
 190.178 583.069 l 1
 190.178 399.178 l 1
 387.004 399.178 l 2
EndSplineSet
EndChar

StartChar: C
Encoding: 67 67 40
Width: 525
VWidth: 14
Flags: W
HStem: 1.83398 114.06<166.422 473.68> 585.819 114.061<166.422 463.544>
VStem: 47.7715 116.844<116.249 150.082 150.082 585.464>
LayerCount: 3
Back
SplineSet
183.355 699.042 m 2
 381.035 699.042 l 2
 421.144 698.086 448.838 655.112 454.567 610.229 c 1
 169.985 610.229 l 2
 148.976 610.229 133.696 593.994 133.696 573.94 c 2
 133.696 126.058 l 2
 133.696 106.957 148.976 90.7227 169.985 90.7227 c 2
 466.982 90.7227 l 1
 458.389 45.8389 430.692 1.91016 392.494 1.91016 c 2
 183.355 1.91016 l 2
 106.002 1.91016 43.9287 63.0273 43.9287 141.336 c 2
 43.9287 559.615 l 2
 43.9287 637.923 106.002 699.042 183.355 699.042 c 2
454.567 610.229 m 1
EndSplineSet
Fore
SplineSet
414.766 699.879 m 2
 464.612 698.69 493.771 646.688 499.469 602.043 c 2
 501.539 585.819 l 1
 187.702 585.819 l 2
 173.718 585.819 164.615 577.204 164.615 565.383 c 2
 164.615 135.415 l 2
 164.615 124.885 173.608 115.894 187.702 115.894 c 2
 514.521 115.894 l 1
 511.246 98.7861 l 2
 503.254 57.0449 474.582 1.83398 425.595 1.83398 c 2
 202.201 1.83398 l 2
 114.013 1.83398 47.7715 67.0732 47.7715 150.082 c 2
 47.7715 551.631 l 2
 47.7715 634.64 114.014 699.88 202.201 699.88 c 2
 414.766 699.879 l 2
EndSplineSet
EndChar

StartChar: Q
Encoding: 81 81 41
Width: 665
VWidth: -4
Flags: W
HStem: 0.916016 114.062<186.399 374.81> 584.903 114.06<186.394 477.2>
VStem: 68.7715 116.374<114.993 148.249 148.249 584.275> 479.388 116.373<189.302 584.32>
LayerCount: 3
Back
SplineSet
406.818 609.274 m 2
 169.985 609.274 l 2
 148.976 609.274 133.696 593.039 133.696 572.985 c 2
 133.696 126.058 l 2
 133.696 106.002 148.976 89.7686 169.985 89.7686 c 2
 380.263 89.7686 l 1
 292 146 l 1
 340.658 220.297 l 1
 443.108 154.795 l 1
 443.108 572.985 l 2
 443.108 593.039 427.829 609.274 406.818 609.274 c 2
183.355 698.086 m 2
 392.494 698.086 l 2
 469.848 698.086 532.876 636.013 532.876 558.66 c 2
 532.876 139.426 l 2
 532.876 126.071 530.95 113.153 527.358 100.929 c 1
 629.47 35.6426 l 1
 605.401 -1.10645 l 2
 591.275 -22.6762 564.196 -27.4128 544.064 -14.5869 c 2
 476.431 28.5013 l 1
 452.997 11.2046 423.928 0.954103 392.494 0.954102 c 2
 183.355 0.954102 l 2
 106.002 0.954102 43.9287 63.0273 43.9287 139.426 c 2
 43.9287 558.66 l 2
 43.9287 636.013 106.002 698.086 183.355 698.086 c 2
EndSplineSet
Fore
SplineSet
456.968 584.903 m 2
 207.563 584.903 l 2
 189.629 584.903 185.145 570.598 185.145 564.466 c 2
 185.145 135.415 l 2
 185.145 123.592 193.983 114.978 207.563 114.978 c 2
 374.81 114.978 l 1
 314.077 150.25 l 1
 382.641 245.689 l 1
 479.388 189.302 l 1
 479.388 564.466 l 2
 479.388 576.288 470.55 584.903 456.968 584.903 c 2
441.884 698.963 m 2
 528.682 698.963 595.761 632.993 595.761 550.714 c 2
 595.761 148.249 l 2
 595.761 137.84 594.659 127.659 592.564 117.834 c 1
 694.114 52.9072 l 1
 663.031 5.44922 l 2
 651.827 -11.6602 633.503 -20.7812 615.193 -20.7812 c 0
 604.521 -20.7812 593.795 -17.7559 584.364 -11.748 c 2
 527.47 24.499 l 1
 504.148 9.58984 474.494 0.916016 441.884 0.916016 c 2
 221.644 0.916016 l 2
 134.902 0.916016 68.7715 66.9355 68.7715 148.249 c 2
 68.7715 550.714 l 2
 68.7715 632.85 134.886 698.963 221.644 698.963 c 2
 441.884 698.963 l 2
EndSplineSet
EndChar

StartChar: R
Encoding: 82 82 42
Width: 579
VWidth: -4
Flags: W
HStem: 0.916016 21G<74.2725 190.178> 284.2 114.978<190.178 331.684> 583.069 115.894<190.178 408.085>
VStem: 74.2725 115.905<0.916016 284.2 399.178 583.069> 411.097 116.824<399.822 418.698 418.698 580.236>
LayerCount: 3
Back
SplineSet
49.6592 698.086 m 1
 336.151 698.086 l 2
 414.46 698.086 462.209 648.429 462.209 578.715 c 2
 462.209 409.685 l 2
 462.209 386.766 454.567 342.837 404.909 314.188 c 2
 386.766 303.682 l 1
 505.182 17.1895 l 1
 466.028 -3.82031 l 2
 459.343 -5.72949 454.567 -7.63965 448.838 -7.63965 c 0
 431.648 -7.63965 415.414 3.82031 408.729 20.0537 c 2
 294.132 296.042 l 1
 138.471 296.042 l 1
 138.471 0.954102 l 1
 49.6592 0.954102 l 1
 49.6592 698.086 l 1
336.151 607.364 m 2
 138.471 607.364 l 1
 138.471 385.811 l 1
 336.151 385.811 l 2
 355.25 385.811 372.44 401.089 372.44 421.144 c 2
 372.44 572.03 l 2
 372.44 600.68 343.791 607.364 336.151 607.364 c 2
EndSplineSet
Fore
SplineSet
388.038 698.963 m 2
 476.492 698.963 527.921 643.91 527.921 569.966 c 2
 527.921 407.697 l 2
 527.921 381.578 518.822 334.19 465.719 303.553 c 2
 459.218 299.788 l 1
 573.057 24.3691 l 1
 522.63 -2.68848 l 1
 521.142 -3.11328 l 2
 515.169 -4.81934 508.867 -7.33398 500.685 -7.33398 c 0
 477.713 -7.33398 457.482 7.24219 448.872 28.1484 c 2
 331.684 284.2 l 1
 190.178 284.2 l 1
 190.178 0.916016 l 1
 74.2725 0.916016 l 1
 74.2725 698.963 l 1
 388.038 698.963 l 2
388.038 583.069 m 2
 190.178 583.069 l 1
 190.178 399.178 l 1
 388.038 399.178 l 2
 400.21 399.178 411.097 408.085 411.097 418.698 c 2
 411.097 563.549 l 2
 411.097 578.638 392.606 583.069 388.038 583.069 c 2
EndSplineSet
EndChar

StartChar: T
Encoding: 84 84 43
Width: 602
VWidth: -4
Flags: W
HStem: 0.916016 21G<239.996 362.241> 584.903 114.06<24.938 239.996 362.241 576.748>
VStem: 239.996 122.245<0.916016 584.903>
LayerCount: 3
Back
SplineSet
73.0732 698.086 m 2
 494.217 698.086 l 2
 519.047 698.086 538.146 678.032 538.146 654.158 c 2
 538.146 609.274 l 1
 328.053 609.274 l 1
 328.053 0.954102 l 1
 239.239 0.954102 l 1
 239.239 609.274 l 1
 28.1895 609.274 l 1
 28.1895 654.158 l 2
 28.1895 678.032 48.2441 698.086 73.0732 698.086 c 2
EndSplineSet
Fore
SplineSet
532.048 698.963 m 2
 563.917 698.963 588.621 673.065 588.621 642.392 c 2
 588.621 584.903 l 1
 362.241 584.903 l 1
 362.241 0.916016 l 1
 239.996 0.916016 l 1
 239.996 584.903 l 1
 12.6621 584.903 l 1
 12.6621 642.392 l 2
 12.6621 673.532 38.4473 698.963 70.1504 698.963 c 2
 532.048 698.963 l 2
EndSplineSet
EndChar

StartChar: V
Encoding: 86 86 44
Width: 606
VWidth: -4
Flags: W
HStem: 0.916016 21G<229.236 376.364>
LayerCount: 3
Back
SplineSet
526.229 701.906 m 2
 572.065 683.762 l 1
 346.691 0.954102 l 1
 240.689 0.954102 l 1
 27.7295 643.653 l 2
 6.1582 708.755 98.5 733.5 119.407 674.212 c 2
 294.168 147.066 l 1
 469.884 674.212 l 2
 477.316 696.507 502.161 708.498 526.229 701.906 c 2
EndSplineSet
Fore
SplineSet
545.545 701.91 m 1
 602.915 679.2 l 1
 369.48 0.916016 l 1
 236.134 0.916016 l 1
 19.9512 627.777 l 2
 17.377 635.545 16.1074 643.142 16.1074 650.401 c 0
 16.1074 685.148 44.8115 708.314 77.0098 708.314 c 0
 111.931 708.314 129.614 682.971 135.602 666.304 c 2
 295.932 220 l 1
 303.34 161.231 l 1
 310.146 220 l 1
 471.953 666.197 l 2
 480.631 690.125 504.113 704.36 528.191 704.36 c 0
 533.682 704.36 539.266 703.629 544.783 702.118 c 2
 545.545 701.91 l 1
EndSplineSet
EndChar

StartChar: A
Encoding: 65 65 45
Width: 572
VWidth: 14
Flags: W
HStem: 153.52 114.976<206.147 371.868>
LayerCount: 3
Back
SplineSet
280.764 702.861 m 6
 339.017 702.861 l 5
 551.976 62.0732 l 5
 551.976 57.2979 552.931 52.5244 552.931 47.749 c 4
 552.931 20.0537 538.606 0.954102 502.316 0 c 4
 501.362 0 500.407 -0.954102 500.407 -0.954102 c 5
 483.217 -0.954102 466.982 10.5049 460.299 29.6035 c 6
 415.414 166.166 l 5
 156.616 166.166 l 5
 110.776 29.6035 l 6
 105.047 10.5049 87.8584 0 70.668 0 c 4
 68.7578 0 l 4
 42.9736 0 19.0986 18.1455 19.0986 46.7939 c 4
 19.0986 51.5693 19.0986 56.3447 20.0537 61.1182 c 6
 213.914 643.653 l 6
 230.148 688.537 254.022 702.861 280.764 702.861 c 6
385.811 255.933 m 5
 286.492 555.796 l 5
 186.22 255.933 l 5
 385.811 255.933 l 5
EndSplineSet
Fore
SplineSet
283.466 697.547 m 6
 355.922 697.547 l 5
 573.097 70.3203 l 5
 573.097 67.9902 l 6
 573.097 63.8652 574.014 59.7393 574.014 54.2393 c 4
 574.014 22.3008 555.888 -4.84668 511.212 -5.99707 c 4
 510.297 -6.02148 523.591 7.48438 523.591 7.48438 c 5
 509.191 -6.91602 l 5
 486.165 -6.91602 465.276 8.68555 456.888 32.1924 c 6
 413.314 153.52 l 5
 164.559 153.52 l 5
 120.153 32.459 l 6
 112.608 7.5957 90.0352 -6 67.8408 -6 c 6
 66.0078 -6 l 6
 33.2129 -6 3.93457 17.7295 3.93457 53.3223 c 4
 3.93457 63.2686 4.48438 66.665 5.13184 69.8994 c 6
 5.30664 70.7734 l 5
 198.482 631.029 l 6
 218.287 681.145 249.5 697.547 283.466 697.547 c 6
371.868 268.495 m 5
 289.403 496.362 l 5
 206.147 268.495 l 5
 371.868 268.495 l 5
EndSplineSet
EndChar

StartChar: G
Encoding: 71 71 46
Width: 593
VWidth: -4
Flags: W
HStem: -0.000976562 114.979<174.989 444.243> 275.518 99.858<360.11 444.243> 584.903 114.06<175.029 510.135>
VStem: 57.7715 115.574<118.552 584.27> 444.243 114.657<114.978 275.518>
LayerCount: 3
Back
SplineSet
182.399 -0.000548623 m 2
 106.003 -0.000548623 43.9287 63.0273 43.9287 139.426 c 2
 43.9287 558.66 l 2
 43.9287 636.013 106.002 698.086 182.399 698.086 c 2
 418.08 698.086 l 2
 459.144 697.132 485.884 654.158 491.613 609.274 c 1
 169.985 609.274 l 2
 148.977 609.275 132.741 593.039 132.741 572.985 c 2
 132.741 126.058 l 2
 132.741 106.002 148.976 89.7686 169.985 89.7686 c 2
 418.08 89.7686 l 1
 418.08 286.997 l 5
 355.053 286.997 l 6
 351.232 286.997 335.952 286.997 335.952 308.963 c 6
 335.952 361.017 l 1
 505.938 361.017 l 1
 505.938 45.8389 l 18
 505.938 18.5855 489.105 -0.000548623 455.814 -0.000548623 c 2
 182.399 -0.000548623 l 2
EndSplineSet
Fore
SplineSet
57.7715 148.249 m 2
 57.7715 550.714 l 2
 57.7715 632.833 123.791 698.963 210.115 698.963 c 2
 460.324 698.961 l 2
 512.384 697.751 539.575 643.879 545.032 601.126 c 2
 547.104 584.903 l 1
 196.944 584.903 l 2
 183.044 584.903 173.346 575.724 173.346 564.466 c 2
 173.346 135.415 l 2
 173.346 124.173 183.029 114.978 196.945 114.978 c 2
 444.243 114.978 l 1
 444.243 275.518 l 1
 393.289 275.518 l 2
 369.982 275.518 357.11 294.026 357.11 311.004 c 2
 357.11 375.376 l 1
 558.9 375.376 l 1
 558.9 58.4053 l 2
 558.9 25.7373 538.335 -0.000976562 496.382 -0.000976562 c 2
 210.115 -0.000976562 l 2
 123.663 -0.000976562 57.7715 67.002 57.7715 148.249 c 2
EndSplineSet
EndChar

StartChar: U
Encoding: 85 85 47
Width: 624
VWidth: -4
Flags: W
HStem: 0.916016 114.062<177.997 437.032>
VStem: 61.4395 116.557<114.978 692.061> 437.032 116.559<115.006 135.415 135.415 687.64>
LayerCount: 3
Back
SplineSet
500.407 698.086 m 1
 500.407 101.227 l 2
 500.407 39.1533 460.299 0.954102 411.594 0.954102 c 2
 135.606 0.954102 l 2
 86.9023 0.954102 47.749 39.1533 47.749 101.227 c 2
 47.749 659.887 l 2
 48.7031 696.177 77.3525 702.861 93.5869 702.861 c 0
 114.597 702.861 137.517 691.402 137.517 659.887 c 2
 137.517 126.058 l 2
 137.517 105.047 154.706 89.7686 172.85 89.7686 c 2
 374.351 89.7686 l 2
 395.359 89.7686 410.64 106.957 410.64 126.058 c 2
 410.64 654.158 l 2
 410.64 685.672 433.559 698.086 454.567 698.086 c 6
 500.407 698.086 l 1
EndSplineSet
Fore
SplineSet
553.591 111.577 m 2
 553.591 44.3906 508.673 0.916016 453.93 0.916016 c 2
 160.183 0.916016 l 2
 105.344 0.916016 61.4395 44.6143 61.4395 111.577 c 2
 61.4414 648.081 l 2
 62.6357 693.499 99.3232 703.547 119.844 703.547 c 0
 147.338 703.547 177.997 686.533 177.997 647.892 c 2
 177.997 135.415 l 2
 177.997 123.448 189.19 114.978 199.661 114.978 c 2
 414.35 114.978 l 2
 427.555 114.978 437.032 124.688 437.032 135.415 c 2
 437.032 642.392 l 2
 437.032 680.974 467.097 698.963 495.185 698.963 c 2
 553.591 698.963 l 1
 553.591 111.577 l 2
EndSplineSet
EndChar

StartChar: S
Encoding: 83 83 48
Width: 597
VWidth: -4
Flags: W
HStem: 0 113.576<104.727 431.854> 302.537 114.948<188.422 432.82> 585.387 113.576<187.645 480.377>
VStem: 70.6055 114.896<417.495 585.326> 434.945 114.977<114.127 134.013 134.013 301>
LayerCount: 3
Back
SplineSet
45.8389 610.229 m 2
 45.8389 655.112 84.0381 698.086 157.571 698.086 c 2
 372.44 698.086 l 2
 414.46 697.132 441.198 666.122 446.928 609.778 c 1
 170.94 609.778 l 2
 148.976 609.778 133.696 592.589 133.696 572.534 c 2
 133.696 440.243 l 2
 133.696 433.559 141.336 404.909 169.985 404.909 c 0
 170.94 404.909 170.94 404.909 170.94 404.909 c 2
 371.485 404.909 l 2
 445.018 404.909 485.127 347.611 485.127 285.537 c 2
 485.127 112.687 l 2
 485.127 36.2891 441.198 0 359.07 0 c 2
 116.507 0 l 2
 82.1279 0 59.208 29.0986 55.3877 88.3086 c 1
 359.07 88.3086 l 2
 366.711 88.3086 395.359 95.9482 395.359 124.597 c 2
 395.359 280.764 l 2
 395.359 300.817 377.215 315.143 359.07 315.143 c 2
 157.571 315.143 l 2
 94.542 315.143 45.8389 359.07 45.8389 419.234 c 2
 45.8389 610.229 l 2
EndSplineSet
Fore
SplineSet
549.922 288.516 m 2
 549.922 122.579 l 2
 549.922 62.5449 522.84 0 412.047 0 c 2
 152.847 0 l 2
 123.629 0 84.9775 18.043 79.8018 98.249 c 2
 78.8135 113.576 l 1
 412.047 113.576 l 2
 413.129 113.576 434.945 116.301 434.945 134.013 c 2
 434.945 283.934 l 2
 434.945 293.841 423.564 302.537 412.047 302.537 c 2
 195.059 302.537 l 2
 123.678 302.537 70.6055 350.776 70.6055 416.865 c 2
 70.6055 600.22 l 2
 70.6055 652.037 114.854 698.963 195.059 698.963 c 2
 426.628 698.961 l 2
 476.088 697.858 507.005 661.936 513.177 601.244 c 2
 514.79 585.387 l 1
 209.456 585.387 l 2
 194.76 585.387 185.502 575.97 185.502 564.033 c 2
 185.502 437.061 l 2
 185.525 431.4 193.019 417.484 207.896 417.485 c 0
 280.402 417.493 352.908 417.508 425.415 417.513 c 0
 505.517 417.518 549.922 355.482 549.922 288.516 c 2
EndSplineSet
EndChar

StartChar: I
Encoding: 73 73 49
Width: 260
VWidth: -4
Flags: W
HStem: 0.916016 21G<74.2725 188.332>
VStem: 74.2725 114.06<0.916016 686.74>
LayerCount: 3
Back
SplineSet
94.542 698.086 m 2
 138.471 698.086 l 1
 138.471 0.954102 l 1
 49.6592 0.954102 l 1
 49.6592 654.158 l 2
 49.6592 678.032 68.7578 698.086 94.542 698.086 c 2
EndSplineSet
Fore
SplineSet
131.761 698.963 m 2
 188.332 698.963 l 1
 188.332 0.916016 l 1
 74.2725 0.916016 l 1
 74.2725 642.392 l 2
 74.2725 673.126 99.2822 698.963 131.761 698.963 c 2
EndSplineSet
EndChar

StartChar: J
Encoding: 74 74 50
Width: 251
VWidth: -4
Flags: W
VStem: 65.2754 114.977<-102.443 690.252>
LayerCount: 3
Back
SplineSet
-30.5596 -221.555 m 0
 -30.5596 -219.645 -30.5596 -215.823 -27.6943 -211.049 c 2
 49.6592 -129.877 l 1
 51.5693 -127.968 l 2
 65.8936 -106.957 72.5781 -95.4971 72.5781 -65.8936 c 6
 72.5781 658.933 l 2
 72.5781 682.808 93.5869 702.861 116.507 702.861 c 0
 142.291 702.861 162.346 682.808 162.346 658.933 c 2
 162.346 -59.208 l 2
 162.346 -91.6777 148.976 -106.002 142.291 -113.643 c 2
 23.874 -221.555 l 2
 10.5049 -237.789 -0.954102 -238.744 -7.63965 -238.744 c 1
 -23.3333 -238.744 -30.5596 -231.333 -30.5596 -221.555 c 0
EndSplineSet
Fore
SplineSet
-28.9336 -180.797 m 2
 -28.1123 -179.428 l 1
 47.3711 -100.223 l 1
 48.3721 -99.2188 l 1
 58.8672 -83.8418 65.2754 -74.5186 65.2754 -48.8574 c 2
 65.2754 646.976 l 2
 65.2754 677.051 91.5215 703.547 121.847 703.547 c 0
 154.184 703.547 180.252 678.165 180.252 646.976 c 2
 180.252 -42.4395 l 2
 180.252 -67.1357 173.632 -85.668 157.437 -104.179 c 2
 156.9 -104.792 l 1
 43.3496 -208.27 l 2
 28.4443 -225.975 14.9268 -229.754 2.66602 -229.194 c 0
 -12.0146 -228.523 -18.9463 -226.342 -26.3408 -218.126 c 0
 -28.9043 -215.278 -31.2734 -211.534 -32.6338 -206.607 c 0
 -33.0762 -205.005 -33.7373 -202.047 -33.7373 -198.293 c 0
 -33.7373 -189.543 -30.7314 -183.793 -28.9336 -180.797 c 2
EndSplineSet
EndChar

StartChar: L
Encoding: 76 76 51
Width: 557
VWidth: -4
Flags: W
HStem: 0.916016 114.062<179.026 539.214>
VStem: 63.2725 115.754<114.978 686.74>
LayerCount: 3
Back
SplineSet
94.542 698.086 m 2
 138.471 698.086 l 1
 138.471 89.7686 l 1
 454.567 89.7686 l 2
 479.397 89.7686 498.497 70.668 498.497 45.8389 c 0
 498.497 20.0537 479.397 0.954102 454.567 0.954102 c 2
 49.6592 0.954102 l 1
 49.6592 654.158 l 2
 49.6592 678.032 68.7578 698.086 94.542 698.086 c 2
EndSplineSet
Fore
SplineSet
120.761 698.963 m 2
 179.026 698.963 l 5
 179.026 114.978 l 1
 495.185 114.978 l 2
 524.885 114.978 551.757 92.3486 551.757 58.4053 c 0
 551.757 28.1553 529.128 0.916016 495.185 0.916016 c 2
 63.2725 0.916016 l 1
 63.2725 642.392 l 2
 63.2725 673.126 88.2822 698.963 120.761 698.963 c 2
EndSplineSet
EndChar

StartChar: B
Encoding: 66 66 52
Width: 591
VWidth: 14
Flags: W
HStem: 1.83398 114.06<179.001 422.649> 312.621 111.257<179.109 405.445> 596.571 102.392<179.109 405.568>
VStem: 63.2725 115.729<115.894 312.621 423.878 596.571> 405.806 111.115<424.585 593.766> 424.108 116.648<116.899 135.415 135.415 311.302>
LayerCount: 3
Back
SplineSet
462.209 448.64 m 2xf8
 462.209 403 437.252 383.786 417.01 378.351 c 2
 406.135 375.431 l 1
 417.01 372.602 l 2
 449.964 368.696 487.037 326 487.037 283.394 c 2
 487.037 114.597 l 2xf4
 487.037 40.1094 420.189 1.91016 367.665 1.91016 c 2
 49.6592 1.91016 l 1
 49.6592 698.086 l 1
 336.151 698.086 l 2
 419.234 698.086 462.209 650.338 462.209 578.715 c 2
 462.209 448.64 l 2xf8
345.151 624.554 m 2
 138.471 624.554 l 1
 138.471 411.539 l 5
 345.151 411.539 l 6
 364.25 411.539 381.44 425.864 381.44 447.829 c 6xf8
 381.44 587.31 l 2
 381.439 616.914 352.791 624.554 345.151 624.554 c 2
361.936 325.646 m 2
 138.471 325.646 l 1
 138.471 90.7227 l 1
 361.936 90.7227 l 2
 381.035 90.7227 397.269 106.002 397.269 126.058 c 2
 397.269 290.312 l 2xf4
 397.269 318.963 368.62 325.646 361.936 325.646 c 2
EndSplineSet
Fore
SplineSet
402.326 312.621 m 2xf4
 179.001 312.621 l 1
 179.001 115.894 l 1
 402.326 115.894 l 2
 414.16 115.894 424.108 124.237 424.108 135.415 c 2
 424.108 293.1 l 2
 424.108 309.604 404.361 312.621 402.326 312.621 c 2xf4
382.844 596.571 m 6
 179.109 596.571 l 1
 179.109 423.878 l 1
 382.844 423.878 l 6
 389.805 423.878 405.806 427.446 405.806 444.316 c 6
 405.806 575.217 l 6xf8
 405.804 593.184 385.352 596.571 382.844 596.571 c 6
488.286 376.726 m 1
 517.951 359.21 540.756 321.644 540.756 286.458 c 2
 540.756 124.413 l 2xf4
 540.756 43.0059 468.151 1.83398 408.464 1.83398 c 2
 63.2725 1.83398 l 1
 63.2725 698.963 l 1
 376.137 698.963 l 2
 471.219 698.963 516.921 644.918 516.921 569.966 c 2
 516.921 445.094 l 2
 516.921 411.244 504.09 389.498 488.286 376.726 c 1
EndSplineSet
EndChar

StartChar: D
Encoding: 68 68 53
Width: 562
VWidth: 14
Flags: W
HStem: 0 113.145<169.001 413.522> 583.069 114.978<169.001 393.597>
VStem: 53.2725 115.729<113.145 583.069> 414.108 116.648<115.557 581.487>
LayerCount: 3
Back
SplineSet
367.665 0 m 6
 49.6592 0 l 5
 49.6592 697.132 l 5
 358.115 697.132 l 6
 430.692 697.132 487.037 638.879 487.037 577.761 c 6
 487.037 112.687 l 6
 487.037 39.1533 419.234 0 367.665 0 c 6
361.936 87.8584 m 6
 381.035 87.8584 397.269 104.093 397.269 125.102 c 6
 397.269 571.075 l 6
 397.269 599.725 368.62 607.364 361.936 607.364 c 6
 138.471 607.364 l 5
 138.471 87.8584 l 5
 361.936 87.8584 l 6
EndSplineSet
Fore
SplineSet
392.326 113.145 m 2
 403.447 113.145 414.108 121.851 414.108 134.497 c 2
 414.108 562.632 l 2
 414.108 565.952 413.673 578.074 394.867 582.574 c 1
 395.354 582.457 394.042 582.764 393.597 582.85 c 2
 393.597 582.85 394.108 582.925 392.326 583.069 c 2
 169.001 583.069 l 1
 169.001 113.145 l 1
 392.326 113.145 l 2
398.464 0 m 2
 53.2725 0 l 1
 53.2725 698.047 l 1
 388.233 698.047 l 2
 470.038 698.047 530.756 635.722 530.756 569.051 c 2
 530.756 122.579 l 2
 530.756 46.7676 462.532 0 398.464 0 c 2
EndSplineSet
EndChar

StartChar: W
Encoding: 87 87 54
Width: 922
VWidth: -4
Flags: W
HStem: 0.916016 21G<233.996 394.165 531.833 687.053>
LayerCount: 3
Back
SplineSet
349.017 475.577 m 2
 421.559 475.577 l 2
 432 475.577 441.437 470.213 443.75 460.25 c 2
 532.876 76.3984 l 1
 670.393 668.482 l 2
 675.894 692.169 699.714 706.964 723.871 701.906 c 2
 764.934 691.402 l 1
 606.409 0.954102 l 1
 464.118 0.954102 l 1
 409 232 l 2
 405.566 246.396 392.957 293.5 392.957 315.979 c 0
 392.957 320.849 389.596 323.964 385.317 323.964 c 0
 381.038 323.964 377.676 320.849 377.676 315.979 c 4
 377.676 291.5 366.032 248.24 362 232 c 2
 304.638 0.954102 l 1
 166.166 0.954102 l 1
 15.2793 649.384 l 2
 2.87985 702.67 87.7771 726.485 101.227 668.482 c 2
 238.744 75.4434 l 1
 328.512 460.299 l 2
 330.652 469.471 339.287 475.577 349.017 475.577 c 2
EndSplineSet
Fore
SplineSet
500.718 485.354 m 2
 515.938 485.354 533.697 477.051 537.998 459.497 c 2
 613.48 151.401 l 1
 797.979 659.4 l 2
 804.481 685.938 828.36 703.581 854.574 703.581 c 0
 858.57 703.581 862.933 703.099 866.977 702.252 c 2
 920.315 688.615 l 1
 680.066 0.916016 l 1
 531.833 0.916016 l 1
 473.217 233.778 l 2
 472.496 236.642 468.223 291.574 464.185 308.952 c 1
 460.303 291.976 456.123 237.429 455.134 233.65 c 2
 394.165 0.916016 l 1
 240.95 0.916016 l 1
 20.6436 634.545 l 2
 19.1328 638.891 19.085 643.467 19.085 647.793 c 0
 19.085 682.294 49.8281 702.887 78.1709 702.887 c 0
 99.3848 702.887 120.1 690.055 131.205 659.396 c 2
 315.578 150.396 l 1
 391.668 459.559 l 2
 395.635 475.673 411.149 485.354 427.236 485.354 c 2
 500.718 485.354 l 2
EndSplineSet
EndChar

StartChar: Y
Encoding: 89 89 55
Width: 586
VWidth: -4
Flags: W
HStem: 0.916016 21G<234.7 355.73>
VStem: 234.7 121.03<0.916016 304.26>
LayerCount: 3
Back
SplineSet
55.3877 689.492 m 6
 257.843 399.179 l 1
 459.343 689.492 l 2
 473.464 709.836 501.039 715.254 521.416 701.906 c 2
 553.886 678.032 l 1
 301.771 306.547 l 1
 301.771 0.954102 l 1
 212.004 0.954102 l 1
 212.004 307.502 l 1
 -18.1455 639.833 l 6
 -52.7802 689.845 22.6854 736.386 55.3877 689.492 c 6
EndSplineSet
Fore
SplineSet
281.261 422.826 m 1
 477.374 684.523 l 2
 489.251 700.817 507.435 709.642 525.837 709.642 c 0
 536.634 709.642 547.938 706.364 557.57 700.054 c 2
 600.232 668.698 l 1
 355.73 304.26 l 1
 355.73 0.916016 l 1
 234.7 0.916016 l 1
 234.7 305.103 l 1
 -9.25781 620.441 l 2
 -16.6494 631.114 -20.3564 642.656 -20.3564 653.7 c 0
 -20.3564 686.64 10.3818 709.354 38.8252 709.354 c 0
 57.2881 709.354 74.2881 699.888 84.9834 684.55 c 2
 281.261 422.826 l 1
EndSplineSet
EndChar

StartChar: X
Encoding: 88 88 58
Width: 690
VWidth: -4
Flags: W
LayerCount: 3
Back
SplineSet
463.163 5.72949 m 2
 295.088 250.203 l 1
 126.058 5.72949 l 2
 92 -42 19 6 53.4785 56.3447 c 2
 240.654 330.421 l 1
 32.4697 636.013 l 2
 -1.54713 685.946 72.5408 733.999 105.047 686.628 c 2
 295.088 409.685 l 1
 485.127 686.628 l 6
 519.151 736.21 590.722 682.648 558.66 636.013 c 6
 348.566 330.421 l 1
 561.525 19.0986 l 1
 525.236 -5.72949 l 2
 504.872 -19.6618 477.086 -14.5253 463.163 5.72949 c 2
EndSplineSet
Fore
SplineSet
328.607 229.226 m 1
 164.628 11.623 l 2
 152.851 -3.71875 136.001 -13.3633 117.511 -13.3633 c 0
 87.6416 -13.3633 59.2725 10.0605 59.2725 42.6953 c 0
 59.2725 53.9395 62.9727 65.6963 70.4531 76.6201 c 2
 252.69 331.614 l 1
 50.2705 616.864 l 2
 42.9932 627.547 39.3857 639.093 39.3857 650.117 c 0
 39.3857 683.08 69.6426 706.605 98.2295 706.605 c 0
 107.327 706.605 128.013 704.599 143.719 681.711 c 2
 328.645 433.148 l 1
 513.648 681.711 l 2
 529.405 704.673 549.815 706.979 558.856 706.979 c 0
 588.453 706.979 618.26 681.471 618.26 648.616 c 0
 618.26 637.987 614.895 626.872 607.979 616.814 c 2
 403.63 331.583 l 1
 618.879 28.9805 l 1
 572.158 -2.98535 l 2
 562.275 -9.74609 550.915 -13.0254 539.755 -13.0254 c 0
 520.881 -13.0254 503.213 -3.7959 491.57 11.7432 c 2
 328.607 229.226 l 1
EndSplineSet
EndChar

StartChar: E
Encoding: 69 69 59
Width: 552
VWidth: 14
Flags: W
HStem: 1.83398 114.06<179.026 538.829> 285.117 114.978<179.026 490.192> 585.819 114.061<179.026 518.634>
VStem: 63.2725 115.754<115.894 285.117 400.095 585.819>
LayerCount: 3
Back
SplineSet
49.6592 699.042 m 5
 476.532 699.042 l 5
 476.532 654.158 l 6
 476.532 630.283 457.434 610.229 431.648 610.229 c 6
 138.471 610.229 l 5
 138.471 386.766 l 5
 402.999 386.766 l 6
 431.648 382.944 448.838 364.801 448.838 341.881 c 4
 448.838 307.502 414.46 297.952 402.999 296.997 c 5
 138.471 296.997 l 5
 138.471 90.7227 l 5
 453.613 90.7227 l 6
 481.308 87.8584 498.497 70.668 498.497 46.7939 c 4
 498.497 22.9189 481.308 3.82031 453.613 1.91016 c 6
 49.6592 1.91016 l 5
 49.6592 699.042 l 5
EndSplineSet
Fore
SplineSet
63.2725 699.88 m 1
 530.671 699.88 l 1
 530.671 642.392 l 2
 530.671 611.657 505.661 585.819 473.183 585.819 c 2
 179.026 585.819 l 1
 179.026 400.095 l 1
 446.636 400.095 l 1
 447.583 399.97 l 2
 481.496 395.445 504.084 372.433 504.084 342.605 c 0
 504.084 297.578 458.925 286.196 446.277 285.142 c 2
 179.026 285.117 l 1
 179.026 115.894 l 1
 495.012 115.894 l 1
 495.75 115.817 l 2
 530.26 112.249 551.757 89.8252 551.757 59.3223 c 0
 551.757 29.1406 529.119 4.2207 494.764 1.85059 c 2
 63.2725 1.83398 l 1
 63.2725 699.88 l 1
EndSplineSet
EndChar

StartChar: F
Encoding: 70 70 60
Width: 562
VWidth: -4
Flags: W
HStem: 0.916016 21G<74.2725 190.186> 284.2 114.978<190.186 448.169> 584.903 114.06<190.186 529.429>
VStem: 74.2725 115.914<0.916016 284.2 399.178 584.903>
LayerCount: 3
Back
SplineSet
49.6592 698.086 m 1
 476.532 698.086 l 1
 476.532 654.158 l 2
 476.532 629.329 457.434 609.274 431.648 609.274 c 2
 138.471 609.274 l 1
 138.471 385.811 l 1
 348.566 385.811 l 2
 373.395 385.811 392.494 364.801 392.494 341.881 c 0
 392.494 316.096 373.395 296.042 348.566 296.042 c 2
 138.471 296.042 l 1
 138.471 0.954102 l 1
 49.6592 0.954102 l 1
 49.6592 698.086 l 1
EndSplineSet
Fore
SplineSet
74.2725 698.963 m 1
 541.671 698.963 l 1
 541.671 642.392 l 2
 541.671 612.21 518.675 584.903 484.183 584.903 c 2
 190.186 584.903 l 1
 190.186 399.178 l 1
 401.586 399.178 l 2
 436.69 399.178 460.994 372.513 460.994 342.605 c 0
 460.994 311.805 438.366 284.2 401.586 284.2 c 2
 190.186 284.2 l 1
 190.186 0.916016 l 1
 74.2725 0.916016 l 1
 74.2725 698.963 l 1
EndSplineSet
EndChar

StartChar: Z
Encoding: 90 90 61
Width: 595
VWidth: -4
Flags: W
HStem: 0.916016 114.062<201.513 534.435> 584.903 114.06<105.511 413.303>
LayerCount: 3
Back
SplineSet
63.0732 0.954102 m 2
 41.29 0.954102 35.3789 15.8828 35.3789 26.7393 c 2
 35.3789 90.7227 l 2
 35.3789 107.333 41.8847 123.456 49.208 133.976 c 2
 380.08 609.274 l 1
 36.2891 609.274 l 1
 40.1094 667.527 65.8936 698.086 135.606 698.086 c 2
 460.163 698.086 l 2
 460.165 698.086 485.947 698.171 485.947 672.303 c 2
 485.947 611 l 2
 485.947 601.5 479.344 591.301 472.577 581.711 c 2
 126.058 89.7686 l 1
 487.407 89.7686 l 1
 484.542 48.7031 474.037 0.954102 412.919 0.954102 c 2
 63.0732 0.954102 l 2
EndSplineSet
Fore
SplineSet
70.5635 40.0693 m 2
 70.5635 101.494 l 2
 70.5635 116.433 75.0195 134.866 86.4219 151.244 c 2
 413.303 584.903 l 1
 70.4629 584.903 l 1
 71.4688 600.246 l 2
 75.1377 656.191 99.1523 698.963 181.183 698.963 c 2
 521.558 698.963 l 2
 533.303 698.963 560.709 691.133 560.709 659.811 c 2
 560.709 600.96 l 2
 560.587 599.841 560.911 596.282 559.021 589.916 c 1
 559.598 591.856 558.411 587.946 557.906 586.604 c 0
 554.378 577.2 548.164 568.684 545.243 564.546 c 2
 201.513 114.978 l 1
 563.15 114.978 l 1
 562.076 99.5752 l 2
 558.959 54.9072 545.209 0.916016 476.202 0.916016 c 2
 111.551 0.916016 l 2
 82.4551 0.916016 70.5635 21.0879 70.5635 40.0693 c 2
EndSplineSet
EndChar

StartChar: K
Encoding: 75 75 62
Width: 600
VWidth: -4
Flags: W
HStem: 0.916016 21G<63.2725 177.332>
VStem: 63.2725 114.06<0.916016 253.569 439.484 698.963>
LayerCount: 3
Back
SplineSet
526.19 3.82031 m 0
 543.142 23.4336 543.142 51.2422 526.19 65.8936 c 2
 202.455 345.701 l 1
 505.182 653.204 l 1
 473.667 685.672 l 2
 463.163 696.177 452.658 699.042 441.198 699.042 c 4
 431.648 699.042 422.1 696.177 411.594 686.628 c 2
 138.471 405.864 l 1
 138.471 698.086 l 1
 49.6592 698.086 l 1
 49.6592 0.954102 l 1
 138.471 0.954102 l 1
 138.471 281.717 l 1
 463.163 3.82031 l 2
 483.194 -13.323 511.388 -13.3077 526.19 3.82031 c 0
EndSplineSet
Fore
SplineSet
494.073 7.12695 m 2
 177.332 253.569 l 1
 177.332 0.916016 l 1
 63.2725 0.916016 l 1
 63.2725 698.963 l 1
 177.332 698.963 l 1
 177.332 439.484 l 1
 440.551 683.912 l 2
 453.247 694.332 466.223 699.88 482.351 699.88 c 0
 498.892 699.88 512.098 694.433 523.778 682.751 c 2
 563.912 641.404 l 1
 252.588 347.12 l 1
 573.359 88.5527 l 2
 584.99 78.499 590.548 63.9961 590.548 49.6494 c 0
 590.548 17.9258 566.618 -8.66992 535.564 -8.66992 c 0
 521.023 -8.66992 506.229 -3.27539 494.073 7.12695 c 2
EndSplineSet
EndChar

StartChar: one
Encoding: 49 49 63
Width: 233
VWidth: 14
Flags: W
VStem: 54.2715 113.144<1.83398 655.614>
LayerCount: 3
Back
SplineSet
311 40 m 2
 311 636 l 2
 311 647.333 307.167 656.833 299.5 664.5 c 128
 291.833 672.167 282.333 676 271 676 c 2
 247 676 l 2
 241 676 235 674.5 229 671.5 c 128
 223 668.5 218.333 665 215 661 c 2
 104 541 l 2
 94 530.333 89 519.333 89 508 c 0
 89 498.667 92.1667 490.833 98.5 484.5 c 128
 104.833 478.167 112.667 475 122 475 c 0
 127.333 475 132.667 475.667 138 477 c 128
 143.333 478.333 149.333 481.333 156 486 c 2
 208 521 l 1
 208 40 l 2
 208 28.6667 211.667 19.1667 219 11.5 c 128
 226.333 3.83333 235.667 -7.94729e-08 247 0 c 2
 271 0 l 2
 282.333 0 291.833 3.83333 299.5 11.5 c 128
 307.167 19.1667 311 28.6667 311 40 c 2
EndSplineSet
Fore
SplineSet
167.415 712.113 m 1
 167.415 1.83398 l 1
 54.2715 1.83398 l 1
 54.2715 575.775 l 2
 54.2715 652.835 99.8926 696.638 149.799 708.076 c 2
 167.415 712.113 l 1
EndSplineSet
EndChar

StartChar: two
Encoding: 50 50 64
Width: 475
VWidth: 14
Flags: W
HStem: 0.279297 114.699<173 432.492> 594.129 103.975<72.716 306.868>
VStem: 43 130<114.978 248.871> 311.574 117.01<427.846 594.08>
LayerCount: 3
Back
SplineSet
458 36 m 2
 458 56 l 2
 458 67.3333 454.167 76.1667 446.5 82.5 c 128
 438.833 88.8333 429.333 92 418 92 c 2
 164 92 l 1
 164 196 l 2
 164 211.333 168.5 225 177.5 237 c 128
 186.5 249 199 259.667 215 269 c 2
 356 347 l 2
 367.333 353 378.333 359.5 389 366.5 c 128
 399.667 373.5 409 381.333 417 390 c 128
 425 398.667 431.5 408.5 436.5 419.5 c 128
 441.5 430.5 444 443.333 444 458 c 2
 444 556 l 2
 444 571.333 440.667 586.333 434 601 c 128
 427.333 615.667 418.333 628.5 407 639.5 c 128
 395.667 650.5 382.333 659.333 367 666 c 128
 351.667 672.667 335.333 676 318 676 c 2
 109 676 l 2
 99.6667 676 90.6667 672.5 82 665.5 c 128
 73.3333 658.5 69 648.667 69 636 c 2
 69 584 l 1
 289 584 l 2
 323.667 584 341 566 341 530 c 2
 341 481 l 2
 341 471 339.333 462.667 336 456 c 128
 332.667 449.333 328.333 443.5 323 438.5 c 128
 317.667 433.5 311.833 429.5 305.5 426.5 c 128
 299.167 423.5 293.333 420.333 288 417 c 2
 139 333 l 2
 115.667 319.667 96.8333 302.167 82.5 280.5 c 128
 68.1667 258.833 61 234.333 61 207 c 2
 61 0 l 1
 418 0 l 2
 429.333 0 438.833 3.16667 446.5 9.5 c 128
 454.167 15.8333 458 24.6667 458 36 c 2
EndSplineSet
Fore
SplineSet
433 88 m 4
 433 0 l 13
 81.7695 0.279297 l 6
 60.46 0.295898 43 13.5127 43 29.8623 c 6
 43 229.058 l 6
 43 265.074 63.7461 297.436 98 317 c 6
 298.33 431.422 l 6
 309.762 439.892 311.628 445.189 311.574 451.332 c 6
 311.021 572.449 l 6
 310.956 586.749 300.951 594.129 288.288 594.129 c 6
 49.2334 594.129 l 5
 48.8467 609.986 l 6
 47.6033 660.97 78.4492 698.104 123.765 698.104 c 6
 301.867 698.104 l 6
 409.941 698.104 428.584 639.958 428.584 601.194 c 6
 428.584 431.518 l 6
 428.584 402.784 409.019 374.753 385.397 356.562 c 6
 195 249.5 l 6
 182.891 242.69 173 228.5 173 210 c 6
 173 114.978 l 5
 408 114.978 l 4
 421.8 114.978 433 102.892 433 88 c 4
EndSplineSet
EndChar

StartChar: three
Encoding: 51 51 65
Width: 469
VWidth: 14
Flags: W
HStem: 0 113.135<58.609 332.387> 327.287 85.6406<135.418 139.758 140.933 315.306> 591.653 104.892<80.6273 311.824>
VStem: 315.389 115.633<414.316 573.317> 332.546 114.978<113.856 326.87>
LayerCount: 3
Back
SplineSet
452 124 m 2
 452 256 l 2
 452 278 444.667 297.333 430 314 c 128
 415.333 330.667 398 340 378 342 c 1
 378 343 l 1
 383.333 344.333 389.5 346.833 396.5 350.5 c 128
 403.5 354.167 410.167 359 416.5 365 c 128
 422.833 371 428.167 378 432.5 386 c 128
 436.833 394 439 403 439 413 c 2
 439 552 l 2
 439 568 435.833 583.5 429.5 598.5 c 128
 423.167 613.5 414.5 626.667 403.5 638 c 128
 392.5 649.333 379.333 658.5 364 665.5 c 128
 348.667 672.5 332 676 314 676 c 2
 110 676 l 2
 92 676 79.8333 671.5 73.5 662.5 c 128
 67.1667 653.5 64 642.333 64 629 c 2
 64 584 l 1
 291 584 l 2
 305 584 316 579.333 324 570 c 128
 332 560.667 336 550.333 336 539 c 2
 336 429 l 2
 336 416.333 331.667 405.667 323 397 c 128
 314.333 388.333 303.333 384 290 384 c 2
 222 384 l 2
 212.667 384 204.5 380.5 197.5 373.5 c 128
 190.5 366.5 187 358.333 187 349 c 2
 187 292 l 1
 304 292 l 2
 318 292 329 287.333 337 278 c 128
 345 268.667 349 258.333 349 247 c 2
 349 137 l 2
 349 126.333 345.333 116.167 338 106.5 c 128
 330.667 96.8333 319.333 92 304 92 c 2
 51 92 l 1
 51 36 l 2
 51 24.6667 55 15.8333 63 9.5 c 128
 71 3.16667 80.6667 7.94729e-08 92 0 c 2
 327 0 l 2
 345 0 361.667 3.33333 377 10 c 128
 392.333 16.6667 405.5 25.8333 416.5 37.5 c 128
 427.5 49.1667 436.167 62.5 442.5 77.5 c 128
 448.833 92.5 452 108 452 124 c 2
EndSplineSet
Fore
SplineSet
29.71 113.143 m 1xe8
 29.6611 115.409 29.6309 117.938 29.6309 120.745 c 2
 29.6309 121.662 l 1
 50.1992 113.142 l 1
 127.794 113.142 217.284 113.135 308.242 113.135 c 0
 322.779 113.699 332.546 123.849 332.546 134.497 c 2
 332.546 307.767 l 2xe8
 332.281 310.489 332.253 310.068 332.08 310.623 c 2
 331.823 311.464 l 1
 331.8 311.479 331.737 311.61 331.627 311.894 c 0
 328.569 319.481 319.119 327.287 308.626 327.287 c 2
 137.538 327.287 l 1
 135.418 327.842 l 2
 128.392 329.85 128.349 329.881 125.653 330.777 c 2
 124.682 331.101 l 1
 123.766 331.558 l 2
 113.573 337.851 107.099 343.039 102.17 353.582 c 0
 99.3545 359.605 98.291 365.148 98.291 370.118 c 0
 98.291 370.603 98.3877 372.027 98.4268 372.922 c 0
 98.8457 382.683 99.2969 381.789 100.114 383.925 c 0
 100.372 384.598 99.9082 383.882 101.742 387.55 c 2
 102.144 388.352 l 1
 102.642 389.098 l 2
 108.397 397.727 117.895 407.371 130.787 412.06 c 2
 133.171 412.928 l 1
 135.708 412.928 l 2
 135.891 412.928 136.464 412.928 136.677 412.928 c 2
 139.758 412.928 l 1
 140.933 413.845 l 1
 290.357 413.845 l 2
 303.093 413.845 315.389 422.53 315.389 435.199 c 2
 315.389 573.317 l 5
 314.253 575.258 l 5
 313.809 576.676 l 6
 311.146 585.196 303.628 591.653 291.432 591.653 c 6
 51.0117 591.653 l 5
 52.624 607.51 l 6
 58.1934 662.28 85.7764 695.323 138.632 696.545 c 6
 304.327 696.547 l 6
 385.405 696.547 431.021 651.888 431.021 599.636 c 6
 431.021 424.145 l 2xf0
 431.021 407.867 424.082 384.205 407.849 369.268 c 1
 432.29 356.83 447.523 331.642 447.523 304.965 c 2
 447.523 132.663 l 2
 447.523 49.8027 394.676 0 314 0 c 2
 104.537 0 l 2
 62.4912 0 39.0566 39.4609 31.6973 88.9639 c 1
 31.2939 88.5596 l 1
 21.1113 113.143 l 1
 28.8584 113.143 l 1
 29.71 113.143 l 1xe8
EndSplineSet
EndChar

StartChar: four
Encoding: 52 52 66
Width: 554
VWidth: 14
Flags: W
HStem: 0.771484 21G<310.223 435.326> 201.714 89.3057<142.937 310.223 435.326 512.072>
VStem: 310.223 125.104<0.771484 201.714 291.02 528.668>
LayerCount: 3
Back
SplineSet
489 225 m 2
 489 245 l 2
 489 256.333 485.167 265.167 477.5 271.5 c 128
 469.833 277.833 460.333 281 449 281 c 2
 387 281 l 1
 387 634 l 2
 387 644 382.667 653.5 374 662.5 c 128
 365.333 671.5 354.333 676 341 676 c 2
 293 676 l 2
 279 676 268.333 672 261 664 c 128
 253.667 656 248.333 649.333 245 644 c 2
 43 285 l 2
 39.6667 279 36.6667 273 34 267 c 128
 31.3333 261 30 254 30 246 c 2
 30 235 l 2
 30 221 35.3333 209.833 46 201.5 c 128
 56.6667 193.167 66.6667 189 76 189 c 2
 284 189 l 1
 284 40 l 2
 284 28.6667 287.833 19.1667 295.5 11.5 c 128
 303.167 3.83333 312.667 -7.94729e-08 324 0 c 2
 347 0 l 2
 358.333 0 367.833 3.83333 375.5 11.5 c 128
 383.167 19.1667 387 28.6667 387 40 c 2
 387 189 l 1
 449 189 l 2
 460.333 189 469.833 192.167 477.5 198.5 c 128
 485.167 204.833 489 213.667 489 225 c 2
284 281 m 1
 139 281 l 1
 284 539 l 1
 284 281 l 1
EndSplineSet
Fore
SplineSet
435.326 657.745 m 6
 435.326 289.188 l 5
 475.934 289.188 l 6
 482.812 288.519 505.741 287.705 515.795 261.535 c 4
 517.713 256.543 518.754 251.092 518.754 245.451 c 6
 518.754 201.714 l 5
 435.326 201.714 l 5
 435.326 0.771484 l 5
 310.223 0.771484 l 5
 310.223 201.714 l 5
 74.9219 201.714 l 6
 44.0439 201.714 22.9336 229.478 22.9336 258.285 c 4
 22.9336 267.36 25.085 278.897 32.0469 288.675 c 6
 313.257 683.568 l 6
 329.015 703.115 352.062 715.223 375.726 715.234 c 4
 409.479 715.251 435.326 690.225 435.326 657.745 c 6
310.223 291.02 m 5
 310.223 528.668 l 5
 142.937 291.02 l 5
 310.223 291.02 l 5
EndSplineSet
EndChar

StartChar: five
Encoding: 53 53 67
Width: 551
VWidth: 33
Flags: W
HStem: -0.481445 101.849<60.0283 362.761> 302.836 106.086<151.534 362.816> 593.507 101.849<152.091 426.87>
VStem: 40.8838 110.65<408.922 593.507> 366.279 110.649<109.186 119.53 119.53 299.713>
LayerCount: 3
Back
SplineSet
462 125 m 2
 462 259 l 2
 462 275 459 290.5 453 305.5 c 128
 447 320.5 438.5 333.833 427.5 345.5 c 128
 416.5 357.167 403.333 366.5 388 373.5 c 128
 372.667 380.5 355.667 384 337 384 c 2
 175 384 l 1
 175 584 l 1
 435 584 l 1
 435 638 l 2
 435 647.333 432.167 656 426.5 664 c 128
 420.833 672 411.333 676 398 676 c 2
 111 676 l 2
 99.6667 676 90.3333 671.833 83 663.5 c 128
 75.6667 655.167 72 646.333 72 637 c 2
 72 292 l 1
 314 292 l 2
 329.333 292 340.667 287.167 348 277.5 c 128
 355.333 267.833 359 258 359 248 c 2
 359 137 l 2
 359 124.333 354.667 113.667 346 105 c 128
 337.333 96.3333 326.667 92 314 92 c 2
 57 92 l 1
 57 36 l 2
 57 24.6667 60.8333 15.8333 68.5 9.5 c 128
 76.1667 3.16667 85.6667 7.94729e-08 97 0 c 2
 337 0 l 2
 354.333 0 370.5 3.33333 385.5 10 c 128
 400.5 16.6667 413.667 25.6667 425 37 c 128
 436.333 48.3333 445.333 61.5 452 76.5 c 128
 458.667 91.5 462 107.667 462 125 c 2
EndSplineSet
Fore
SplineSet
159.25 695.355 m 6
 370.118 695.355 l 6
 398.897 695.355 444.988 685.1 453.946 609.603 c 6
 455.855 593.507 l 5
 151.534 593.507 l 5
 151.534 408.922 l 1
 336.355 408.922 l 2
 435.865 408.922 476.929 354.381 476.929 274.429 c 2
 476.929 117.771 l 2
 476.929 41.1201 433.851 -0.481445 345.947 -0.481445 c 2
 110.73 -0.481445 l 2
 72.1914 -0.481445 44.3438 22.2246 38.3076 85.6025 c 2
 36.8066 101.367 l 1
 345.947 101.367 l 2
 347.919 101.511 357.832 103.332 363.007 109.129 c 0
 363.973 110.336 364.733 111.643 365.308 113.27 c 0
 365.88 114.895 366.279 116.875 366.279 119.53 c 2
 366.279 285.552 l 2
 366.279 296.28 357.468 302.836 345.947 302.836 c 2
 40.8838 302.836 l 1
 40.8857 600.137 l 6
 41.9316 650.355 81.709 695.355 159.25 695.355 c 6
EndSplineSet
EndChar

StartChar: six
Encoding: 54 54 68
Width: 564
VWidth: 14
Flags: W
HStem: 1.83398 120.477<145.122 388.505> 361.543 113.145<143.157 390.171> 592.656 104.892<145.068 441.707>
VStem: 29.6055 113.141<124.075 150.082 150.082 361.517 473.082 590.79> 391.193 114.062<124.003 359.895>
LayerCount: 3
Back
SplineSet
472 125 m 2
 472 260 l 2
 472 276 468.833 291.5 462.5 306.5 c 128
 456.167 321.5 447.5 334.833 436.5 346.5 c 128
 425.5 358.167 412.333 367.333 397 374 c 128
 381.667 380.667 365.333 384 348 384 c 2
 238 384 l 2
 222 384 208.333 380.833 197 374.5 c 128
 185.667 368.167 176.667 361.333 170 354 c 1
 170 539 l 2
 170 553.667 174.833 564.833 184.5 572.5 c 128
 194.167 580.167 204.333 584 215 584 c 2
 433 584 l 1
 433 637 l 2
 433 648.333 429.667 657.667 423 665 c 128
 416.333 672.333 406.667 676 394 676 c 2
 192 676 l 2
 174 676 157.333 672.667 142 666 c 128
 126.667 659.333 113.5 650.167 102.5 638.5 c 128
 91.5 626.833 82.8333 613.5 76.5 598.5 c 128
 70.1667 583.5 67 567.667 67 551 c 2
 67 125 l 2
 67 107 70.5 90.3333 77.5 75 c 128
 84.5 59.6667 93.8333 46.5 105.5 35.5 c 128
 117.167 24.5 130.333 15.8333 145 9.5 c 128
 159.667 3.16667 174.667 7.94729e-08 190 0 c 2
 348 0 l 2
 368 0 385.667 3.83333 401 11.5 c 128
 416.333 19.1667 429.333 29.1667 440 41.5 c 128
 450.667 53.8333 458.667 67.3333 464 82 c 128
 469.333 96.6667 472 111 472 125 c 2
369 142 m 2
 369 128 364.167 116.167 354.5 106.5 c 128
 344.833 96.8333 333 92 319 92 c 2
 220 92 l 2
 206 92 194.167 96.8333 184.5 106.5 c 128
 174.833 116.167 170 128 170 142 c 2
 170 242 l 2
 170 256 174.833 267.833 184.5 277.5 c 128
 194.167 287.167 206 292 220 292 c 2
 319 292 l 2
 333 292 344.833 287.167 354.5 277.5 c 128
 364.167 267.833 369 256 369 242 c 2
 369 142 l 2
EndSplineSet
Fore
SplineSet
367.15 361.543 m 6
 165.631 361.543 l 6
 153.41 361.543 142.747 352.634 142.747 342.022 c 6
 142.747 143.663 l 2
 142.747 130.852 156.367 122.311 165.631 122.311 c 2
 367.15 122.311 l 2
 380.805 122.311 391.193 132.222 391.193 143.663 c 2
 391.193 342.022 l 6
 391.193 357.639 374.616 361.543 367.15 361.543 c 6
353.648 474.688 m 6
 444.711 474.688 505.255 423.09 505.255 345.691 c 6
 505.255 150.082 l 2
 505.255 68.8359 439.362 1.83398 353.648 1.83398 c 2
 180.173 1.83398 l 2
 93.6562 1.83398 29.6055 69.1113 29.6055 150.082 c 2
 29.6055 564.885 l 2
 29.6055 647.458 81.2822 697.548 159.399 697.548 c 2
 394.593 697.548 l 2
 453.662 697.548 465.305 630.407 468.43 609.15 c 2
 470.854 592.656 l 1
 165.631 592.656 l 2
 151.736 592.656 142.747 580.944 142.747 573.136 c 2
 142.747 473.082 l 5
 151.438 474.102 163.304 474.688 180.173 474.688 c 6
 353.648 474.688 l 6
EndSplineSet
EndChar

StartChar: nine
Encoding: 57 57 69
Width: 553
VWidth: 14
Flags: W
HStem: 0.773438 113.145<81.2243 375.965> 255.468 113.144<133.957 379.102> 583.011 114.978<134.238 375.869>
VStem: 16.7705 114.978<369.729 391.8 391.8 579.692> 379.277 114.059<117.386 260.107 368.636 579.692>
LayerCount: 3
Back
SplineSet
452 125 m 2
 452 551 l 2
 452 569 448.5 585.667 441.5 601 c 128
 434.5 616.333 425.333 629.5 414 640.5 c 128
 402.667 651.5 389.5 660.167 374.5 666.5 c 128
 359.5 672.833 344.333 676 329 676 c 2
 171 676 l 2
 151 676 133.333 672.167 118 664.5 c 128
 102.667 656.833 89.6667 646.833 79 634.5 c 128
 68.3333 622.167 60.3333 608.667 55 594 c 128
 49.6667 579.333 47 565 47 551 c 2
 47 416 l 2
 47 400 50.1667 384.5 56.5 369.5 c 128
 62.8333 354.5 71.5 341.167 82.5 329.5 c 128
 93.5 317.833 106.667 308.667 122 302 c 128
 137.333 295.333 153.667 292 171 292 c 2
 281 292 l 2
 297.667 292 311.5 295.167 322.5 301.5 c 128
 333.5 307.833 342.333 314.667 349 322 c 1
 349 137 l 2
 349 122.333 344.333 111.167 335 103.5 c 128
 325.667 95.8333 315.333 92 304 92 c 2
 94 92 l 1
 94 45 l 2
 94 33.6667 98.8333 23.3333 108.5 14 c 128
 118.167 4.66667 129.333 -1.58946e-07 142 0 c 2
 327 0 l 2
 345 0 361.667 3.33333 377 10 c 128
 392.333 16.6667 405.5 25.8333 416.5 37.5 c 128
 427.5 49.1667 436.167 62.5 442.5 77.5 c 128
 448.833 92.5 452 108.333 452 125 c 2
349 434 m 2
 349 420 344.167 408.167 334.5 398.5 c 128
 324.833 388.833 313 384 299 384 c 2
 200 384 l 2
 186 384 174.167 388.833 164.5 398.5 c 128
 154.833 408.167 150 420 150 434 c 2
 150 534 l 2
 150 548 154.833 559.833 164.5 569.5 c 128
 174.167 579.167 186 584 200 584 c 2
 299 584 l 2
 313 584 324.833 579.167 334.5 569.5 c 128
 344.167 559.833 349 548 349 534 c 2
 349 434 l 2
EndSplineSet
Fore
SplineSet
131.748 388.132 m 6
 131.748 376.429 140.602 368.611 153.825 368.611 c 6
 356.283 368.611 l 6
 369.742 368.611 379.277 377.031 379.277 388.132 c 6
 379.277 563.491 l 6
 379.277 574.622 369.737 583.011 356.283 583.011 c 6
 153.825 583.011 l 6
 140.57 583.011 131.748 575.166 131.748 563.491 c 6
 131.748 388.132 l 6
127.432 0.773438 m 2
 69.917 0.773438 57.6074 67.7256 53.5703 97.5889 c 2
 51.3633 113.918 l 1
 356.283 113.918 l 2
 370.17 113.918 379.277 126.18 379.277 134.355 c 2
 379.277 260.107 l 5
 368.025 258.38 l 6
 359.967 257.489 351.485 255.468 340.708 255.468 c 6
 169.399 255.468 l 6
 81.9824 255.468 16.7705 310.841 16.7705 391.8 c 6
 16.7705 549.74 l 6
 16.7705 631.874 82.8848 697.988 169.399 697.988 c 6
 340.708 697.988 l 6
 427.223 697.988 493.336 631.874 493.336 549.74 c 6
 493.336 132.521 l 2
 493.336 49.6533 440.417 0.773438 361.475 0.773438 c 2
 127.432 0.773438 l 2
EndSplineSet
EndChar

StartChar: zero
Encoding: 48 48 70
Width: 524
VWidth: 14
Flags: W
HStem: 0.916016 114.062<161.497 354.107> 304 80<226.378 297.622> 580.378 114.976<161.599 357.263>
VStem: 47.4375 114.06<115.037 579.744> 222 80<308.378 379.622> 357.271 113.145<115.084 580.322>
LayerCount: 3
Back
SplineSet
462 125 m 2
 462 551 l 2
 462 568.333 458.667 584.5 452 599.5 c 128
 445.333 614.5 436.333 627.667 425 639 c 128
 413.667 650.333 400.5 659.333 385.5 666 c 128
 370.5 672.667 354.333 676 337 676 c 2
 182 676 l 2
 164.667 676 148.5 672.667 133.5 666 c 128
 118.5 659.333 105.333 650.333 94 639 c 128
 82.6667 627.667 73.6667 614.5 67 599.5 c 128
 60.3333 584.5 57 568.333 57 551 c 2
 57 125 l 2
 57 107.667 60.3333 91.5 67 76.5 c 128
 73.6667 61.5 82.6667 48.3333 94 37 c 128
 105.333 25.6667 118.5 16.6667 133.5 10 c 128
 148.5 3.33333 164.667 -7.94729e-08 182 0 c 2
 337 0 l 2
 354.333 0 370.5 3.33333 385.5 10 c 128
 400.5 16.6667 413.667 25.6667 425 37 c 128
 436.333 48.3333 445.333 61.5 452 76.5 c 128
 458.667 91.5 462 107.667 462 125 c 2
359 137 m 2
 359 124.333 354.667 113.667 346 105 c 128
 337.333 96.3333 326.667 92 314 92 c 2
 205 92 l 2
 192.333 92 181.667 96.3333 173 105 c 128
 164.333 113.667 160 124.333 160 137 c 2
 160 539 l 2
 160 551.667 164.333 562.333 173 571 c 128
 181.667 579.667 192.333 584 205 584 c 2
 314 584 l 2
 326.667 584 337.333 579.667 346 571 c 128
 354.667 562.333 359 551.667 359 539 c 2
 359 137 l 2
EndSplineSet
Fore
SplineSet
222 344 m 0
 222 366.08 239.92 384 262 384 c 0
 284.08 384 302 366.08 302 344 c 0
 302 321.92 284.08 304 262 304 c 0
 239.92 304 222 321.92 222 344 c 0
333.697 580.378 m 2
 185.229 580.378 l 2
 171.388 580.378 161.497 572.32 161.497 559.94 c 2
 161.497 135.415 l 2
 161.497 124.093 171.984 114.978 185.229 114.978 c 2
 333.697 114.978 l 2
 345.66 114.979 357.271 124.59 357.271 135.415 c 2
 357.271 559.94 l 2
 357.271 571.867 346.27 580.378 333.697 580.378 c 2
470.416 148.249 m 2
 470.416 67.2275 406.218 0.916016 318.672 0.916016 c 2
 135.179 0.916016 l 2
 104.425 0.916016 47.4375 44.2383 47.4375 87.7422 c 2
 47.4375 546.188 l 2
 47.4375 628.148 112.535 695.354 201.327 695.354 c 2
 408.343 695.354 l 2
 445.591 695.354 470.276 657.2 470.416 619.558 c 2
 470.416 148.249 l 2
EndSplineSet
EndChar

StartChar: seven
Encoding: 55 55 71
Width: 528
VWidth: 14
Flags: W
HStem: 0.908203 21G<119.868 247.394> 583.228 114.06<24.2215 352.847>
LayerCount: 3
Back
SplineSet
473 628 m 2
 473 639 l 2
 473 650.333 469.5 659.333 462.5 666 c 128
 455.5 672.667 446 676 434 676 c 2
 93 676 l 2
 81.6667 676 72.3333 672.167 65 664.5 c 128
 57.6667 656.833 54 647.333 54 636 c 2
 54 584 l 1
 353 584 l 1
 147 59 l 2
 143 49 143.333 38.6667 148 28 c 128
 152.667 17.3333 160 10.3333 170 7 c 2
 189 0 l 2
 199.667 -4 209.667 -4.16667 219 -0.5 c 128
 228.333 3.16667 235.333 10.6667 240 22 c 2
 464 596 l 2
 465.333 598.667 467.167 603.333 469.5 610 c 128
 471.833 616.667 473 622.667 473 628 c 2
EndSplineSet
Fore
SplineSet
431.265 697.287 m 6
 465.208 697.287 487.837 670.05 487.837 639.799 c 6
 487.837 610.463 l 6
 487.837 602.807 487.826 590.765 482.336 577.233 c 5
 482.336 576.963 l 5
 287.499 27.8789 l 1
 286.805 26.7461 l 2
 277.399 11.4141 257.247 0.908203 237.541 0.908203 c 2
 119.868 0.908203 l 1
 352.847 583.228 l 5
 -2.7627 583.228 l 5
 -1.51855 598.775 l 6
 4.82422 678.05 40.6475 697.287 68.7578 697.287 c 6
 431.265 697.287 l 6
EndSplineSet
EndChar

StartChar: eight
Encoding: 56 56 72
Width: 537
VWidth: 14
Flags: W
HStem: 1.83398 120.477<141.538 366.291> 329.123 84.723<159.318 347.12> 586.82 111.31<161.701 345.61>
VStem: 23.1875 114.977<123.994 329.08> 42.4395 116.659<414.633 584.982> 347.344 116.657<414.781 584.832> 368.275 114.978<124.003 328.515>
LayerCount: 3
Back
SplineSet
462 125 m 2
 462 255 l 2
 462 262.333 460.333 270.333 457 279 c 128
 453.667 287.667 448.833 296 442.5 304 c 128
 436.167 312 428.667 319.167 420 325.5 c 128
 411.333 331.833 401.333 336.333 390 339 c 1
 390 342 l 1
 400.667 344 409.833 348.333 417.5 355 c 128
 425.167 361.667 431.667 369.167 437 377.5 c 128
 442.333 385.833 446.333 394.5 449 403.5 c 128
 451.667 412.5 453 420 453 426 c 2
 453 551 l 2
 453 568.333 449.667 584.5 443 599.5 c 128
 436.333 614.5 427.333 627.667 416 639 c 128
 404.667 650.333 391.5 659.333 376.5 666 c 128
 361.5 672.667 345.333 676 328 676 c 2
 191 676 l 2
 173.667 676 157.5 672.667 142.5 666 c 128
 127.5 659.333 114.333 650.333 103 639 c 128
 91.6667 627.667 82.6667 614.5 76 599.5 c 128
 69.3333 584.5 66 568.333 66 551 c 2
 66 426 l 2
 66 420 67.3333 412.5 70 403.5 c 128
 72.6667 394.5 76.6667 385.833 82 377.5 c 128
 87.3333 369.167 93.8333 361.667 101.5 355 c 128
 109.167 348.333 118.333 344 129 342 c 1
 129 339 l 1
 118.333 336.333 108.5 331.833 99.5 325.5 c 128
 90.5 319.167 82.8333 312 76.5 304 c 128
 70.1667 296 65.3333 287.667 62 279 c 128
 58.6667 270.333 57 262.333 57 255 c 2
 57 125 l 2
 57 107.667 60.3333 91.5 67 76.5 c 128
 73.6667 61.5 82.6667 48.3333 94 37 c 128
 105.333 25.6667 118.5 16.6667 133.5 10 c 128
 148.5 3.33333 164.667 -7.94729e-08 182 0 c 2
 337 0 l 2
 354.333 0 370.5 3.33333 385.5 10 c 128
 400.5 16.6667 413.667 25.6667 425 37 c 128
 436.333 48.3333 445.333 61.5 452 76.5 c 128
 458.667 91.5 462 107.667 462 125 c 2
350 429 m 2
 350 416.333 345.667 405.667 337 397 c 128
 328.333 388.333 317.667 384 305 384 c 2
 214 384 l 2
 201.333 384 190.667 388.333 182 397 c 128
 173.333 405.667 169 416.333 169 429 c 2
 169 539 l 2
 169 551.667 173.333 562.333 182 571 c 128
 190.667 579.667 201.333 584 214 584 c 2
 305 584 l 2
 317.667 584 328.333 579.667 337 571 c 128
 345.667 562.333 350 551.667 350 539 c 2
 350 429 l 2
359 137 m 2
 359 124.333 354.667 113.667 346 105 c 128
 337.333 96.3333 326.667 92 314 92 c 2
 205 92 l 2
 192.333 92 181.667 96.3333 173 105 c 128
 164.333 113.667 160 124.333 160 137 c 2
 160 247 l 2
 160 259.667 164.333 270.333 173 279 c 128
 181.667 287.667 192.333 292 205 292 c 2
 314 292 l 2
 326.667 292 337.333 287.667 346 279 c 128
 354.667 270.333 359 259.667 359 247 c 2
 359 137 l 2
EndSplineSet
Fore
SplineSet
309.3 698.13 m 6xe8
 399.144 698.13 464.001 643.965 464.001 562.717 c 6
 464.001 471.871 l 2xec
 464.001 437.571 452.551 406.559 433.402 381.362 c 2
 426.987 373.514 l 1
 435.67 367.957 l 2
 464.088 353.355 483.253 319.956 483.253 284.848 c 2
 483.253 150.082 l 2
 483.253 68.8359 417.36 1.83398 331.312 1.83398 c 2
 177.224 1.83398 l 2
 89.2666 1.83398 23.1875 68.8018 23.1875 150.082 c 2
 23.1875 284.848 l 2xf2
 23.1875 318.199 41.9355 352.967 70.7305 367.896 c 2
 79.4531 373.514 l 1
 72.9277 381.511 l 2
 55.0361 406.361 42.4395 437.254 42.4395 471.871 c 2
 42.4395 562.717 l 6
 42.4395 644.614 107.955 698.13 198.188 698.13 c 6
 309.3 698.13 l 6xe8
347.344 567.3 m 6
 347.344 577.331 336.988 586.82 323.976 586.82 c 6
 183.514 586.82 l 6
 169.049 586.82 159.098 577.254 159.098 567.3 c 6
 159.098 434.283 l 2
 159.098 424.124 169.679 413.846 183.514 413.846 c 2
 323.976 413.846 l 2
 336.353 413.846 347.344 424.047 347.344 434.283 c 2
 347.344 567.3 l 6
368.275 308.685 m 2xf2
 368.275 319.473 358.122 329.123 345.988 329.123 c 2
 160.452 329.123 l 2
 148.292 329.123 138.165 319.494 138.165 308.685 c 2
 138.165 143.664 l 2
 138.165 131.608 148.398 122.311 160.452 122.311 c 2
 345.988 122.311 l 2
 358.079 122.311 368.275 131.591 368.275 143.664 c 2
 368.275 308.685 l 2xf2
EndSplineSet
EndChar

StartChar: acute
Encoding: 180 180 73
Width: 426
VWidth: 14
Flags: W
HStem: 548.84 208.891
VStem: 54.7627 256.077
LayerCount: 3
Fore
SplineSet
110.479 551.36 m 2
 107.516 549.487 103.466 548.84 98.791 548.84 c 0
 87.6348 548.84 78.2197 554.74 71.9053 563.16 c 2
 54.7627 586.02 l 1
 223.062 743.999 l 2
 232.686 750.79 246.281 757.731 261.761 757.731 c 0
 291.589 757.731 310.84 732.312 310.84 706.77 c 0
 310.84 687.146 299.019 666.428 275.837 655.872 c 2
 110.479 551.36 l 2
EndSplineSet
EndChar

StartChar: dieresis
Encoding: 168 168 75
Width: 422
VWidth: 14
Flags: W
HStem: 563.308 135.145<41.3102 142.268 241.489 343.054>
VStem: 23.1104 141.13<584.195 677.136> 219.359 142.379<585.224 676.073>
LayerCount: 3
Fore
SplineSet
89.7666 563.308 m 0
 52.3857 563.308 23.1104 593.72 23.1104 629.964 c 0
 23.1104 667.579 52.3076 698.453 89.7666 698.453 c 0
 127.106 698.453 164.24 667.938 164.24 629.964 c 0
 164.24 593.345 127.018 563.308 89.7666 563.308 c 0
294.164 563.308 m 0
 256.912 563.308 219.359 593.348 219.359 629.964 c 0
 219.359 667.942 256.832 698.453 294.164 698.453 c 0
 331.503 698.453 361.738 667.938 361.738 629.964 c 0
 361.738 593.344 331.415 563.308 294.164 563.308 c 0
EndSplineSet
EndChar

StartChar: dotlessi
Encoding: 305 305 76
Width: 312
VWidth: 14
Flags: W
VStem: 57.6445 114.979<1.79883 472.387>
LayerCount: 3
Fore
SplineSet
172.623 428.749 m 2
 172.623 1.79883 l 1
 57.6445 1.79883 l 1
 57.6445 428.749 l 2
 57.6445 459.946 83.7158 485.32 116.051 485.32 c 0
 150.701 485.32 172.623 454.736 172.623 428.749 c 2
EndSplineSet
EndChar

StartChar: caron
Encoding: 711 711 77
Width: 494
VWidth: 14
Flags: W
HStem: 555.753 194.213
LayerCount: 3
Fore
SplineSet
200.31 566.738 m 2
 35.46 711.594 l 1
 46.7109 734.093 l 1
 51.9688 741.055 51.7236 741.88 56.4434 744.963 c 0
 62.2246 748.738 68.5791 749.966 73.793 749.966 c 0
 78.1709 749.966 82.582 749.138 86.8203 747.486 c 2
 88.0664 747.001 l 1
 234.199 664.839 l 1
 380.603 746.315 l 1
 387.163 749.178 387.224 749.722 391.86 750.344 c 0
 392.508 750.432 394.438 750.603 395.73 750.603 c 0
 405.956 750.603 415.77 745.151 421.509 736.141 c 2
 435.916 712.136 l 1
 267.943 566.674 l 2
 258.36 559.395 246.161 555.753 234.122 555.753 c 0
 221.996 555.753 209.78 559.439 200.31 566.738 c 2
EndSplineSet
EndChar

StartChar: ring
Encoding: 730 730 79
Width: 384
VWidth: 14
Flags: W
HStem: 550.982 63.637<157.654 229.226> 695.834 61.803<157.993 228.886>
VStem: 90.1123 62.7207<619.39 690.604> 234.046 62.721<619.391 690.603>
LayerCount: 3
Fore
SplineSet
193.44 550.982 m 0
 136.736 550.982 90.1123 597.773 90.1123 655.227 c 0
 90.1123 711.981 136.98 757.637 193.44 757.637 c 0
 249.899 757.637 296.767 711.979 296.767 655.227 c 0
 296.767 597.773 250.142 550.982 193.44 550.982 c 0
234.046 655.227 m 0
 234.046 676.451 215.383 695.834 193.44 695.834 c 0
 171.496 695.834 152.833 676.456 152.833 655.227 c 0
 152.833 631.944 170.874 614.619 193.44 614.619 c 0
 216.011 614.619 234.046 631.954 234.046 655.227 c 0
EndSplineSet
EndChar

StartChar: breve
Encoding: 728 728 80
Width: 557
VWidth: 14
Flags: W
HStem: 561.066 90.226<195.774 334.067>
LayerCount: 3
Fore
SplineSet
143.188 724.927 m 0
 177.925 689.244 199.082 651.292 265.425 651.292 c 0
 330.081 651.292 355.219 690.098 386.716 724.535 c 2
 387.74 725.655 l 1
 388.977 726.537 l 2
 396.135 731.648 406.648 735.634 418.43 735.634 c 0
 423.643 735.634 428.106 734.372 432.714 733.605 c 2
 444.748 731.602 l 1
 444.748 725.315 l 1
 461.374 713.224 l 1
 454.626 701.93 l 2
 409.772 626.867 362.461 561.066 265.425 561.066 c 0
 178.826 561.066 121.911 615.795 77.0479 702.712 c 2
 71.3789 713.694 l 1
 89.3955 726.794 l 1
 90.2695 728.026 91.1309 729.133 91.5742 729.577 c 2
 95.793 733.801 l 1
 101.762 733.801 l 1
 105.028 734.649 109.394 735.807 113.681 735.634 c 0
 120.868 735.344 124.824 734.858 131.464 732.295 c 0
 136.499 730.351 140.378 727.813 143.188 724.927 c 0
445.648 718.483 m 1
 444.748 720.25 l 1
 444.748 719.401 l 2
 444.748 718.624 435.098 728.928 432.147 732.068 c 1
 417.782 718.483 l 1
 445.648 718.483 l 1
EndSplineSet
EndChar

StartChar: periodcentered
Encoding: 183 183 82
Width: 273
VWidth: 14
Flags: W
HStem: 317.852 134.767<89.7613 186.772>
VStem: 71.5088 133.848<336.438 433.597>
LayerCount: 3
Fore
SplineSet
205.357 384.778 m 4
 205.357 348.106 175.104 317.852 138.434 317.852 c 4
 100.845 317.852 71.5088 348.106 71.5088 384.778 c 4
 71.5088 421.449 100.845 452.619 138.434 452.619 c 4
 175.104 452.619 205.357 421.449 205.357 384.778 c 4
EndSplineSet
EndChar

StartChar: parenleft
Encoding: 40 40 84
Width: 295
VWidth: 0
Flags: W
VStem: 80.4502 119.412<-87.55 -33.1504 -33.1504 574.28 574.28 628.677>
LayerCount: 3
Back
SplineSet
263.682 734.376 m 4
 265.592 734.376 269.412 733.42 269.412 733.42 c 6
 280.871 730.556 286.602 723.871 286.602 717.187 c 4
 286.602 715.276 285.646 711.456 283.736 706.682 c 5
 204.473 625.509 l 5
 203.52 622.644 l 6
 190.148 602.589 181.555 591.13 181.555 561.525 c 4
 181.555 558.66 181.555 555.796 181.555 554.84 c 6
 181.555 545.29 l 5
 181.555 -27.6943 l 5
 181.555 -37.2441 l 6
 181.555 -38.1992 181.555 -40.1094 181.555 -42.9736 c 4
 181.555 -66.8477 187.284 -80.2188 203.52 -105.047 c 6
 204.473 -106.957 l 5
 283.736 -189.085 l 5
 285.646 -192.905 286.602 -196.725 286.602 -199.591 c 4
 285.646 -211.049 273.232 -214.869 267.502 -214.869 c 4
 266.547 -215.823 267.502 -215.823 263.682 -215.823 c 4
 256.997 -215.823 244.582 -214.869 231.214 -199.591 c 6
 231.214 -198.635 l 5
 113.751 -90.7227 l 6
 98.4707 -75.4434 95.6064 -57.2979 95.6064 -37.2441 c 6
 95.6064 554.84 l 6
 95.6064 574.896 98.4707 593.039 113.751 609.274 c 6
 231.214 716.231 l 5
 231.214 717.187 l 6
 240.764 726.736 250.312 734.376 263.682 734.376 c 4
181.555 -27.6943 m 5
 181.555 -37.2441 l 5
 206.383 -13.3701 l 5
 183.465 -13.3701 l 5
 181.555 -27.6943 l 5
181.555 545.29 m 5
 183.465 530.966 l 5
 206.383 530.966 l 5
 181.555 554.84 l 5
 181.555 545.29 l 5
EndSplineSet
Fore
SplineSet
251.449 754.43 m 4
 274.118 754.073 293.219 738.402 293.219 718.134 c 4
 293.219 711.04 290.878 703.383 285.531 695.624 c 5
 215.433 623.004 l 5
 203.185 604.631 199.862 597.485 199.862 579.083 c 4
 199.862 577.562 199.886 575.966 199.928 574.28 c 5
 200.135 574.28 l 5
 200.135 -33.1504 l 1
 199.928 -33.1504 l 1
 199.886 -34.8359 199.862 -36.4326 199.862 -37.9531 c 0
 199.862 -56.3535 203.185 -63.501 215.433 -81.874 c 1
 285.531 -154.527 l 1
 290.878 -162.287 293.218 -169.944 293.218 -177.036 c 0
 293.218 -197.538 273.668 -213.337 250.656 -213.337 c 0
 235.922 -213.337 219.77 -206.86 206.42 -190.992 c 2
 102.964 -96.1006 l 2
 84.1797 -77.8682 80.4502 -57.5156 80.4502 -33.1504 c 2
 80.4502 574.28 l 6
 80.4502 598.646 84.1797 618.964 102.964 637.196 c 6
 206.42 732.088 l 6
 219.771 747.957 235.925 754.43 250.662 754.43 c 4
 251.449 754.43 l 4
EndSplineSet
EndChar

StartChar: cedilla
Encoding: 184 184 210
Width: 462
VWidth: 14
Flags: W
HStem: -207.242 80.191<138.139 223.177> -89.8945 118.694<121.234 175.68> -89.8945 71.9287<175.68 223.554>
VStem: 101.904 73.776<-17.9658 28.7998> 223.836 73.774<-125.809 -90.4528>
LayerCount: 3
Fore
SplineSet
297.61 -97.0137 m 2xd8
 297.61 -119.017 l 2
 297.61 -167.77 264.152 -207.242 213.967 -207.242 c 0
 192.208 -207.242 145.657 -191.06 105.172 -170.379 c 2
 97.3223 -166.37 l 1
 97.3223 -127.051 l 1
 223.226 -127.093 l 1
 223.369 -126.978 223.836 -126.405 223.836 -125.434 c 2
 223.836 -90.5967 l 2
 223.836 -90.2354 223.516 -89.8945 223.135 -89.8945 c 2xb8
 170.88 -89.8945 l 2
 140.238 -89.8945 101.904 -63.8555 101.904 -22.7549 c 2
 101.904 28.7998 l 1
 175.68 28.7998 l 1
 175.68 -17.9658 l 1
 214.025 -17.9971 l 2
 266.155 -18.0391 297.61 -49.6045 297.61 -97.0137 c 2xd8
EndSplineSet
EndChar

StartChar: Ccedilla
Encoding: 199 199 211
Width: 605
VWidth: 14
Flags: W
HStem: -219.697 78.9971<269.083 394.278> -103.728 85.9854<357.194 393.652> -4.06738 134.783<217.573 256.872 357.194 539.875> 573.965 132.973<217.646 531.845>
VStem: 81.3125 134.991<133.792 571.606> 394.069 96.5654<-139.8 -104.17>
LayerCount: 3
Fore
SplineSet
259.466 -140.7 m 1
 391.781 -140.709 l 1
 391.781 -140.709 392.278 -140.722 392.345 -140.722 c 0
 393.221 -140.722 394.043 -139.506 394.069 -137.22 c 2
 394.403 -107.793 l 2
 394.403 -107.74 394.408 -107.657 394.404 -107.604 c 0
 394.246 -105.771 394.129 -104.874 393.677 -104.136 c 1
 393.119 -103.847 393.95 -103.728 390.66 -103.728 c 2
 355.765 -103.728 l 2
 310.714 -101.893 274.885 -81.25 262.76 -60.7217 c 0
 259.149 -54.6084 256.872 -47.4834 256.872 -39.9619 c 2
 256.872 -4.06738 l 1
 242.793 -4.06738 l 2
 150.893 -4.06738 81.3125 66.6172 81.3125 153.925 c 2
 81.3125 551.661 l 2
 81.3125 638.264 151.208 706.938 242.793 706.938 c 2
 476.697 706.938 l 2
 533.889 706.938 564.818 652.251 571.97 602.201 c 2
 577.105 573.965 l 1
 228.316 573.965 l 2
 221.698 573.965 216.304 570.144 216.304 564.347 c 2
 216.304 140.335 l 2
 216.304 135.992 221.615 130.716 228.316 130.716 c 2
 587.705 130.716 l 1
 582.822 101.451 l 2
 575.404 58.7969 545.441 -4.06738 489.382 -4.06738 c 2
 357.194 -4.06738 l 1
 357.194 -18.6045 l 1
 366.432 -18.4248 398.406 -17.7422 404.365 -17.7422 c 0
 468.12 -17.7422 490.635 -75.4434 490.635 -113.347 c 2
 490.635 -135.091 l 2
 490.635 -185.854 458.58 -219.697 404.365 -219.697 c 0
 399.908 -219.697 306.331 -220.346 267.21 -196.615 c 2
 259.466 -191.918 l 1
 259.466 -140.7 l 1
EndSplineSet
EndChar

StartChar: ccedilla
Encoding: 231 231 212
Width: 593
VWidth: 14
Flags: W
HStem: -207.242 80.191<278.747 376.282> -89.8945 71.9287<321.916 376.669> -0.0117188 115.906<195.994 237.08 321.916 489.143> 380.462 112.226<196.899 490.237>
VStem: 79.1113 114.977<117.236 380.143> 377.29 78.721<-125.809 -90.4528>
LayerCount: 3
Fore
SplineSet
321.916 -17.9658 m 1
 366.01 -17.9971 l 2
 424.556 -18.0391 456.011 -49.6045 456.011 -97.0137 c 2
 456.011 -119.017 l 2
 456.011 -167.77 422.553 -207.242 365.941 -207.242 c 0
 340.922 -207.242 287.393 -191.06 240.837 -170.379 c 2
 231.811 -166.37 l 1
 231.811 -127.051 l 1
 376.588 -127.093 l 1
 376.753 -126.978 377.29 -126.405 377.29 -125.434 c 2
 377.29 -90.5967 l 2
 377.29 -90.2354 376.923 -89.8945 376.484 -89.8945 c 2
 316.396 -89.8945 l 2
 281.16 -89.8945 237.08 -63.8555 237.08 -22.7549 c 2
 237.08 -0.0673828 l 1
 232.02 -0.0810547 l 2
 129.427 3.86523 79.1113 69.9258 79.1113 150.082 c 2
 79.1113 346.273 l 2
 79.1113 429.716 132.192 492.688 238.642 492.688 c 2
 434.016 492.688 l 2
 489.794 492.688 517.1 447.074 526.979 397.686 c 2
 530.425 380.462 l 1
 217.558 380.462 l 2
 203.237 380.462 194.088 371.482 194.088 360.941 c 2
 194.088 135.415 l 2
 194.088 123.702 203.456 115.894 217.558 115.894 c 2
 530.425 115.894 l 1
 526.979 98.6689 l 2
 520.669 67.1201 500.249 -0.0859375 434.011 -0.0859375 c 2
 321.916 -0.0117188 l 1
 321.916 -17.9658 l 1
EndSplineSet
EndChar

StartChar: numbersign
Encoding: 35 35 213
Width: 599
VWidth: 0
Flags: W
HStem: 0 21G<83.8076 163.064 351.747 384.064> 190.06 86.19<36.5088 110.801 243.851 331.801 464.851 539.122> 377.91 86.19<61.544 135.837 268.886 356.837 489.886 564.178>
VStem: 165.947 122.074<551.221 603.744 603.744 643.596>
LayerCount: 3
Fore
SplineSet
234.63 663 m 0
 265.595 663 288.021 640.643 288.021 611.521 c 0
 288.021 608.977 287.849 606.383 287.497 603.744 c 2
 268.886 464.1 l 1
 368.336 464.1 l 1
 386.947 603.744 l 2
 391.324 636.565 421.961 663 455.63 663 c 2
 516.542 663 l 1
 489.886 464.1 l 1
 535.19 464.1 l 2
 557.148 464.1 573.062 448.239 573.062 427.588 c 0
 573.062 425.784 572.939 423.944 572.691 422.076 c 2
 572.381 419.934 l 2
 569.277 396.662 547.565 377.91 523.691 377.91 c 2
 478.387 377.91 l 1
 464.851 276.25 l 1
 510.155 276.25 l 2
 532.111 276.25 547.992 260.394 547.992 239.747 c 0
 547.992 237.941 547.873 236.098 547.622 234.226 c 2
 547.346 232.084 l 2
 544.241 208.812 522.53 190.06 498.655 190.06 c 2
 453.351 190.06 l 1
 435.912 59.2559 l 2
 431.536 26.4346 400.899 0 367.229 0 c 0
 336.265 0 313.841 22.3584 313.841 51.4795 c 0
 313.841 54.0234 314.012 56.6182 314.362 59.2559 c 2
 331.801 190.06 l 1
 232.351 190.06 l 1
 214.912 59.2559 l 2
 210.536 26.4346 179.899 0 146.229 0 c 2
 83.8076 0 l 1
 110.801 190.06 l 1
 65.4961 190.06 l 2
 43.5381 190.06 27.625 205.921 27.625 226.572 c 0
 27.625 228.376 27.7461 230.216 27.9951 232.084 c 2
 28.2715 234.226 l 2
 31.375 257.498 53.1201 276.25 76.9951 276.25 c 2
 122.301 276.25 l 1
 135.837 377.91 l 1
 90.5312 377.91 l 2
 68.5732 377.91 52.6602 393.771 52.6602 414.423 c 0
 52.6602 416.227 52.7812 418.065 53.0303 419.934 c 2
 53.3408 422.076 l 2
 56.4443 445.349 78.1553 464.1 102.029 464.1 c 2
 147.336 464.1 l 1
 165.947 603.744 l 2
 170.324 636.565 200.961 663 234.63 663 c 0
257.387 377.91 m 1
 243.851 276.25 l 1
 343.301 276.25 l 1
 356.837 377.91 l 1
 257.387 377.91 l 1
EndSplineSet
EndChar

StartChar: dollar
Encoding: 36 36 214
Width: 624
VWidth: 14
Flags: W
HStem: -0.078125 103.975<52.8491 228.692 311.091 386.096> 285.039 114.979<151.793 385.854> 593.993 104.894<150.826 233.052 311.091 460.014>
VStem: 35.0283 113.703<418.398 593.968> 228.692 82.399<-90.1973 -0.078125 698.887 783.458> 387.85 113.141<104.932 124.336 124.336 283.439>
LayerCount: 3
Fore
SplineSet
311.091 698.887 m 1
 402.014 698.885 l 2
 454.522 697.691 482.926 666.02 487.708 609.609 c 2
 489.032 593.993 l 1
 171.933 593.993 l 2
 157.877 593.993 148.731 585.379 148.731 573.557 c 2
 148.731 419.537 l 2
 148.896 417.94 148.982 418.398 148.982 418.398 c 1
 148.982 418.398 149.162 417.692 149.293 417.261 c 0
 154.402 400.408 168.164 400.018 171.933 400.018 c 2
 378.456 400.018 l 2
 458.55 400.018 500.991 337.59 500.991 271.02 c 2
 500.991 121.584 l 2
 500.991 48.5869 463.446 -0.078125 363.885 -0.078125 c 2
 311.091 -0.078125 l 1
 311.091 -63.6025 l 2
 311.091 -80.4941 295.11 -91.7549 279.131 -91.7549 c 2
 228.692 -91.7549 l 1
 228.692 -0.078125 l 1
 104.056 -0.078125 l 2
 44.9014 -0.078125 33.1895 50.7891 30.1123 88.3213 c 2
 28.8359 103.897 l 1
 363.885 103.897 l 2
 367.974 103.897 387.85 107.638 387.85 124.336 c 2
 387.85 266.436 l 2
 387.85 277.598 373.583 285.039 363.885 285.039 c 2
 158.402 285.039 l 2
 87.3027 285.039 35.0283 333.188 35.0283 397.535 c 2
 35.0303 599.372 l 2
 36.1035 651.93 76.2832 698.887 158.402 698.887 c 2
 233.052 698.887 l 1
 233.052 758.745 l 2
 233.052 775.635 249.449 786.896 266.053 786.896 c 2
 311.091 786.896 l 1
 311.091 698.887 l 1
EndSplineSet
EndChar

StartChar: Euro
Encoding: 8364 8364 215
Width: 576
VWidth: 14
Flags: W
HStem: 1.83398 114.06<213.46 520.88> 231.36 75.84<35.0348 94.9717 211.512 377.595> 384.96 75.84<34.7645 94.9717 211.512 410.698> 585.819 114.061<213.46 510.744>
VStem: 94.9717 116.54<116.249 231.36 307.2 384.96 460.8 585.464>
LayerCount: 3
Back
SplineSet
256.889 698.007 m 6
 453.613 698.007 l 6
 495.633 697.052 521.416 655.032 529.057 609.193 c 5
 243.52 609.193 l 6
 224.419 609.193 206.273 593.914 206.273 572.904 c 6
 206.273 449.712 l 5
 364.801 449.712 l 6
 366.711 449.712 370.53 449.712 370.53 449.712 c 6
 380.08 446.848 386.766 440.163 389.63 430.613 c 4
 389.63 429.658 389.63 430.613 389.63 424.884 c 6
 389.63 401.01 l 5
 206.273 401.01 l 5
 206.273 288.322 l 5
 389.63 288.322 l 5
 389.63 263.492 l 5
 389.63 263.492 389.63 262.537 389.63 258.717 c 4
 386.766 249.168 380.08 242.483 370.53 239.618 c 4
 368.62 239.618 370.53 239.618 364.801 239.618 c 6
 206.273 239.618 l 5
 206.273 125.976 l 6
 206.273 106.877 221.555 89.6865 243.52 89.6865 c 6
 540.516 89.6865 l 5
 532.876 44.8027 505.182 0.874023 466.982 0.874023 c 6
 256.889 0.874023 l 6
 179.535 0.874023 118.417 61.9932 118.417 139.346 c 6
 118.417 239.618 l 5
 72.5781 239.618 l 6
 65.8936 239.618 56.3447 242.483 49.6592 254.896 c 4
 49.6592 255.854 l 6
 48.7031 258.717 48.7031 261.582 48.7031 263.492 c 6
 48.7031 288.322 l 5
 118.417 288.322 l 5
 118.417 401.01 l 5
 48.7031 401.01 l 5
 48.7031 424.884 l 6
 48.7031 429.658 48.7031 429.658 49.6592 431.567 c 4
 49.6592 434.434 49.6592 434.434 49.6592 434.434 c 6
 53.4785 443.982 63.0273 449.712 72.5781 449.712 c 6
 118.417 449.712 l 5
 118.417 559.534 l 6
 118.417 636.887 179.535 698.007 256.889 698.007 c 6
529.057 609.193 m 5
 529.057 602.509 530.012 595.823 530.012 588.185 c 4
 530.012 587.229 530.012 587.229 530.012 586.274 c 5
 553.886 609.193 l 5
 529.057 609.193 l 5
EndSplineSet
Fore
SplineSet
461.965 699.879 m 2
 511.812 698.69 540.971 646.687 546.668 602.043 c 2
 548.739 585.819 l 1
 234.628 585.819 l 2
 220.626 585.819 211.512 577.205 211.512 565.383 c 2
 211.512 460.8 l 1
 377.595 460.772 l 2
 397.942 459.209 412.723 444.584 412.723 429.12 c 2
 412.723 384.96 l 1
 211.512 384.96 l 1
 211.512 307.2 l 1
 412.723 307.2 l 1
 412.723 263.04 l 2
 412.723 247.564 397.835 232.943 377.595 231.387 c 2
 211.512 231.36 l 1
 211.512 135.415 l 2
 211.512 124.885 220.517 115.894 234.628 115.894 c 2
 561.721 115.894 l 1
 558.446 98.7861 l 2
 550.454 57.0449 521.781 1.83398 472.794 1.83398 c 2
 249.146 1.83398 l 2
 161.213 1.83398 94.9717 67.0732 94.9717 150.082 c 2
 94.9717 231.36 l 1
 69.1201 231.36 l 2
 50.5918 231.36 32.6396 244.8 32.6396 264.96 c 2
 32.6396 307.2 l 1
 94.9717 307.2 l 1
 94.9717 384.96 l 1
 32.6396 384.96 l 1
 32.6396 427.2 l 2
 32.6396 447.941 51.083 460.8 69.1201 460.8 c 2
 94.9717 460.8 l 1
 94.9717 551.631 l 2
 94.9717 634.64 161.214 699.88 249.146 699.88 c 2
 461.965 699.879 l 2
EndSplineSet
EndChar

StartChar: percent
Encoding: 37 37 216
Width: 704
VWidth: 0
Flags: W
HStem: 0 89.7158<480.618 581.669> 252.835 89.715<480.618 581.669> 320.45 89.715<123.787 224.837> 573.285 89.715<123.787 224.837>
VStem: 33.1504 89.7646<411.087 572.363> 225.707 89.767<411.087 572.363> 389.982 89.766<90.6368 251.913> 582.54 89.765<90.6368 251.913>
LayerCount: 3
Fore
SplineSet
496.951 342.55 m 2xdf
 565.335 342.55 l 2
 624.602 342.55 672.305 294.847 672.305 235.579 c 2
 672.305 106.971 l 2
 672.305 47.7041 624.602 0 565.335 0 c 2
 496.951 0 l 2
 437.687 0 389.982 47.7041 389.982 106.971 c 2
 389.982 235.579 l 2
 389.982 294.847 437.687 342.55 496.951 342.55 c 2xdf
487.853 252.835 m 2
 483.368 252.835 479.748 249.215 479.748 244.73 c 2
 479.748 97.8203 l 2
 479.748 93.335 483.368 89.7158 487.853 89.7158 c 2
 574.435 89.7158 l 2
 578.92 89.7158 582.54 93.335 582.54 97.8203 c 2
 582.54 244.73 l 2
 582.54 249.215 578.92 252.835 574.435 252.835 c 2
 487.853 252.835 l 2
140.121 663 m 2
 208.503 663 l 2
 267.769 663 315.474 615.296 315.474 556.029 c 2
 315.474 427.421 l 2
 315.474 368.153 267.769 320.45 208.503 320.45 c 2
 140.121 320.45 l 2xbf
 80.8535 320.45 33.1504 368.153 33.1504 427.421 c 2
 33.1504 556.029 l 2
 33.1504 615.296 80.8535 663 140.121 663 c 2
131.021 573.285 m 2
 126.535 573.285 122.915 569.665 122.915 565.181 c 2
 122.915 418.27 l 2
 122.915 413.785 126.535 410.165 131.021 410.165 c 2
 217.603 410.165 l 2
 222.087 410.165 225.707 413.785 225.707 418.27 c 2
 225.707 565.181 l 2
 225.707 569.665 222.087 573.285 217.603 573.285 c 2
 131.021 573.285 l 2
496.479 655.809 m 2
 505.638 672.509 509.534 679.612 516.705 679.612 c 0
 522.015 679.612 529.119 675.716 541.485 668.935 c 1
 558.185 659.777 565.289 655.881 565.289 648.71 c 0
 565.289 643.399 561.394 636.296 554.61 623.928 c 2
 214.524 3.80957 l 2
 205.366 -12.8887 201.47 -19.9932 194.3 -19.9932 c 0
 188.99 -19.9932 181.885 -16.0967 169.518 -9.31543 c 1
 152.819 -0.157227 145.715 3.74023 145.715 10.9102 c 0
 145.715 16.2197 149.61 23.3242 156.393 35.6904 c 2
 496.479 655.809 l 2
EndSplineSet
EndChar

StartChar: ampersand
Encoding: 38 38 217
Width: 674
VWidth: 14
Flags: W
HStem: 2.75879 114.06<164.15 417.271> 199.435 83.321<371.377 421.118 542.29 590.844> 350.702 108.638<177.865 292.923> 598.686 104.871<180.447 448.769>
VStem: 46.4707 114.977<119.483 149.176 149.176 350.642> 62.9727 114.523<460.201 598.686> 421.118 121.172<116.836 199.435>
LayerCount: 3
Fore
SplineSet
298.01 418.353 m 2xf6
 298.01 350.702 l 1
 183.815 350.702 l 2
 170.383 350.702 161.448 338.988 161.448 331.182 c 2
 161.448 136.341 l 2
 161.448 123.689 172.551 116.819 183.815 116.819 c 2
 399.735 116.819 l 2
 411.896 116.819 421.118 125.372 421.118 137.257 c 2
 421.118 199.435 l 1
 409.777 199.435 l 2
 407.541 199.718 399.369 199.153 388.364 205.446 c 0
 381.112 209.593 375.206 215.165 370.887 221.702 c 0
 366.551 228.264 364.432 234.981 364.642 240.637 c 0
 364.718 242.664 364.3 249.864 370.762 259.998 c 0
 375.062 266.742 381.004 272.457 388.293 276.675 c 0
 393.775 279.847 401.184 282.756 409.777 282.756 c 2
 607.423 282.756 l 1
 606.434 267.429 l 2
 602.77 210.645 567.546 201.421 553.629 199.561 c 2
 552.683 199.435 l 1
 542.29 199.435 l 1
 542.29 150.092 l 2
 542.29 68.7783 474.626 2.75879 384.671 2.75879 c 2
 198.879 2.75879 l 2
 113.713 2.75879 46.4707 67.667 46.4707 149.176 c 2
 46.4707 328.863 l 2xfa
 46.4707 362.585 71.3799 395.057 114.055 409.841 c 1
 88.8164 424.284 62.9727 449.071 62.9727 481.965 c 2
 62.9795 609.696 l 2
 65.1621 662.08 107.895 703.557 187.832 703.557 c 2
 386.032 703.549 l 2
 417.466 702.245 472.08 691.94 480.706 614.521 c 2
 482.473 598.664 l 1
 196.295 598.686 l 2
 192.648 598.277 191.34 598.244 187.838 597.29 c 0
 181.757 595.633 177.496 593.176 177.496 582.638 c 2
 177.496 479.776 l 2
 177.496 467.945 187.744 459.34 200.888 459.34 c 2
 252.105 459.34 l 2
 279.707 459.34 298.01 441.144 298.01 418.353 c 2xf6
EndSplineSet
EndChar

StartChar: OE
Encoding: 338 338 218
Width: 741
VWidth: 0
Flags: W
HStem: 0 121.55<205.673 329.463 451.013 661.732> 262.99 121.55<451.013 617.503> 541.45 121.55<205.673 329.463 451.013 642.862>
VStem: 82.875 121.619<122.798 144.928 144.928 540.202> 329.463 121.55<121.55 262.99 384.54 541.45>
LayerCount: 3
Fore
SplineSet
227.803 663 m 2
 657.647 663 l 1
 657.647 602.225 l 2
 657.647 568.556 630.541 541.45 596.873 541.45 c 2
 451.013 541.45 l 1
 451.013 384.54 l 1
 572.562 384.54 l 2
 606.081 381.349 633.338 357.435 633.338 323.765 c 0
 633.338 290.096 605.996 266.971 572.562 262.99 c 2
 451.013 262.99 l 1
 451.013 121.55 l 1
 616.763 121.55 l 2
 650.28 118.357 677.537 94.4434 677.537 60.7754 c 0
 677.537 27.1064 650.388 1.74023 616.763 0 c 0
 227.803 0 l 0
 147.506 0 82.875 64.6309 82.875 144.928 c 2
 82.875 518.072 l 2
 82.875 598.369 147.506 663 227.803 663 c 2
215.475 541.45 m 2
 209.397 541.45 204.494 536.546 204.494 530.468 c 2
 204.494 132.531 l 2
 204.494 126.454 209.397 121.55 215.475 121.55 c 2
 329.463 121.55 l 1
 329.463 247.287 329.463 415.713 329.463 541.45 c 1
 215.475 541.45 l 2
EndSplineSet
EndChar

StartChar: oe
Encoding: 339 339 219
Width: 756
VWidth: 0
Flags: W
HStem: -1.03613 121.549<189.098 311.354 434.943 622.915> 191.199 77.697<434.193 591.381> 342.93 121.17<189.098 311.952 434.362 590.132>
VStem: 66.2998 121.619<122.798 144.928 144.928 341.303> 312.126 121.998<121.688 191.199 268.896 342.546> 591.381 121.55<268.896 341.303>
LayerCount: 3
Fore
SplineSet
211.228 464.1 m 2
 288.817 464.1 l 2
 320.334 464.1 349.413 454.152 373.144 437.2 c 1
 396.872 454.154 425.985 464.1 457.502 464.1 c 2
 568.002 464.1 l 2
 648.299 464.1 712.931 399.47 712.931 319.173 c 2
 712.931 191.199 l 1
 434.193 191.199 l 1
 434.193 143.719 l 2
 434.193 130.458 442.965 120.513 456.224 120.513 c 2
 537.062 120.513 l 1
 669.662 120.513 l 1
 669.662 43.1641 625.462 -1.03613 537.062 -1.03613 c 2
 456.224 -1.03613 l 2
 422.732 -1.03613 394.017 8.98145 371.243 25.5879 c 1
 347.867 9.44336 319.503 0 288.817 0 c 2
 211.228 0 l 2
 130.932 0 66.2998 64.6309 66.2998 144.928 c 2
 66.2998 319.173 l 2
 66.2998 399.47 130.932 464.1 211.228 464.1 c 2
456.224 342.93 m 2
 445.174 342.93 434.124 331.88 434.124 320.83 c 2
 434.124 268.896 l 1
 591.381 268.896 l 1
 591.381 320.83 l 2
 591.381 331.88 580.331 342.93 569.28 342.93 c 2
 456.224 342.93 l 2
198.9 342.55 m 2
 192.822 342.55 187.919 337.646 187.919 331.568 c 2
 187.919 132.531 l 2
 187.919 126.454 192.822 121.55 198.9 121.55 c 2
 301.145 121.55 l 2
 307.223 121.55 312.126 126.454 312.126 132.531 c 2
 312.126 331.568 l 2
 312.126 337.646 307.223 342.55 301.145 342.55 c 2
 198.9 342.55 l 2
EndSplineSet
EndChar

StartChar: ae
Encoding: 230 230 220
Width: 812
VWidth: 14
Flags: W
HStem: 0 111.311<469.385 659.617> 0.916016 117.728<154.72 239.629> 207.19 102.143<154.72 312.774> 212.692 73.722<288.193 343.474 463.854 636.026> 376.794 114.061<153.501 342.981> 384.129 106.726<466.802 630.62>
VStem: 40.6582 114.062<118.864 207.19> 343.474 120.38<118.845 207.19 286.414 376.736> 636.026 114.061<286.414 380.282>
LayerCount: 3
Fore
SplineSet
498.279 111.311 m 2x9780
 704.618 111.311 l 1
 702.27 94.874 l 2
 692.753 28.2637 647.925 0 569.485 0 c 2
 504.132 0 l 2x9780
 400.369 0 391.179 22.0889 338.782 51.2725 c 2
 335.199 52.9355 l 1
 192.955 8.07715 l 2
 174.145 2.18457 158.125 0.916016 143.986 0.916016 c 0
 61.4189 0.916016 40.6582 71.6543 40.6582 129.913 c 2
 40.6582 216.09 l 2
 40.6582 263.902 62.4297 309.333 141.236 309.333 c 0
 156.43 309.333 174.294 307.15 192.336 304.587 c 2
 343.474 283.114 l 1
 343.474 357.273 l 2
 343.198 359.979 343.183 359.493 343.03 360.028 c 2
 342.809 360.82 l 1
 342.787 360.836 342.73 360.965 342.631 361.241 c 0
 341.129 365.279 334.857 376.251 321.396 376.801 c 2
 124.278 376.794 l 1
 126.003 392.741 l 2
 129.261 422.872 141.313 490.855 201.752 490.855 c 2
 271.007 490.855 l 2x6b80
 321.263 490.855 361.914 479.024 393.035 458.851 c 2
 398.467 455.11 l 1
 402.925 458.402 l 2
 429.971 478.372 463.427 490.855 500.231 490.855 c 2
 599.724 490.855 l 2
 684.83 490.855 750.087 424.707 750.087 343.523 c 2
 750.087 212.692 l 1
 463.854 212.692 l 1
 463.854 144.582 l 2
 463.854 126.009 479.499 111.311 498.279 111.311 c 2x9780
602.649 384.129 m 2
 498.279 384.129 l 2
 479.275 384.129 463.854 369.63 463.854 351.773 c 2
 463.854 286.414 l 1
 636.026 286.414 l 1
 636.026 351.773 l 2
 636.026 369.848 620.878 384.129 602.649 384.129 c 2
343.474 207.19 m 1x2380
 176.392 207.19 l 2
 163.345 207.19 154.72 199.771 154.72 187.671 c 2
 154.72 139.082 l 2
 154.72 122.311 173.179 118.644 176.392 118.644 c 2
 343.474 118.644 l 1
 343.474 207.19 l 1x2380
EndSplineSet
EndChar

StartChar: AE
Encoding: 198 198 221
Width: 917
VWidth: 0
Flags: W
HStem: 0 127.628<570.377 889.212> 150.216 127.628<284.955 442.748> 276.14 127.627<570.377 842.768> 568.522 127.628<570.377 869.425>
VStem: 442.748 127.629<127.628 150.216 403.767 546.768>
LayerCount: 3
Fore
SplineSet
442.748 696.15 m 1xd8
 442.748 696.15 461.817 696.15 463.705 696.15 c 0
 470.061 696.15 511.124 696.15 534.227 696.15 c 0
 649.455 696.15 885.965 696.15 885.965 696.15 c 1
 885.965 632.336 l 2
 885.965 596.983 857.502 568.522 822.151 568.522 c 2
 570.377 568.522 l 1
 570.377 403.767 l 1
 796.624 403.767 l 2
 831.819 400.416 860.439 375.307 860.439 339.953 c 0
 860.439 304.601 831.729 280.319 796.624 276.14 c 2
 570.377 276.14 l 1xb8
 570.377 127.628 l 1
 843.035 127.628 l 2
 878.229 124.274 906.852 99.166 906.852 63.8145 c 0
 906.852 28.4619 878.341 1.82715 843.035 0 c 2
 442.748 0 l 1
 442.748 0 442.748 99.377 442.748 150.216 c 1
 215.375 150.216 l 1
 148.009 37.8896 l 2
 131.312 7.95605 101.85 -5.35547 73.584 -5.35547 c 0
 35.7188 -5.35547 0 18.5342 0 58.3594 c 0
 0 70.4463 3.29004 84.002 10.8096 98.8027 c 2
 330.857 626.027 l 2
 352.023 658.131 401.243 686.332 442.748 694.048 c 1
 442.748 694.06 442.748 696.15 442.748 696.15 c 1xd8
442.748 546.768 m 1
 284.955 277.844 l 1
 442.748 277.844 l 1xd8
 442.748 390.353 l 2
 442.748 467.406 442.748 494.046 442.748 546.768 c 1
EndSplineSet
EndChar

StartChar: asciitilde
Encoding: 126 126 222
Width: 528
VWidth: 0
Flags: W
HStem: 141.848 119.902<309.385 430.409> 219.22 120.008<99.8715 220.895>
LayerCount: 3
Fore
SplineSet
155.314 339.228 m 4x40
 156.848 339.236 158.411 339.199 159.975 339.124 c 4
 238.658 328.722 296.759 276.743 374.449 261.808 c 4
 375.048 261.77 375.661 261.75 376.287 261.75 c 4
 399.051 261.75 439.659 287.03 461.571 302.312 c 4
 466.491 305.745 471.743 307.255 477 307.255 c 4
 498.083 307.255 519.231 282.973 519.231 261.015 c 4
 519.231 252.647 516.161 244.617 508.845 238.396 c 5
 509.087 238.085 l 5
 479.094 203.558 422.559 141.971 374.968 141.743 c 4
 373.432 141.735 371.867 141.771 370.305 141.848 c 4x80
 291.621 152.25 233.521 204.228 155.831 219.162 c 4
 155.233 219.201 154.62 219.22 153.993 219.22 c 4
 131.229 219.22 90.6201 193.938 68.71 178.657 c 4
 63.79 175.226 58.5371 173.717 53.2812 173.717 c 4
 32.1982 173.717 11.0498 197.998 11.0498 219.955 c 4
 11.0498 228.323 14.1201 236.354 21.4355 242.575 c 5
 21.1943 242.885 l 5
 51.1855 277.413 107.723 339 155.314 339.228 c 4x40
EndSplineSet
EndChar

StartChar: germandbls
Encoding: 223 223 226
Width: 546
VWidth: 0
Flags: W
HStem: 0 121.55<262.918 375.677> 288.682 100.278<187.85 353.596> 553.674 108.429<188.982 350.708>
VStem: 66.2998 121.55<-182.231 288.682 388.96 551.539> 353.6 121.55<388.96 400.01 400.01 551.962> 375.977 121.549<121.554 132.6 132.6 288.622>
LayerCount: 3
Fore
SplineSet
66.2998 541.45 m 2xf4
 66.2998 614.39 120.413 662.103 200.004 662.103 c 2
 342.55 662.103 l 2
 430.954 662.103 475.15 607.75 475.15 535.339 c 2
 475.15 384.54 l 2xf8
 475.15 363.877 453.05 331.5 419.9 331.5 c 1
 453.05 331.5 497.526 296.519 497.526 257.085 c 2
 497.526 121.55 l 2
 497.526 41.4219 425.701 0 370.451 0 c 2
 301.253 0 l 2
 258.854 0 234.813 64.9092 234.813 115.051 c 0
 234.813 117.248 234.86 119.416 234.953 121.55 c 1
 364.65 121.55 l 2
 370.734 121.55 375.977 126.516 375.977 132.6 c 2
 375.977 277.355 l 2
 375.977 282.887 370.183 288.682 364.926 288.682 c 2
 187.85 288.682 l 1
 187.85 -143.65 l 2
 187.85 -176.72 157.612 -193.132 127.299 -193.132 c 0
 96.8359 -193.132 66.2998 -176.557 66.2998 -143.65 c 2
 66.2998 541.45 l 2xf4
187.85 540.345 m 2
 187.85 388.96 l 1
 342.273 388.96 l 2
 348.358 388.96 353.6 393.926 353.6 400.01 c 2
 353.6 542.348 l 2
 353.6 547.879 347.807 553.674 342.55 553.674 c 2
 199.038 553.674 l 2
 192.104 553.674 187.847 547.853 187.847 540.688 c 0
 187.85 540.345 l 2
EndSplineSet
EndChar

StartChar: bracketleft
Encoding: 91 91 227
Width: 343
VWidth: 974
Flags: W
HStem: -149.76 70.1106<219.06 250.56> 661.409 70.111<219.06 250.56>
VStem: 54.7197 109.44<-60.4492 642.209> 54.7197 195.84<-149.76 -79.6494 661.409 731.52>
LayerCount: 3
Fore
SplineSet
54.7197 731.52 m 1xd0
 250.56 731.52 l 1
 250.56 661.409 l 1
 164.16 642.209 l 1
 164.16 -60.4492 l 1
 250.56 -79.6494 l 1
 250.56 -149.76 l 1
 54.7197 -149.76 l 1
 54.7197 731.52 l 1xd0
EndSplineSet
EndChar

StartChar: bracketright
Encoding: 93 93 228
Width: 297
VWidth: 974
Flags: W
HStem: -149.76 70.1106<16.3203 47.8199> 661.409 70.111<16.3203 47.8202>
VStem: 16.3203 195.84<-149.76 -79.6494 661.409 731.52> 102.72 109.44<-60.4492 642.209>
LayerCount: 3
Fore
SplineSet
102.72 -60.4492 m 1xd0
 102.72 642.209 l 1xd0
 16.3203 661.409 l 1
 16.3203 731.52 l 1xe0
 212.16 731.52 l 1
 212.16 -149.76 l 1xd0
 16.3203 -149.76 l 1
 16.3203 -79.6494 l 1xe0
 102.72 -60.4492 l 1xd0
EndSplineSet
EndChar

StartChar: backslash
Encoding: 92 92 229
Width: 432
VWidth: 974
Flags: W
LayerCount: 3
Fore
SplineSet
-18.9961 719.59 m 1
 74.1934 754.705 l 1
 421.278 -11.1689 l 1
 327.047 -46.1699 l 1
 -18.9961 719.59 l 1
EndSplineSet
EndChar

StartChar: asciicircum
Encoding: 94 94 230
Width: 697
VWidth: 974
Flags: W
LayerCount: 3
Fore
SplineSet
283.052 708.48 m 1
 385.108 708.48 l 1
 616.54 332.16 l 1
 503.532 332.16 l 1
 334.08 590.275 l 1
 164.628 332.16 l 1
 51.6201 332.16 l 1
 283.052 708.48 l 1
EndSplineSet
EndChar

StartChar: underscore
Encoding: 95 95 231
Width: 539
VWidth: 974
Flags: W
HStem: -120 76.7998<-14.4004 523.2 523.2 523.2>
LayerCount: 3
Fore
SplineSet
-14.4004 -43.2002 m 1
 523.2 -43.2002 l 1
 523.2 -120 l 1
 -14.4004 -120 l 1
 -14.4004 -43.2002 l 1
EndSplineSet
EndChar

StartChar: registered
Encoding: 174 174 232
Width: 821
VWidth: 974
Flags: W
HStem: -17.2803 92.1602<288.399 506.335> 306.271 82.7266<344.77 402.547> 473.312 83.2363<344.77 440.796> 633.6 92.16<290.465 508.401>
VStem: 12.4805 92.1595<251.72 455.579> 257.94 86.8291<147.945 306.271 388.998 473.312> 440.855 87.373<388.998 390.675 390.675 471.999> 692.16 92.16<252.9 456.76>
LayerCount: 3
Fore
SplineSet
438.542 473.312 m 6
 344.77 473.312 l 5
 344.77 388.998 l 5
 438.542 388.998 l 6
 440.189 388.998 440.855 389.839 440.855 390.675 c 6
 440.855 471.632 l 5
 440.855 471.632 440.87 471.957 440.834 472.001 c 4
 440.029 472.977 438.746 473.283 438.542 473.312 c 6
528.229 475.219 m 6
 528.229 384.527 l 6
 528.229 370.096 523.795 340.554 490.16 320.35 c 5
 557.499 166.097 l 5
 519.031 146.553 l 5
 517.143 146.045 l 6
 512.8 144.878 508.302 143.334 502.4 143.334 c 4
 484.596 143.334 469.369 153.902 462.806 168.869 c 6
 402.547 306.271 l 5
 344.77 306.271 l 5
 344.77 147.945 l 5
 257.94 147.945 l 5
 257.94 556.548 l 5
 438.542 556.548 l 6
 494.202 556.548 528.229 521.02 528.229 475.219 c 6
12.4805 354.24 m 0
 12.4805 556.817 181.318 725.76 398.4 725.76 c 0
 612.358 725.76 784.32 559.774 784.32 354.24 c 0
 784.32 151.662 615.481 -17.2803 398.4 -17.2803 c 0
 184.441 -17.2803 12.4805 148.705 12.4805 354.24 c 0
398.4 633.6 m 0
 233.465 633.6 104.64 507.213 104.64 354.24 c 0
 104.64 198.078 236.833 74.8799 398.4 74.8799 c 0
 563.336 74.8799 692.16 201.268 692.16 354.24 c 0
 692.16 510.403 559.967 633.6 398.4 633.6 c 0
EndSplineSet
EndChar

StartChar: copyright
Encoding: 169 169 233
Width: 821
VWidth: 974
Flags: W
HStem: -17.2803 97.1602<293.883 521.964> 154.75 89.7808<301.691 493.831> 448.504 91.2488<301.767 535.889> 633.6 92.16<290.465 513.979>
VStem: 12.4805 92.1595<255.228 455.579> 208.005 92.855<244.877 271.881 271.881 446.066> 705.16 79.16<255.4 455.752>
LayerCount: 3
Fore
SplineSet
398.4 633.6 m 0
 233.465 633.6 104.64 507.213 104.64 354.24 c 0
 104.64 198.078 249.833 79.8799 411.4 79.8799 c 4
 576.336 79.8799 705.16 206.268 705.16 359.24 c 4
 705.16 515.403 559.967 633.6 398.4 633.6 c 0
12.4805 354.24 m 0
 12.4805 556.817 181.318 725.76 398.4 725.76 c 0
 612.358 725.76 784.32 559.774 784.32 354.24 c 0
 784.32 151.662 615.481 -17.2803 398.4 -17.2803 c 0
 184.441 -17.2803 12.4805 148.705 12.4805 354.24 c 0
EndSplineSet
Refer: 24 99 S 0.8 0 0 0.8 175.444 154.015 2
EndChar

StartChar: uni02C9
Encoding: 713 713 234
Width: 273
VWidth: 974
Flags: W
HStem: 576 92.1602<-17.4404 287.84>
VStem: -17.4404 305.28<576 668.16>
LayerCount: 3
Fore
SplineSet
287.84 576 m 1
 -17.4404 576 l 1
 -17.4404 668.16 l 1
 287.84 668.16 l 1
 287.84 576 l 1
EndSplineSet
EndChar

StartChar: at
Encoding: 64 64 235
Width: 802
VWidth: 14
Flags: W
HStem: -126 110<147.817 610> 39.5479 93.8881<314.584 414.774 582.438 658.29> 234.782 59.979<407.305 460.143> 234.782 81.458<314.669 458.146> 359.311 91.693<279.702 458.421> 498 110<147.45 658.774>
VStem: 35 110<-13.892 495.812> 192.375 122.051<135.671 157.424 157.424 234.587> 460.143 122.295<134 234.782 294.761 356.624 357.283 358.012> 659 110<134.551 496.625>
LayerCount: 3
Fore
SplineSet
317.857 234.782 m 2xdfc0
 314.229 234.782 314.672 233.938 314.669 232.752 c 2
 314.426 135.671 l 1
 317.842 132.01 317.848 133.436 317.857 133.436 c 2
 460.143 133.436 l 5
 460.143 234.782 l 5xefc0
 317.857 234.782 l 2xdfc0
460.143 70.6533 m 5
 333.9 44.4443 l 2
 317.831 41.1084 303.344 39.5479 290.117 39.5479 c 0
 212.875 39.5479 192.375 104.37 192.375 157.424 c 2
 192.375 225.418 l 2
 192.375 274.869 217.627 316.24 287.67 316.24 c 0xdfc0
 305.069 316.24 310.509 314.585 332.321 311.695 c 2
 460.143 294.761 l 5
 460.143 356.624 l 5
 459.571 357.751 458.392 359.311 456.954 359.311 c 6
 258.136 359.311 l 1
 260.457 387.938 l 2
 263.201 421.777 289.183 451.004 339.07 451.004 c 2
 434.528 451.004 l 2
 541.595 451.004 582.438 399.341 582.438 299.993 c 6
 582.438 134 l 5
 651 134 l 2
 659.895 134 657.199 134.194 658.705 134.478 c 1
 658.996 136.024 659 138.417 659 142 c 2
 659 484 l 2
 659 497.249 657.637 498 648 498 c 2
 156 498 l 2
 143.366 497.86 148.597 497.726 146.849 497.267 c 1
 146.124 495.276 145 490.4 145 478 c 2
 145 4 l 2
 145.529 -8.88965 145.833 -12.6963 147.781 -15.7373 c 1
 148.561 -15.9492 148.768 -16 153 -16 c 2
 610 -16 l 1
 610 -126 l 1
 153 -126 l 2
 99.3584 -126 35 -95.7119 35 4 c 2
 35 478 l 2
 35 577.228 95.123 608 156 608 c 2
 648 608 l 2
 726.287 608 769 552.16 769 484 c 2
 769 163 l 2
 769 99.7158 729.843 45.1514 651.016 45 c 2
 460.143 44.6328 l 5
 460.143 70.6533 l 5
460.143 357.283 m 5
 460.143 358.012 l 5
 459.241 362.02 459.791 359.1 460.143 357.283 c 5
EndSplineSet
EndChar

StartChar: zerooldstyle
Encoding: 63280 63280 236
Width: 496
VWidth: 14
Flags: W
HStem: 0.916016 114.062<134.497 332.107> 200.449 77.921<195.233 276.684> 360.378 114.976<134.599 335.271>
VStem: 20.4375 114.059<115.037 359.744> 190.163 91.829<206.546 271.84> 335.271 113.145<115.084 360.322>
LayerCount: 3
Fore
SplineSet
235.16 200.449 m 0
 207.961 200.449 190.163 219.66 190.163 238.887 c 0
 190.163 261.386 211.1 278.37 235.16 278.37 c 0
 260.029 278.37 281.992 261.501 281.992 238.887 c 0
 281.992 215.886 259.004 200.449 235.16 200.449 c 0
311.697 360.378 m 6
 158.229 360.378 l 6
 144.388 360.378 134.497 352.32 134.497 339.94 c 6
 134.497 135.415 l 2
 134.497 124.093 144.984 114.978 158.229 114.978 c 2
 311.697 114.978 l 2
 323.66 114.978 335.271 124.59 335.271 135.415 c 2
 335.271 339.94 l 6
 335.271 351.867 324.27 360.378 311.697 360.378 c 6
448.416 148.249 m 2
 448.416 67.2275 384.218 0.916016 296.672 0.916016 c 2
 108.179 0.916016 l 2
 77.4248 0.916016 20.4375 44.2383 20.4375 87.7422 c 2
 20.4375 326.188 l 6
 20.4375 408.148 85.5352 475.354 174.327 475.354 c 6
 386.343 475.354 l 6
 423.591 475.354 448.276 437.2 448.416 399.558 c 6
 448.416 148.249 l 2
EndSplineSet
EndChar

StartChar: oneoldstyle
Encoding: 63281 63281 237
Width: 187
VWidth: 14
Flags: W
VStem: 22.2715 113.143<1.83398 432.614>
LayerCount: 3
Fore
SplineSet
135.415 489.113 m 5
 135.415 1.83398 l 1
 22.2715 1.83398 l 1
 22.2715 352.775 l 6
 22.2715 429.835 67.8926 473.638 117.799 485.076 c 6
 135.415 489.113 l 5
EndSplineSet
EndChar

StartChar: twooldstyle
Encoding: 63282 63282 238
Width: 475
VWidth: 14
Flags: W
HStem: 0 114.978<173.174 424.254> 374.129 103.975<65.3577 306.868>
VStem: 311.574 117.01<266.719 356.713>
LayerCount: 3
Fore
SplineSet
428.584 269.518 m 2
 428.584 240.784 410.568 212.927 385.397 197.345 c 2
 173.174 114.978 l 1
 453.377 114.978 l 1
 452.302 99.5742 l 2
 449.238 55.6992 434.943 0 365.511 0 c 2
 58.166 0 l 1
 56.7695 0.279297 l 2
 54.2793 0.776367 54.8652 0.916016 50.4238 0.916016 c 2
 48.3096 0.916016 l 1
 46.2842 1.52344 l 2
 39.5703 3.53809 23.6787 9.75781 18.1943 29.8623 c 2
 17.6865 31.7227 l 1
 17.6865 113.058 l 2
 18.1572 120.112 18.3965 122.68 21.6162 127.09 c 0
 21.8682 127.435 22.1484 127.481 22.6758 128.504 c 0
 28.5303 139.84 40.8574 151.262 53.498 161.096 c 2
 54.5244 161.894 l 1
 288.579 262.459 l 1
 292.673 264.826 l 1
 293.375 266.676 l 1
 298.33 269.422 l 2
 310.776 276.319 311.574 283.189 311.574 289.332 c 2
 311.574 356.713 l 5
 311.457 356.919 l 5
 311.021 358.449 l 6
 308.476 367.386 300.276 374.129 288.288 374.129 c 6
 37.2334 374.129 l 5
 38.8467 389.986 l 6
 45.2861 453.309 78.4492 478.104 123.765 478.104 c 6
 301.867 478.104 l 6
 409.941 478.104 428.584 419.958 428.584 381.194 c 6
 428.584 269.518 l 2
EndSplineSet
EndChar

StartChar: threeoldstyle
Encoding: 63283 63283 239
Width: 469
VWidth: 14
Flags: W
HStem: -202.574 113.135<19.1627 292.941> 124.713 85.641<95.9717 100.312 101.487 275.86> 368.079 104.892<41.181 272.378>
VStem: 275.943 115.632<211.742 349.743> 293.1 114.977<-88.7181 124.296>
LayerCount: 3
Fore
SplineSet
-9.73633 -89.4316 m 1xe8
 -9.78516 -87.165 -9.81543 -84.6367 -9.81543 -81.8291 c 2
 -9.81543 -80.9121 l 1
 10.7529 -89.4326 l 1
 88.3477 -89.4326 177.838 -89.4395 268.796 -89.4395 c 0
 283.333 -88.875 293.1 -78.7256 293.1 -68.0771 c 2
 293.1 105.193 l 2xe8
 292.835 107.915 292.807 107.494 292.634 108.049 c 2
 292.377 108.89 l 1
 292.354 108.905 292.291 109.036 292.181 109.32 c 0
 289.123 116.907 279.673 124.713 269.18 124.713 c 2
 98.0918 124.713 l 1
 95.9717 125.268 l 2
 88.9453 127.276 88.9023 127.307 86.207 128.203 c 2
 85.2354 128.527 l 1
 84.3193 128.984 l 2
 74.127 135.277 67.6523 140.465 62.7236 151.008 c 0
 59.9082 157.031 58.8447 162.574 58.8447 167.544 c 0
 58.8447 168.029 58.9414 169.453 58.9805 170.348 c 0
 59.3994 180.109 59.8506 179.215 60.668 181.351 c 0
 60.9258 182.024 60.4619 181.308 62.2959 184.976 c 2
 62.6973 185.778 l 1
 63.1953 186.524 l 2
 68.9512 195.153 78.4482 204.797 91.3408 209.486 c 2
 93.7246 210.354 l 1
 96.2617 210.354 l 2
 96.4443 210.354 97.0176 210.354 97.2305 210.354 c 2
 100.312 210.354 l 1
 101.487 211.271 l 1
 250.911 211.271 l 2
 263.647 211.271 275.943 219.956 275.943 232.625 c 2
 275.943 349.743 l 5
 274.807 351.684 l 5
 274.363 353.102 l 6
 271.7 361.622 264.182 368.079 251.986 368.079 c 6
 11.5654 368.079 l 5
 13.1777 383.936 l 6
 18.7471 438.706 46.3301 471.749 99.1855 472.971 c 6
 264.881 472.973 l 6
 345.959 472.973 391.575 428.314 391.575 376.062 c 6
 391.575 221.571 l 2xf0
 391.575 205.293 384.636 181.631 368.403 166.694 c 1
 392.844 154.256 408.077 129.068 408.077 102.391 c 2
 408.077 -69.9111 l 2
 408.077 -152.771 355.23 -202.574 274.554 -202.574 c 2
 65.0908 -202.574 l 2
 23.0449 -202.574 -0.389648 -163.113 -7.74902 -113.61 c 1
 -8.15234 -114.014 l 1
 -18.335 -89.4316 l 1
 -10.5879 -89.4316 l 1
 -9.73633 -89.4316 l 1xe8
EndSplineSet
EndChar

StartChar: fouroldstyle
Encoding: 63284 63284 240
Width: 524
VWidth: 14
Flags: W
HStem: -1.28613 89.3056<112.937 280.223 405.326 482.072>
VStem: 280.223 125.103<-202.229 -1.28613 88.0195 295.668>
LayerCount: 3
Fore
SplineSet
405.326 424.745 m 6
 405.326 86.1865 l 5
 445.934 86.1865 l 6
 452.812 85.5186 475.741 84.7051 485.795 58.5352 c 4
 487.713 53.543 488.754 48.0918 488.754 42.4512 c 6
 488.754 -1.28613 l 5
 405.326 -1.28613 l 5
 405.326 -202.229 l 1
 280.223 -202.229 l 1
 280.223 -1.28613 l 5
 44.9219 -1.28613 l 6
 14.0439 -1.28613 -7.06641 26.4775 -7.06641 55.2852 c 4
 -7.06641 64.3604 -4.93066 75.9082 2.04688 85.6748 c 6
 283.257 450.568 l 6
 299.015 470.115 322.062 482.223 345.726 482.234 c 4
 379.479 482.251 405.326 457.225 405.326 424.745 c 6
280.223 88.0195 m 5
 280.223 295.668 l 5
 112.937 88.0195 l 5
 280.223 88.0195 l 5
EndSplineSet
EndChar

StartChar: fiveoldstyle
Encoding: 63285 63285 241
Width: 551
VWidth: 33
Flags: W
HStem: -200.481 101.848<60.0283 362.761> 102.836 106.086<151.534 362.815> 369.507 101.848<152.091 426.87>
VStem: 40.8838 110.65<208.922 369.507> 366.279 110.65<-90.8145 -80.4697 -80.4697 99.713>
LayerCount: 3
Fore
SplineSet
159.25 471.355 m 6
 370.118 471.355 l 6
 398.897 471.355 444.988 461.1 453.946 385.603 c 6
 455.855 369.507 l 5
 151.534 369.507 l 5
 151.534 208.922 l 5
 336.355 208.922 l 6
 435.865 208.922 476.929 154.381 476.929 74.4287 c 6
 476.929 -82.2295 l 2
 476.929 -158.88 433.851 -200.481 345.947 -200.481 c 2
 110.73 -200.481 l 2
 72.1914 -200.481 44.3438 -177.775 38.3076 -114.397 c 2
 36.8066 -98.6328 l 1
 345.947 -98.6328 l 2
 347.919 -98.4893 357.832 -96.668 363.007 -90.8711 c 0
 363.973 -89.6641 364.733 -88.3574 365.308 -86.7305 c 0
 365.88 -85.1055 366.279 -83.125 366.279 -80.4697 c 2
 366.279 85.5518 l 6
 366.279 96.2803 357.468 102.836 345.947 102.836 c 6
 40.8838 102.836 l 5
 40.8857 376.137 l 6
 41.9316 426.355 81.709 471.355 159.25 471.355 c 6
EndSplineSet
EndChar

StartChar: sixoldstyle
Encoding: 63286 63286 242
Width: 564
VWidth: 14
Flags: W
HStem: 1.83398 120.477<145.122 388.505> 361.543 113.145<143.157 390.171> 592.656 104.892<145.068 441.707>
VStem: 29.6055 113.141<124.075 150.082 150.082 361.517 473.082 590.79> 391.193 114.062<124.003 359.895>
LayerCount: 3
Fore
SplineSet
367.15 361.543 m 6
 165.631 361.543 l 6
 153.41 361.543 142.747 352.634 142.747 342.022 c 6
 142.747 143.663 l 2
 142.747 130.852 156.367 122.311 165.631 122.311 c 2
 367.15 122.311 l 2
 380.805 122.311 391.193 132.222 391.193 143.663 c 2
 391.193 342.022 l 6
 391.193 357.639 374.616 361.543 367.15 361.543 c 6
353.648 474.688 m 6
 444.711 474.688 505.255 423.09 505.255 345.691 c 6
 505.255 150.082 l 2
 505.255 68.8359 439.362 1.83398 353.648 1.83398 c 2
 180.173 1.83398 l 2
 93.6562 1.83398 29.6055 69.1113 29.6055 150.082 c 2
 29.6055 564.885 l 2
 29.6055 647.458 81.2822 697.548 159.399 697.548 c 2
 394.593 697.548 l 2
 453.662 697.548 465.305 630.407 468.43 609.15 c 2
 470.854 592.656 l 1
 165.631 592.656 l 2
 151.736 592.656 142.747 580.944 142.747 573.136 c 2
 142.747 473.082 l 5
 151.438 474.102 163.304 474.688 180.173 474.688 c 6
 353.648 474.688 l 6
EndSplineSet
EndChar

StartChar: sevenoldstyle
Encoding: 63287 63287 243
Width: 528
VWidth: 14
Flags: W
HStem: 362.228 114.059<24.2216 352.847>
LayerCount: 3
Fore
SplineSet
431.265 476.287 m 6
 465.208 476.287 487.837 449.05 487.837 418.799 c 6
 487.837 389.463 l 6
 487.837 381.807 487.826 369.765 482.336 356.233 c 5
 482.336 355.963 l 5
 287.499 -172.121 l 1
 286.805 -173.254 l 2
 277.399 -188.586 257.247 -199.092 237.541 -199.092 c 2
 119.868 -199.092 l 1
 352.847 362.228 l 5
 -2.7627 362.228 l 5
 -1.51855 377.775 l 6
 4.82422 457.05 40.6475 476.287 68.7578 476.287 c 6
 431.265 476.287 l 6
EndSplineSet
EndChar

StartChar: eightoldstyle
Encoding: 63288 63288 244
Width: 537
VWidth: 14
Flags: W
HStem: 1.83398 120.477<141.538 366.291> 329.123 84.723<159.318 347.12> 586.82 111.31<161.701 345.61>
VStem: 23.1875 114.977<123.994 329.08> 42.4395 116.659<414.633 584.982> 347.344 116.657<414.781 584.832> 368.275 114.978<124.003 328.515>
LayerCount: 3
Fore
SplineSet
309.3 698.13 m 6xe8
 399.144 698.13 464.001 643.965 464.001 562.717 c 6
 464.001 471.871 l 2xec
 464.001 437.571 452.551 406.559 433.402 381.362 c 2
 426.987 373.514 l 1
 435.67 367.957 l 2
 464.088 353.355 483.253 319.956 483.253 284.848 c 2
 483.253 150.082 l 2
 483.253 68.8359 417.36 1.83398 331.312 1.83398 c 2
 177.224 1.83398 l 2
 89.2666 1.83398 23.1875 68.8018 23.1875 150.082 c 2
 23.1875 284.848 l 2xf2
 23.1875 318.199 41.9355 352.967 70.7305 367.896 c 2
 79.4531 373.514 l 1
 72.9277 381.511 l 2
 55.0361 406.361 42.4395 437.254 42.4395 471.871 c 2
 42.4395 562.717 l 6
 42.4395 644.614 107.955 698.13 198.188 698.13 c 6
 309.3 698.13 l 6xe8
347.344 567.3 m 6
 347.344 577.331 336.988 586.82 323.976 586.82 c 6
 183.514 586.82 l 6
 169.049 586.82 159.098 577.254 159.098 567.3 c 6
 159.098 434.283 l 2
 159.098 424.124 169.679 413.846 183.514 413.846 c 2
 323.976 413.846 l 2
 336.353 413.846 347.344 424.047 347.344 434.283 c 2
 347.344 567.3 l 6
368.275 308.685 m 2xf2
 368.275 319.473 358.122 329.123 345.988 329.123 c 2
 160.452 329.123 l 2
 148.292 329.123 138.165 319.494 138.165 308.685 c 2
 138.165 143.664 l 2
 138.165 131.608 148.398 122.311 160.452 122.311 c 2
 345.988 122.311 l 2
 358.079 122.311 368.275 131.591 368.275 143.664 c 2
 368.275 308.685 l 2xf2
EndSplineSet
EndChar

StartChar: nineoldstyle
Encoding: 63289 63289 245
Width: 553
VWidth: 14
Flags: W
HStem: -201.227 113.145<81.2243 375.965> 33.4678 113.143<133.957 379.101> 361.011 114.977<134.238 375.869>
VStem: 16.7705 114.978<147.729 169.8 169.8 357.691> 379.277 114.059<-84.6144 38.1074 146.635 357.691>
LayerCount: 3
Fore
SplineSet
131.748 166.132 m 2
 131.748 154.429 140.602 146.611 153.825 146.611 c 2
 356.283 146.611 l 2
 369.742 146.611 379.277 155.031 379.277 166.132 c 2
 379.277 341.491 l 6
 379.277 352.622 369.737 361.011 356.283 361.011 c 6
 153.825 361.011 l 6
 140.57 361.011 131.748 353.166 131.748 341.491 c 6
 131.748 166.132 l 2
127.432 -201.227 m 2
 69.917 -201.227 57.6074 -134.274 53.5703 -104.411 c 2
 51.3633 -88.082 l 1
 356.283 -88.082 l 2
 370.17 -88.082 379.277 -75.8203 379.277 -67.6445 c 2
 379.277 38.1074 l 1
 368.025 36.3799 l 2
 359.967 35.4893 351.485 33.4678 340.708 33.4678 c 2
 169.399 33.4678 l 2
 81.9824 33.4678 16.7705 88.8408 16.7705 169.8 c 2
 16.7705 327.74 l 6
 16.7705 409.874 82.8848 475.988 169.399 475.988 c 6
 340.708 475.988 l 6
 427.223 475.988 493.336 409.874 493.336 327.74 c 6
 493.336 -69.4785 l 2
 493.336 -152.347 440.417 -201.227 361.475 -201.227 c 2
 127.432 -201.227 l 2
EndSplineSet
EndChar

StartChar: hyphen
Encoding: 45 45 246
Width: 415
Flags: W
HStem: 230 100<55 360>
VStem: 55 305<230 330>
LayerCount: 3
Fore
SplineSet
55 330 m 1
 360 330 l 1
 360 230 l 1
 55 230 l 1
 55 330 l 1
EndSplineSet
EndChar

StartChar: emdash
Encoding: 8212 8212 247
Width: 655
Flags: W
HStem: 230 100<55 600>
LayerCount: 3
Fore
SplineSet
55 330 m 1
 600 330 l 5
 600 230 l 5
 55 230 l 1
 55 330 l 1
EndSplineSet
EndChar

StartChar: endash
Encoding: 8211 8211 248
Width: 475
Flags: W
HStem: 230 100<55 420>
LayerCount: 3
Fore
SplineSet
55 330 m 5
 420 330 l 5
 420 230 l 5
 55 230 l 5
 55 330 l 5
EndSplineSet
EndChar

StartChar: ff
Encoding: 64256 64256 249
Width: 620
VWidth: 0
Flags: W
HStem: 0.954102 21G<48.7031 167.517 338.703 457.517> 364.64 110.938<167.517 338.703 457.517 585.647> 552.373 115.713<170.958 296.184> 582.373 115.713<461.518 653.069>
VStem: 48.7031 118.813<0.954102 364.64 475.577 549.818> 338.703 118.813<0.954102 364.64 475.577 579.31>
LayerCount: 3
Fore
SplineSet
338.703 572.31 m 2xec
 338.703 647.775 397.418 698.086 485.49 698.086 c 2
 668.566 698.086 l 1
 668.566 655.032 l 2
 668.566 616.859 654.106 582.373 596.268 582.373 c 2
 485.49 582.373 l 2xdc
 468.674 582.373 457.517 573.875 457.517 553.444 c 2
 457.517 475.577 l 1
 559.021 475.577 l 2
 564.654 474.861 573.849 475.537 586.225 464.458 c 0
 596.236 455.495 607.178 437.835 606.492 420.108 c 0
 605.778 401.674 599.576 387.183 586.084 375.406 c 0
 579.119 369.328 569.794 364.64 559.021 364.64 c 2
 457.517 364.64 l 1
 457.517 0.954102 l 1
 338.703 0.954102 l 1
 338.703 364.64 l 1
 167.517 364.64 l 1
 167.517 0.954102 l 1
 48.7031 0.954102 l 1
 48.7031 532.31 l 2
 48.7031 608.38 99.8896 668.086 191.734 668.086 c 2
 310.65 668.086 l 1
 310.65 625.032 l 2
 310.65 584.978 298.87 552.373 230.264 552.373 c 2
 178.397 552.373 l 2
 170.394 552.373 167.517 550 167.517 542.444 c 2
 167.517 475.577 l 1
 338.703 475.577 l 1
 338.703 572.31 l 2xec
EndSplineSet
LCarets2: 1 0 
Ligature2: "ligatures-1" f f
EndChar

StartChar: fi
Encoding: 64257 64257 250
Width: 510
VWidth: 0
Flags: W
HStem: 0.954102 21G<48.7031 167.517 330.659 449.471> 364.64 110.937<167.517 330.659> 582.373 115.713<168.144 443.069>
VStem: 48.7031 118.813<0.954102 364.64 475.576 579.31> 330.659 118.812<0.954102 364.64>
LayerCount: 3
Fore
SplineSet
48.7031 572.31 m 2
 48.7031 647.775 107.418 698.086 201.793 698.086 c 2
 458.566 698.086 l 1
 458.566 655.032 l 2
 458.566 616.859 444.106 582.373 386.268 582.373 c 2
 201.793 582.373 l 2
 181.187 582.373 167.517 573.875 167.517 553.444 c 2
 167.517 475.576 l 1
 389.457 475.567 l 2
 422.795 475.564 449.472 449.747 449.471 418.354 c 2
 449.471 0.954102 l 1
 330.659 0.954102 l 1
 330.659 364.64 l 1
 167.517 364.64 l 1
 167.517 0.954102 l 1
 48.7031 0.954102 l 1
 48.7031 572.31 l 2
EndSplineSet
LCarets2: 1 0 
Ligature2: "ligatures-1" f i
EndChar

StartChar: fl
Encoding: 64258 64258 251
Width: 561
VWidth: 0
Flags: W
HStem: 0.954102 21G<48.7031 167.517 416.038 515.716> 364.64 110.938<167.517 322.202> 582.373 115.713<170.104 349.515>
VStem: 48.7031 118.813<0.954102 364.64 475.577 579.31> 349.515 128.956<102.888 582.373>
LayerCount: 3
Fore
SplineSet
478.471 639.158 m 2
 478.471 102.888 l 1
 499.06 102.377 515.716 87.8516 515.716 66.2559 c 2
 515.716 0.954102 l 1
 442.5 0.954102 l 2
 389.576 0.954102 349.515 41.1943 349.515 88.0078 c 2
 349.515 582.373 l 1
 198.916 582.373 l 2
 180.039 582.373 167.517 573.875 167.517 553.444 c 2
 167.517 475.577 l 1
 281.453 475.577 l 2
 287.774 474.861 298.095 475.536 311.987 464.457 c 0
 323.225 455.495 335.505 437.835 334.735 420.108 c 0
 333.934 401.674 326.972 387.183 311.828 375.406 c 0
 304.011 369.328 293.544 364.64 281.453 364.64 c 2
 167.517 364.64 l 1
 167.517 0.954102 l 1
 48.7031 0.954102 l 1
 48.7031 572.31 l 2
 48.7031 647.775 107.418 698.086 198.916 698.086 c 2
 438.085 698.086 l 1
 438.085 694.981 l 1
 462.121 687.013 478.471 664.67 478.471 639.158 c 2
EndSplineSet
LCarets2: 1 0 
Ligature2: "ligatures-1" f l
EndChar

StartChar: ffi
Encoding: 64259 64259 252
Width: 769
VWidth: 0
Flags: W
HStem: 0.954102 21G<48.7031 167.517 328.703 447.517 600.659 719.471> 364.64 110.938<167.517 328.703 447.517 600.659> 552.373 115.713<171.211 297.903> 582.373 115.713<448.462 723.069>
VStem: 48.7031 118.813<0.954102 364.64 475.577 549.818> 328.703 118.813<0.954102 364.64 475.577 579.31> 600.659 118.812<0.954102 364.64>
LayerCount: 3
Fore
SplineSet
328.703 572.31 m 2xee
 328.703 647.775 387.418 698.086 482.305 698.086 c 2
 738.566 698.086 l 1
 738.566 655.032 l 2
 738.566 616.859 724.106 582.373 666.268 582.373 c 2
 482.305 582.373 l 2xde
 461.392 582.373 447.517 573.875 447.517 553.444 c 2
 447.517 475.577 l 1
 659.456 475.577 l 2
 692.801 475.577 719.471 449.745 719.471 418.355 c 2
 719.471 0.954102 l 1
 600.659 0.954102 l 1
 600.659 364.64 l 1
 447.517 364.64 l 1
 447.517 0.954102 l 1
 328.703 0.954102 l 1
 328.703 364.64 l 1
 167.517 364.64 l 1
 167.517 0.954102 l 1
 48.7031 0.954102 l 1
 48.7031 532.31 l 2
 48.7031 608.38 99.8896 668.086 192.058 668.086 c 2
 312.562 668.086 l 1
 312.562 625.032 l 2
 312.562 584.978 300.625 552.373 231.102 552.373 c 2
 178.542 552.373 l 2
 170.432 552.373 167.517 550 167.517 542.444 c 2
 167.517 475.577 l 1
 328.703 475.577 l 1
 328.703 572.31 l 2xee
EndSplineSet
LCarets2: 2 0 0 
Ligature2: "ligatures-1" f f i
EndChar

StartChar: ffl
Encoding: 64260 64260 253
Width: 823
VWidth: 0
Flags: W
HStem: 0.954102 21G<48.7031 167.517 338.703 457.517 706.038 805.716> 364.64 110.938<167.517 338.703 457.517 612.202> 552.373 115.713<170.958 296.184> 582.373 115.713<460.104 639.515>
VStem: 48.7031 118.813<0.954102 364.64 475.577 549.818> 338.703 118.813<0.954102 364.64 475.577 579.31> 639.515 128.956<102.888 582.373>
LayerCount: 3
Fore
SplineSet
768.471 639.158 m 2xde
 768.471 102.888 l 1
 789.06 102.377 805.716 87.8516 805.716 66.2559 c 2
 805.716 0.954102 l 1
 732.5 0.954102 l 2
 679.576 0.954102 639.515 41.1943 639.515 88.0078 c 2
 639.515 582.373 l 1
 488.916 582.373 l 2xde
 470.04 582.373 457.517 573.875 457.517 553.444 c 2
 457.517 475.577 l 1
 571.453 475.577 l 2
 577.774 474.861 588.094 475.537 601.987 464.457 c 0
 613.225 455.495 625.505 437.835 624.735 420.108 c 0
 623.934 401.674 616.972 387.183 601.828 375.406 c 0
 594.011 369.328 583.544 364.64 571.453 364.64 c 2
 457.517 364.64 l 1
 457.517 0.954102 l 1
 338.703 0.954102 l 1
 338.703 364.64 l 1
 167.517 364.64 l 1
 167.517 0.954102 l 1
 48.7031 0.954102 l 1
 48.7031 532.31 l 2
 48.7031 608.38 99.8896 668.086 191.734 668.086 c 2
 310.65 668.086 l 1
 310.65 625.032 l 2
 310.65 584.978 298.87 552.373 230.264 552.373 c 2
 178.397 552.373 l 2xee
 170.394 552.373 167.517 550 167.517 542.444 c 2
 167.517 475.577 l 1
 338.703 475.577 l 1
 338.703 572.31 l 2
 338.703 647.775 397.418 698.086 488.916 698.086 c 2
 728.085 698.086 l 1
 728.085 694.981 l 1
 752.121 687.013 768.471 664.67 768.471 639.158 c 2xde
EndSplineSet
LCarets2: 2 0 0 
Ligature2: "ligatures-1" f f l
EndChar
